<svg width="45" height="42.6" xmlns="http://www.w3.org/2000/svg">
 <style type="text/css">.st0{fill:#B2B7B5;}
	.st1{fill:#3F3939;}</style>

 <g>
  <title>background</title>
  <rect fill="none" id="canvas_background" height="44.6" width="47" y="-1" x="-1"/>
 </g>
 <g>
  <title>Layer 1</title>
  <path d="m32.079995,0.000001l-18.82,0c-7.32,0 -13.26,5.25 -13.26,11.73l0,30.79l32.05,0c7.34,0 13.3,-5.27 13.3,-11.77l0,-19.01l0,-11.74l-13.27,0z" class="st0" id="XMLID_309_"/>
  <g id="svg_1">
   <path id="svg_2" d="m27.494994,21.26c0,2.33 -0.43,4.12 -1.28,5.37c-0.85,1.25 -2.03,1.87 -3.54,1.87s-2.69,-0.62 -3.54,-1.87c-0.85,-1.25 -1.28,-3.04 -1.28,-5.37c0,-1.16 0.11,-2.19 0.33,-3.09c0.22,-0.9 0.54,-1.66 0.96,-2.27s0.93,-1.08 1.52,-1.4c0.59,-0.32 1.26,-0.48 2.01,-0.48c1.51,0 2.69,0.62 3.54,1.87s1.28,3.04 1.28,5.37zm-2.5,0c0,-0.72 -0.04,-1.39 -0.12,-2.02c-0.08,-0.63 -0.21,-1.17 -0.39,-1.63c-0.18,-0.46 -0.42,-0.82 -0.71,-1.09c-0.29,-0.27 -0.66,-0.4 -1.1,-0.4c-0.44,0 -0.81,0.13 -1.11,0.4c-0.3,0.27 -0.54,0.63 -0.72,1.09c-0.18,0.46 -0.31,1 -0.38,1.63c-0.07,0.63 -0.11,1.3 -0.11,2.02c0,0.72 0.04,1.39 0.11,2.02c0.07,0.63 0.2,1.17 0.38,1.63c0.18,0.46 0.42,0.82 0.72,1.09c0.3,0.27 0.67,0.4 1.11,0.4c0.44,0 0.81,-0.13 1.1,-0.4c0.29,-0.27 0.53,-0.63 0.71,-1.09c0.18,-0.46 0.31,-1 0.39,-1.63c0.08,-0.62 0.12,-1.3 0.12,-2.02z" class="st1"/>
  </g>
 </g>
</svg>