<svg width="45" height="42.6" xmlns="http://www.w3.org/2000/svg">
 <style type="text/css">.st0{fill:#B2B7B5;}
	.st1{fill:#3F3939;}</style>

 <g>
  <title>background</title>
  <rect fill="none" id="canvas_background" height="44.6" width="47" y="-1" x="-1"/>
 </g>
 <g>
  <title>Layer 1</title>
  <path d="m32.09,0.314744l-18.83,0c-7.32,0 -13.26,5.25 -13.26,11.73l0,30.79l32.05,0c7.34,0 13.3,-5.27 13.3,-11.77l0,-19.01l0,-11.74l-13.26,0z" class="st0" id="XMLID_306_"/>
  <g id="svg_1">
   <path id="svg_2" d="m26.964744,12.904744c0,0.48 -0.1,0.95 -0.3,1.41c-0.2,0.46 -0.46,0.91 -0.77,1.34s-0.67,0.85 -1.07,1.26c-0.4,0.41 -0.8,0.8 -1.2,1.19c-0.21,0.2 -0.45,0.44 -0.72,0.72s-0.52,0.56 -0.76,0.84c-0.24,0.28 -0.45,0.55 -0.62,0.81c-0.17,0.26 -0.27,0.48 -0.28,0.65l6.16,0l0,2.04l-8.82,0c-0.01,-0.11 -0.02,-0.24 -0.02,-0.39s0,-0.27 0,-0.35c0,-0.64 0.1,-1.23 0.31,-1.77c0.21,-0.54 0.48,-1.04 0.81,-1.51s0.71,-0.91 1.12,-1.32s0.83,-0.82 1.24,-1.22c0.32,-0.31 0.63,-0.61 0.92,-0.9c0.29,-0.29 0.55,-0.58 0.77,-0.87c0.22,-0.29 0.4,-0.58 0.53,-0.88c0.13,-0.3 0.2,-0.61 0.2,-0.93c0,-0.69 -0.2,-1.19 -0.6,-1.48c-0.4,-0.29 -0.89,-0.44 -1.46,-0.44c-0.37,0 -0.72,0.05 -1.04,0.16c-0.32,0.11 -0.6,0.23 -0.85,0.38s-0.46,0.3 -0.65,0.45c-0.19,0.15 -0.33,0.28 -0.42,0.37l-1.2,-1.7c0.56,-0.53 1.22,-0.96 1.97,-1.29c0.75,-0.33 1.56,-0.49 2.43,-0.49c1.48,0 2.57,0.35 3.27,1.05c0.7,0.7 1.05,1.66 1.05,2.87z" class="st1"/>
  </g>
  <g id="svg_3">
   <path id="svg_4" d="m17.904744,28.924744c0.4,0 0.74,0.05 1.01,0.15c0.27,0.1 0.49,0.24 0.66,0.42c0.16,0.18 0.28,0.4 0.35,0.66c0.07,0.26 0.1,0.54 0.1,0.84l0,3.17c-0.19,0.04 -0.47,0.09 -0.84,0.15c-0.38,0.06 -0.8,0.08 -1.28,0.08c-0.31,0 -0.6,-0.03 -0.86,-0.09c-0.26,-0.06 -0.48,-0.16 -0.67,-0.29c-0.18,-0.13 -0.33,-0.31 -0.43,-0.52c-0.1,-0.21 -0.15,-0.48 -0.15,-0.79c0,-0.3 0.06,-0.55 0.17,-0.76c0.12,-0.21 0.27,-0.38 0.47,-0.5s0.43,-0.22 0.7,-0.28c0.26,-0.06 0.54,-0.08 0.83,-0.08c0.13,0 0.27,0.01 0.42,0.03s0.3,0.04 0.47,0.08l0,-0.2c0,-0.14 -0.02,-0.27 -0.05,-0.4c-0.03,-0.13 -0.09,-0.24 -0.17,-0.33c-0.08,-0.1 -0.19,-0.17 -0.33,-0.22s-0.31,-0.08 -0.52,-0.08c-0.28,0 -0.54,0.02 -0.77,0.06c-0.23,0.04 -0.42,0.09 -0.57,0.14l-0.15,-0.98c0.15,-0.05 0.38,-0.11 0.67,-0.16c0.29,-0.07 0.61,-0.1 0.94,-0.1zm0.1,4.51c0.37,0 0.66,-0.02 0.85,-0.06l0,-1.34c-0.07,-0.02 -0.16,-0.04 -0.29,-0.06c-0.13,-0.02 -0.27,-0.03 -0.42,-0.03c-0.13,0 -0.27,0.01 -0.41,0.03c-0.14,0.02 -0.26,0.06 -0.37,0.11c-0.11,0.05 -0.2,0.13 -0.26,0.23s-0.1,0.22 -0.1,0.37c0,0.29 0.09,0.48 0.27,0.59s0.43,0.16 0.73,0.16z" class="st1"/>
   <path id="svg_5" d="m26.214744,31.674744c0,0.42 -0.06,0.8 -0.19,1.13s-0.3,0.62 -0.53,0.87c-0.23,0.24 -0.51,0.42 -0.83,0.55c-0.33,0.13 -0.7,0.19 -1.11,0.19c-0.4,0 -0.78,-0.03 -1.15,-0.09c-0.36,-0.06 -0.67,-0.13 -0.91,-0.2l0,-7.4l1.21,-0.2l0,2.71c0.14,-0.07 0.31,-0.14 0.51,-0.2c0.2,-0.06 0.43,-0.09 0.67,-0.09c0.37,0 0.7,0.07 0.99,0.2s0.53,0.31 0.72,0.55s0.34,0.53 0.45,0.87s0.17,0.7 0.17,1.11zm-1.24,-0.02c0,-0.51 -0.1,-0.92 -0.31,-1.22c-0.2,-0.3 -0.52,-0.45 -0.96,-0.45c-0.2,0 -0.39,0.03 -0.56,0.09c-0.18,0.06 -0.32,0.13 -0.42,0.2l0,3.01c0.09,0.02 0.2,0.04 0.33,0.06c0.14,0.02 0.3,0.02 0.49,0.02c0.45,0 0.8,-0.15 1.05,-0.46c0.25,-0.3 0.38,-0.72 0.38,-1.25z" class="st1"/>
   <path id="svg_6" d="m27.174744,31.674744c0,-0.39 0.06,-0.75 0.18,-1.08c0.12,-0.34 0.29,-0.63 0.51,-0.88c0.22,-0.25 0.5,-0.44 0.82,-0.58c0.32,-0.14 0.68,-0.21 1.08,-0.21c0.49,0 0.96,0.09 1.4,0.27l-0.26,0.99c-0.14,-0.06 -0.3,-0.11 -0.47,-0.15c-0.18,-0.04 -0.37,-0.06 -0.57,-0.06c-0.47,0 -0.83,0.15 -1.08,0.44c-0.25,0.3 -0.37,0.72 -0.37,1.26c0,0.52 0.12,0.93 0.35,1.23c0.23,0.3 0.63,0.46 1.18,0.46c0.21,0 0.41,-0.02 0.61,-0.06c0.2,-0.04 0.37,-0.09 0.52,-0.15l0.17,1c-0.13,0.07 -0.33,0.13 -0.6,0.18c-0.27,0.05 -0.55,0.08 -0.83,0.08c-0.45,0 -0.83,-0.07 -1.17,-0.21c-0.33,-0.14 -0.6,-0.33 -0.82,-0.57s-0.38,-0.53 -0.49,-0.87s-0.16,-0.7 -0.16,-1.09z" class="st1"/>
  </g>
 </g>
</svg>