<svg width="45" height="42.6" xmlns="http://www.w3.org/2000/svg">
 <style type="text/css">.st0{fill:#B2B7B5;}
	.st1{fill:#3F3939;}</style>

 <g>
  <title>background</title>
  <rect fill="none" id="canvas_background" height="44.6" width="47" y="-1" x="-1"/>
 </g>
 <g>
  <title>Layer 1</title>
  <path d="m32.08,0.335468l-18.82,0c-7.32,0 -13.26,5.25 -13.26,11.73l0,30.79l32.05,0c7.34,0 13.3,-5.27 13.3,-11.77l0,-19.01l0,-11.74l-13.27,0z" class="st0" id="XMLID_305_"/>
  <g id="svg_1">
   <path id="svg_2" d="m21.76,23.485468c-0.36,0 -0.73,-0.02 -1.11,-0.07c-0.38,-0.05 -0.74,-0.11 -1.08,-0.18c-0.34,-0.07 -0.65,-0.15 -0.93,-0.24c-0.28,-0.09 -0.49,-0.17 -0.64,-0.25l0.48,-2.06c0.28,0.13 0.69,0.28 1.22,0.45s1.19,0.25 1.98,0.25c1.05,0 1.81,-0.2 2.28,-0.61c0.47,-0.41 0.7,-0.95 0.7,-1.63c0,-0.44 -0.09,-0.81 -0.27,-1.1c-0.18,-0.29 -0.43,-0.53 -0.74,-0.71c-0.31,-0.18 -0.67,-0.31 -1.08,-0.38c-0.41,-0.07 -0.84,-0.11 -1.29,-0.11l-0.82,0l0,-1.96l1,0c0.31,0 0.62,-0.03 0.93,-0.09c0.31,-0.06 0.6,-0.17 0.85,-0.32c0.25,-0.15 0.46,-0.36 0.62,-0.61c0.16,-0.25 0.24,-0.58 0.24,-0.98c0,-0.32 -0.06,-0.59 -0.18,-0.82c-0.12,-0.23 -0.28,-0.41 -0.47,-0.56s-0.42,-0.25 -0.67,-0.32c-0.25,-0.07 -0.52,-0.1 -0.8,-0.1c-0.6,0 -1.13,0.09 -1.6,0.27c-0.47,0.18 -0.88,0.38 -1.24,0.61l-0.88,-1.8c0.19,-0.12 0.41,-0.25 0.68,-0.38c0.27,-0.13 0.56,-0.26 0.89,-0.38c0.33,-0.12 0.68,-0.22 1.05,-0.29s0.77,-0.11 1.18,-0.11c0.77,0 1.44,0.09 2,0.28c0.56,0.19 1.02,0.45 1.39,0.79c0.37,0.34 0.64,0.74 0.82,1.2c0.18,0.46 0.27,0.96 0.27,1.51c0,0.64 -0.18,1.21 -0.53,1.72s-0.81,0.89 -1.37,1.16c0.72,0.25 1.32,0.67 1.79,1.26c0.47,0.59 0.71,1.34 0.71,2.26c0,0.61 -0.11,1.18 -0.32,1.71c-0.21,0.53 -0.54,0.98 -0.98,1.36c-0.44,0.38 -1,0.68 -1.67,0.9c-0.67,0.22 -1.47,0.33 -2.41,0.33z" class="st1"/>
  </g>
  <g id="svg_3">
   <path id="svg_4" d="m19.71,34.025468c-0.24,0.07 -0.54,0.14 -0.91,0.2c-0.36,0.06 -0.75,0.09 -1.15,0.09c-0.41,0 -0.78,-0.06 -1.11,-0.19c-0.33,-0.13 -0.61,-0.31 -0.83,-0.54c-0.23,-0.24 -0.41,-0.52 -0.53,-0.86s-0.18,-0.71 -0.18,-1.13c0,-0.41 0.05,-0.79 0.15,-1.12s0.25,-0.62 0.46,-0.87s0.44,-0.42 0.73,-0.55c0.29,-0.13 0.62,-0.2 0.99,-0.2c0.25,0 0.48,0.03 0.67,0.09c0.19,0.06 0.36,0.13 0.5,0.2l0,-2.52l1.21,-0.2l0,7.6zm-3.47,-2.47c0,0.53 0.13,0.95 0.38,1.25c0.25,0.3 0.6,0.46 1.05,0.46c0.19,0 0.36,-0.01 0.49,-0.02s0.25,-0.04 0.34,-0.06l0,-3c-0.11,-0.07 -0.25,-0.14 -0.43,-0.21c-0.18,-0.06 -0.36,-0.09 -0.56,-0.09c-0.44,0 -0.76,0.15 -0.96,0.45c-0.21,0.3 -0.31,0.71 -0.31,1.22z" class="st1"/>
   <path id="svg_5" d="m20.96,31.595468c0,-0.46 0.07,-0.86 0.2,-1.21s0.32,-0.63 0.55,-0.87c0.23,-0.23 0.49,-0.4 0.78,-0.52c0.29,-0.12 0.59,-0.17 0.9,-0.17c0.72,0 1.28,0.22 1.68,0.67c0.4,0.45 0.61,1.11 0.61,2c0,0.07 0,0.14 0,0.22c0,0.08 -0.01,0.16 -0.02,0.22l-3.45,0c0.03,0.42 0.18,0.75 0.44,0.98c0.26,0.23 0.65,0.34 1.15,0.34c0.29,0 0.56,-0.03 0.8,-0.08c0.24,-0.05 0.43,-0.11 0.58,-0.17l0.16,0.99c-0.07,0.03 -0.16,0.07 -0.28,0.1c-0.12,0.04 -0.25,0.07 -0.4,0.1c-0.15,0.03 -0.31,0.05 -0.48,0.08c-0.17,0.02 -0.35,0.03 -0.53,0.03c-0.46,0 -0.86,-0.07 -1.2,-0.21c-0.34,-0.14 -0.62,-0.33 -0.84,-0.57s-0.38,-0.53 -0.49,-0.86s-0.16,-0.68 -0.16,-1.07zm3.51,-0.54c0,-0.17 -0.02,-0.33 -0.07,-0.47c-0.05,-0.15 -0.12,-0.28 -0.21,-0.39c-0.09,-0.11 -0.2,-0.2 -0.33,-0.26s-0.29,-0.09 -0.46,-0.09c-0.19,0 -0.35,0.04 -0.49,0.1c-0.14,0.07 -0.26,0.16 -0.35,0.28s-0.17,0.24 -0.23,0.39c-0.05,0.15 -0.09,0.3 -0.11,0.45l2.25,0l0,-0.01z" class="st1"/>
   <path id="svg_6" d="m29.09,26.425468c0.28,0 0.53,0.03 0.74,0.08c0.21,0.05 0.37,0.09 0.48,0.13l-0.23,1c-0.11,-0.05 -0.25,-0.1 -0.39,-0.13c-0.15,-0.03 -0.31,-0.05 -0.49,-0.05c-0.19,0 -0.36,0.03 -0.49,0.08c-0.13,0.06 -0.24,0.13 -0.32,0.23c-0.08,0.1 -0.14,0.22 -0.17,0.37c-0.03,0.14 -0.05,0.3 -0.05,0.46l0,0.35l1.9,0l0,1.01l-1.9,0l0,4.22l-1.21,0l0,-5.6c0,-0.67 0.18,-1.2 0.53,-1.58c0.36,-0.38 0.89,-0.57 1.6,-0.57z" class="st1"/>
  </g>
 </g>
</svg>