<svg width="45" height="42.6" xmlns="http://www.w3.org/2000/svg">
 <style type="text/css">.st0{fill:#B2B7B5;}
	.st1{fill:#3F3939;}</style>

 <g>
  <title>background</title>
  <rect fill="none" id="canvas_background" height="44.6" width="47" y="-1" x="-1"/>
 </g>
 <g>
  <title>Layer 1</title>
  <path d="m32.08,0.47l-18.82,0c-7.32,0 -13.26,5.25 -13.26,11.73l0,30.79l32.05,0c7.34,0 13.3,-5.27 13.3,-11.77l0,-19.01l0,-11.74l-13.27,0z" class="st0" id="XMLID_304_"/>
  <g id="svg_1">
   <path id="svg_2" d="m26.32,9.62l0,8.56l1.56,0l0,1.98l-1.56,0l0,3.32l-2.36,0l0,-3.32l-6.08,0l0,-1.72c0.27,-0.59 0.62,-1.26 1.07,-2.02c0.45,-0.76 0.94,-1.54 1.49,-2.34s1.13,-1.59 1.74,-2.36s1.23,-1.47 1.84,-2.1l2.3,0zm-2.36,2.98c-0.32,0.39 -0.65,0.8 -0.99,1.24c-0.34,0.44 -0.67,0.9 -0.99,1.38c-0.32,0.48 -0.63,0.97 -0.92,1.47s-0.56,1 -0.8,1.49l3.7,0l0,-5.58z" class="st1"/>
  </g>
  <g id="svg_3">
   <path id="svg_4" d="m20.83,33.95c0,0.83 -0.21,1.44 -0.63,1.83c-0.42,0.39 -1.07,0.58 -1.95,0.58c-0.32,0 -0.63,-0.03 -0.93,-0.08c-0.3,-0.05 -0.58,-0.12 -0.83,-0.21l0.22,-1.03c0.21,0.09 0.44,0.16 0.71,0.21c0.26,0.05 0.55,0.08 0.86,0.08c0.49,0 0.83,-0.1 1.04,-0.3c0.21,-0.2 0.31,-0.5 0.31,-0.89l0,-0.2c-0.12,0.06 -0.28,0.12 -0.47,0.18c-0.2,0.06 -0.42,0.09 -0.67,0.09c-0.33,0 -0.64,-0.05 -0.92,-0.16c-0.28,-0.11 -0.51,-0.26 -0.71,-0.47c-0.2,-0.21 -0.35,-0.46 -0.46,-0.77c-0.11,-0.31 -0.16,-0.67 -0.16,-1.08c0,-0.38 0.06,-0.73 0.17,-1.05c0.12,-0.32 0.29,-0.59 0.51,-0.82s0.5,-0.4 0.82,-0.53c0.32,-0.13 0.68,-0.19 1.09,-0.19c0.39,0 0.77,0.03 1.12,0.09c0.35,0.06 0.65,0.12 0.9,0.19l0,4.53l-0.02,0zm-3.37,-2.22c0,0.51 0.11,0.89 0.33,1.12c0.22,0.24 0.51,0.35 0.87,0.35c0.19,0 0.38,-0.03 0.54,-0.08c0.17,-0.05 0.31,-0.12 0.42,-0.19l0,-2.71c-0.09,-0.02 -0.19,-0.04 -0.32,-0.06c-0.13,-0.02 -0.29,-0.02 -0.48,-0.02c-0.44,0 -0.78,0.14 -1.01,0.43s-0.35,0.69 -0.35,1.16z" class="st1"/>
   <path id="svg_5" d="m22.37,34.48l0,-7.56l1.21,-0.2l0,2.59c0.13,-0.05 0.29,-0.09 0.46,-0.12c0.18,-0.03 0.35,-0.05 0.52,-0.05c0.42,0 0.77,0.06 1.04,0.17c0.28,0.12 0.5,0.28 0.67,0.49c0.17,0.21 0.29,0.46 0.36,0.75c0.07,0.29 0.1,0.62 0.1,0.98l0,2.94l-1.21,0l0,-2.75c0,-0.28 -0.02,-0.52 -0.05,-0.71c-0.04,-0.2 -0.1,-0.36 -0.18,-0.48c-0.08,-0.12 -0.2,-0.21 -0.33,-0.27c-0.14,-0.06 -0.31,-0.08 -0.52,-0.08c-0.16,0 -0.32,0.02 -0.49,0.05c-0.17,0.03 -0.29,0.06 -0.37,0.09l0,4.16l-1.21,0z" class="st1"/>
   <path id="svg_6" d="m29.54,27.72c0,0.23 -0.07,0.41 -0.22,0.54c-0.15,0.13 -0.32,0.2 -0.52,0.2c-0.21,0 -0.38,-0.07 -0.53,-0.2c-0.15,-0.13 -0.22,-0.31 -0.22,-0.54c0,-0.23 0.07,-0.42 0.22,-0.55c0.15,-0.13 0.32,-0.2 0.53,-0.2c0.2,0 0.37,0.07 0.52,0.2c0.15,0.13 0.22,0.32 0.22,0.55zm-0.12,6.76l-1.21,0l0,-5.23l1.21,0l0,5.23z" class="st1"/>
  </g>
 </g>
</svg>