<svg width="45" height="42.6" xmlns="http://www.w3.org/2000/svg">
 <style type="text/css">.st0{fill:#B2B7B5;}
	.st1{fill:#3F3939;}</style>

 <g>
  <title>background</title>
  <rect fill="none" id="canvas_background" height="44.6" width="47" y="-1" x="-1"/>
 </g>
 <g>
  <title>Layer 1</title>
  <path d="m31.83,0.47l-18.83,0c-7.32,0 -13.26,5.25 -13.26,11.73l0,30.79l32.05,0c7.34,0 13.3,-5.27 13.3,-11.77l0,-19.01l0,-11.74l-13.26,0z" class="st0" id="XMLID_303_"/>
  <g id="svg_1">
   <path id="svg_2" d="m24.4,19.52c0,-0.44 -0.09,-0.83 -0.26,-1.18c-0.17,-0.35 -0.48,-0.64 -0.91,-0.88c-0.43,-0.24 -1.01,-0.42 -1.74,-0.54s-1.64,-0.18 -2.75,-0.18c0.15,-1.28 0.26,-2.5 0.34,-3.65c0.08,-1.15 0.15,-2.31 0.2,-3.47l7.08,0l0,2.04l-5.02,0c-0.01,0.23 -0.03,0.48 -0.05,0.77c-0.02,0.29 -0.04,0.58 -0.06,0.87c-0.02,0.29 -0.04,0.57 -0.07,0.84s-0.05,0.49 -0.08,0.68c1.97,0.11 3.43,0.56 4.37,1.35c0.94,0.79 1.41,1.88 1.41,3.25c0,0.63 -0.11,1.21 -0.32,1.74s-0.54,0.99 -0.98,1.38c-0.44,0.39 -0.99,0.69 -1.66,0.91c-0.67,0.22 -1.45,0.33 -2.34,0.33c-0.36,0 -0.73,-0.03 -1.1,-0.08c-0.37,-0.05 -0.73,-0.12 -1.07,-0.19c-0.34,-0.07 -0.64,-0.15 -0.91,-0.23c-0.27,-0.08 -0.47,-0.15 -0.6,-0.22l0.46,-2.04c0.28,0.13 0.68,0.28 1.21,0.43c0.53,0.15 1.17,0.23 1.93,0.23c0.52,0 0.97,-0.06 1.34,-0.17c0.37,-0.11 0.68,-0.27 0.91,-0.47c0.23,-0.2 0.4,-0.43 0.51,-0.69c0.11,-0.26 0.16,-0.54 0.16,-0.83z" class="st1"/>
  </g>
  <g id="svg_3">
   <path id="svg_4" d="m16.97,36.34c-0.09,0 -0.21,-0.01 -0.36,-0.02c-0.16,-0.02 -0.29,-0.05 -0.42,-0.09l0.16,-0.99c0.15,0.05 0.32,0.07 0.53,0.07c0.28,0 0.48,-0.08 0.59,-0.24c0.11,-0.16 0.17,-0.41 0.17,-0.74l0,-5.07l1.21,0l0,5.09c0,0.68 -0.16,1.18 -0.49,1.51c-0.32,0.32 -0.78,0.48 -1.39,0.48zm2.01,-8.62c0,0.23 -0.07,0.41 -0.22,0.54c-0.15,0.13 -0.32,0.2 -0.52,0.2c-0.21,0 -0.38,-0.07 -0.53,-0.2c-0.15,-0.13 -0.22,-0.31 -0.22,-0.54c0,-0.23 0.07,-0.42 0.22,-0.55c0.15,-0.13 0.32,-0.2 0.53,-0.2c0.2,0 0.37,0.07 0.52,0.2c0.15,0.13 0.22,0.32 0.22,0.55z" class="st1"/>
   <path id="svg_5" d="m21.6,31.29c0.15,-0.16 0.32,-0.33 0.49,-0.51c0.17,-0.18 0.34,-0.37 0.51,-0.55c0.17,-0.18 0.32,-0.36 0.47,-0.53s0.28,-0.32 0.38,-0.45l1.43,0c-0.33,0.37 -0.68,0.76 -1.05,1.16c-0.37,0.4 -0.74,0.79 -1.11,1.17c0.2,0.17 0.41,0.37 0.63,0.61c0.22,0.24 0.43,0.49 0.64,0.75s0.4,0.53 0.58,0.8s0.33,0.51 0.45,0.74l-1.4,0c-0.12,-0.21 -0.26,-0.42 -0.42,-0.65s-0.33,-0.45 -0.5,-0.66c-0.18,-0.21 -0.36,-0.42 -0.55,-0.6c-0.19,-0.19 -0.37,-0.35 -0.55,-0.49l0,2.4l-1.21,0l0,-7.56l1.21,-0.2l0,4.57z" class="st1"/>
   <path id="svg_6" d="m27.72,34.58c-0.36,-0.01 -0.66,-0.05 -0.89,-0.12c-0.24,-0.07 -0.43,-0.18 -0.57,-0.31s-0.24,-0.31 -0.29,-0.51c-0.06,-0.2 -0.08,-0.43 -0.08,-0.69l0,-6.02l1.21,-0.2l0,5.99c0,0.15 0.01,0.27 0.04,0.37c0.02,0.1 0.06,0.19 0.12,0.25c0.06,0.07 0.14,0.12 0.25,0.16c0.1,0.04 0.23,0.07 0.39,0.08l-0.18,1z" class="st1"/>
  </g>
 </g>
</svg>