<svg width="45" height="42.6" xmlns="http://www.w3.org/2000/svg">
 <style type="text/css">.st0{fill:#B2B7B5;}
	.st1{fill:#3F3939;}</style>

 <g>
  <title>background</title>
  <rect fill="none" id="canvas_background" height="44.6" width="47" y="-1" x="-1"/>
 </g>
 <g>
  <title>Layer 1</title>
  <path d="m32.35,0.47l-18.82,0c-7.32,0 -13.26,5.25 -13.26,11.73l0,30.79l32.05,0c7.34,0 13.3,-5.27 13.3,-11.77l0,-19.01l0,-11.74l-13.27,0z" class="st0" id="XMLID_302_"/>
  <g id="svg_1">
   <path id="svg_2" d="m23.2,14.82c0.83,0 1.53,0.12 2.11,0.35c0.58,0.23 1.05,0.55 1.41,0.95c0.36,0.4 0.62,0.86 0.79,1.39c0.17,0.53 0.25,1.08 0.25,1.65c0,0.52 -0.09,1.05 -0.27,1.6c-0.18,0.55 -0.46,1.04 -0.84,1.49c-0.38,0.45 -0.86,0.81 -1.43,1.1c-0.57,0.29 -1.25,0.43 -2.04,0.43c-1.59,0 -2.8,-0.52 -3.63,-1.57c-0.83,-1.05 -1.25,-2.49 -1.25,-4.33c0,-1.33 0.2,-2.52 0.59,-3.55s0.95,-1.9 1.68,-2.61c0.73,-0.71 1.61,-1.24 2.64,-1.61c1.03,-0.37 2.2,-0.56 3.49,-0.57l0.14,2c-0.72,0.01 -1.39,0.09 -2.02,0.23c-0.63,0.14 -1.19,0.36 -1.68,0.65c-0.49,0.29 -0.92,0.67 -1.27,1.14c-0.35,0.47 -0.62,1.04 -0.81,1.72c0.66,-0.31 1.37,-0.46 2.14,-0.46zm-0.3,1.92c-0.39,0 -0.76,0.03 -1.12,0.1c-0.36,0.07 -0.69,0.17 -0.98,0.3c-0.01,0.11 -0.02,0.22 -0.03,0.35s-0.01,0.25 -0.01,0.37c0,0.53 0.04,1.04 0.11,1.51c0.07,0.47 0.2,0.89 0.38,1.24c0.18,0.35 0.43,0.63 0.74,0.84c0.31,0.21 0.7,0.31 1.17,0.31c0.39,0 0.72,-0.08 0.99,-0.24s0.5,-0.37 0.67,-0.62c0.17,-0.25 0.3,-0.53 0.38,-0.83c0.08,-0.3 0.12,-0.59 0.12,-0.87c0,-0.8 -0.19,-1.41 -0.58,-1.83c-0.38,-0.42 -1,-0.63 -1.84,-0.63z" class="st1"/>
  </g>
  <g id="svg_3">
   <path id="svg_4" d="m16.38,31.85c0,-0.55 -0.07,-0.94 -0.21,-1.19c-0.14,-0.24 -0.39,-0.36 -0.76,-0.36c-0.13,0 -0.28,0.01 -0.44,0.03c-0.16,0.02 -0.28,0.04 -0.36,0.05l0,4.22l-1.21,0l0,-5.06c0.23,-0.07 0.54,-0.13 0.92,-0.19c0.38,-0.06 0.78,-0.09 1.2,-0.09c0.36,0 0.66,0.05 0.88,0.14c0.23,0.09 0.42,0.22 0.58,0.37c0.07,-0.05 0.17,-0.11 0.28,-0.17c0.11,-0.06 0.24,-0.12 0.38,-0.17s0.29,-0.09 0.45,-0.12c0.16,-0.03 0.31,-0.05 0.47,-0.05c0.41,0 0.74,0.06 1,0.17c0.26,0.12 0.47,0.28 0.62,0.49s0.25,0.46 0.31,0.76c0.06,0.3 0.08,0.62 0.08,0.97l0,2.94l-1.21,0l0,-2.75c0,-0.55 -0.07,-0.94 -0.2,-1.19c-0.13,-0.24 -0.39,-0.36 -0.77,-0.36c-0.19,0 -0.38,0.03 -0.55,0.09c-0.17,0.06 -0.3,0.12 -0.39,0.18c0.05,0.17 0.09,0.34 0.11,0.53c0.02,0.19 0.03,0.39 0.03,0.6l0,2.89l-1.21,0l0,-2.73z" class="st1"/>
   <path id="svg_5" d="m22.05,29.54c0.23,-0.07 0.54,-0.13 0.91,-0.19c0.37,-0.06 0.79,-0.09 1.24,-0.09c0.43,0 0.78,0.06 1.07,0.17c0.29,0.12 0.51,0.28 0.68,0.49s0.29,0.46 0.36,0.76s0.1,0.62 0.1,0.97l0,2.94l-1.21,0l0,-2.75c0,-0.28 -0.02,-0.52 -0.05,-0.71c-0.04,-0.2 -0.1,-0.36 -0.18,-0.48c-0.08,-0.12 -0.2,-0.21 -0.34,-0.27c-0.14,-0.06 -0.32,-0.08 -0.53,-0.08c-0.15,0 -0.31,0.01 -0.48,0.03c-0.17,0.02 -0.29,0.04 -0.37,0.05l0,4.22l-1.21,0l0,-5.06l0.01,0z" class="st1"/>
   <path id="svg_6" d="m32.63,31.98c0,0.41 -0.06,0.79 -0.18,1.13s-0.29,0.63 -0.51,0.87c-0.22,0.24 -0.48,0.43 -0.79,0.56c-0.31,0.13 -0.65,0.2 -1.02,0.2c-0.37,0 -0.71,-0.07 -1.02,-0.2c-0.31,-0.13 -0.57,-0.32 -0.79,-0.56c-0.22,-0.24 -0.39,-0.53 -0.51,-0.87s-0.18,-0.72 -0.18,-1.13s0.06,-0.79 0.18,-1.12s0.3,-0.62 0.52,-0.87c0.22,-0.24 0.49,-0.42 0.8,-0.55c0.31,-0.13 0.64,-0.2 1.01,-0.2c0.37,0 0.71,0.07 1.01,0.2c0.31,0.13 0.58,0.31 0.79,0.55s0.39,0.53 0.52,0.87c0.11,0.33 0.17,0.7 0.17,1.12zm-1.24,0c0,-0.52 -0.11,-0.93 -0.33,-1.24c-0.22,-0.3 -0.54,-0.46 -0.93,-0.46c-0.4,0 -0.71,0.15 -0.94,0.46c-0.22,0.3 -0.33,0.71 -0.33,1.24c0,0.53 0.11,0.94 0.33,1.25c0.22,0.31 0.54,0.46 0.94,0.46c0.4,0 0.71,-0.15 0.93,-0.46s0.33,-0.73 0.33,-1.25z" class="st1"/>
  </g>
 </g>
</svg>