<svg width="45" height="42.6" xmlns="http://www.w3.org/2000/svg">
 <style type="text/css">.st0{fill:#B2B7B5;}
	.st1{fill:#3F3939;}</style>

 <g>
  <title>background</title>
  <rect fill="none" id="canvas_background" height="44.6" width="47" y="-1" x="-1"/>
 </g>
 <g>
  <title>Layer 1</title>
  <path d="m31.83,0.23l-18.83,0c-7.32,0 -13.26,5.25 -13.26,11.73l0,30.79l32.05,0c7.34,0 13.3,-5.27 13.3,-11.77l0,-19.01l0,-11.74l-13.26,0z" class="st0" id="XMLID_300_"/>
  <g id="svg_1">
   <path id="svg_2" d="m27.08,19.51c0,0.57 -0.1,1.11 -0.3,1.6c-0.2,0.49 -0.5,0.92 -0.9,1.28c-0.4,0.36 -0.9,0.64 -1.49,0.84c-0.59,0.2 -1.28,0.3 -2.05,0.3c-0.91,0 -1.66,-0.13 -2.26,-0.38c-0.6,-0.25 -1.08,-0.57 -1.44,-0.96s-0.62,-0.8 -0.77,-1.25c-0.15,-0.45 -0.23,-0.87 -0.23,-1.27c0,-0.4 0.06,-0.77 0.17,-1.11s0.27,-0.65 0.47,-0.94c0.2,-0.29 0.43,-0.55 0.68,-0.79c0.25,-0.24 0.52,-0.45 0.8,-0.64c-0.61,-0.43 -1.07,-0.89 -1.37,-1.39s-0.45,-1.11 -0.45,-1.83c0,-0.52 0.1,-1.02 0.31,-1.49c0.21,-0.47 0.5,-0.89 0.89,-1.25c0.39,-0.36 0.85,-0.65 1.4,-0.86c0.55,-0.21 1.15,-0.32 1.82,-0.32c0.79,0 1.46,0.11 2.01,0.34c0.55,0.23 1.01,0.52 1.36,0.88c0.35,0.36 0.61,0.76 0.77,1.2s0.24,0.87 0.24,1.28c0,0.73 -0.2,1.38 -0.6,1.95c-0.4,0.57 -0.86,1.02 -1.38,1.35c0.79,0.43 1.37,0.92 1.75,1.48c0.38,0.56 0.57,1.22 0.57,1.98zm-7.06,0.12c0,0.2 0.04,0.41 0.12,0.64c0.08,0.23 0.21,0.43 0.4,0.62c0.19,0.19 0.43,0.34 0.72,0.47c0.29,0.13 0.66,0.19 1.1,0.19c0.4,0 0.75,-0.05 1.04,-0.16c0.29,-0.11 0.53,-0.25 0.72,-0.43c0.19,-0.18 0.33,-0.39 0.42,-0.62c0.09,-0.23 0.14,-0.47 0.14,-0.71c0,-0.37 -0.07,-0.7 -0.22,-0.98c-0.15,-0.28 -0.36,-0.52 -0.63,-0.73c-0.27,-0.21 -0.6,-0.39 -0.97,-0.54s-0.79,-0.29 -1.24,-0.41c-0.48,0.31 -0.87,0.68 -1.16,1.11c-0.29,0.44 -0.44,0.95 -0.44,1.55zm4.36,-6.83c0,-0.17 -0.04,-0.36 -0.11,-0.57s-0.19,-0.4 -0.36,-0.57c-0.17,-0.17 -0.38,-0.32 -0.63,-0.44c-0.25,-0.12 -0.56,-0.18 -0.92,-0.18c-0.36,0 -0.67,0.06 -0.93,0.17s-0.47,0.26 -0.63,0.44s-0.28,0.37 -0.36,0.58s-0.12,0.41 -0.12,0.61c0,0.51 0.19,0.99 0.57,1.44c0.38,0.45 1.02,0.81 1.91,1.08c0.49,-0.31 0.88,-0.66 1.16,-1.05c0.28,-0.4 0.42,-0.9 0.42,-1.51z" class="st1"/>
  </g>
  <g id="svg_3">
   <path id="svg_4" d="m15.5,27.59l1.21,-0.2l0,1.58l1.86,0l0,1.01l-1.86,0l0,2.13c0,0.42 0.07,0.72 0.2,0.9c0.13,0.18 0.36,0.27 0.68,0.27c0.22,0 0.42,-0.02 0.58,-0.07c0.17,-0.05 0.31,-0.09 0.41,-0.13l0.2,0.96c-0.14,0.06 -0.32,0.12 -0.55,0.19c-0.23,0.06 -0.49,0.09 -0.8,0.09c-0.37,0 -0.68,-0.05 -0.93,-0.15c-0.25,-0.1 -0.45,-0.25 -0.59,-0.44c-0.15,-0.19 -0.25,-0.42 -0.31,-0.69c-0.06,-0.27 -0.09,-0.58 -0.09,-0.93l0,-4.52l-0.01,0z" class="st1"/>
   <path id="svg_5" d="m24.03,34.04c-0.23,0.06 -0.54,0.12 -0.91,0.19c-0.37,0.06 -0.78,0.09 -1.23,0.09c-0.42,0 -0.77,-0.06 -1.05,-0.18s-0.51,-0.29 -0.68,-0.5c-0.17,-0.21 -0.29,-0.47 -0.36,-0.77c-0.07,-0.3 -0.11,-0.62 -0.11,-0.97l0,-2.93l1.21,0l0,2.74c0,0.56 0.08,0.96 0.25,1.2c0.16,0.24 0.45,0.36 0.85,0.36c0.15,0 0.3,-0.01 0.47,-0.02c0.16,-0.01 0.28,-0.03 0.36,-0.05l0,-4.23l1.21,0l0,5.07l-0.01,0z" class="st1"/>
   <path id="svg_6" d="m26.92,34.2c-0.33,-0.69 -0.68,-1.47 -1.03,-2.37c-0.35,-0.89 -0.67,-1.84 -0.96,-2.86l1.29,0c0.07,0.29 0.16,0.61 0.26,0.94c0.1,0.34 0.2,0.67 0.31,1.01c0.11,0.34 0.22,0.66 0.34,0.98s0.23,0.6 0.33,0.86c0.1,-0.25 0.21,-0.54 0.32,-0.86c0.11,-0.32 0.23,-0.64 0.34,-0.98c0.11,-0.34 0.22,-0.67 0.32,-1.01c0.1,-0.34 0.19,-0.65 0.26,-0.94l1.25,0c-0.29,1.02 -0.61,1.97 -0.96,2.86c-0.35,0.89 -0.69,1.68 -1.03,2.37l-1.04,0z" class="st1"/>
  </g>
 </g>
</svg>