<svg width="72" height="57" xmlns="http://www.w3.org/2000/svg">
 <style type="text/css">.st0{fill:#3F3939;}
	.st1{fill:#ACB2B0;}
	.st2{fill:#FFFFFF;}
	.st3{fill:#E20613;}
	.st4{fill-rule:evenodd;clip-rule:evenodd;fill:#E20613;}</style>

 <g>
  <title>background</title>
  <rect fill="none" id="canvas_background" height="59" width="74" y="-1" x="-1"/>
 </g>
 <g>
  <title>Layer 1</title>
  <g id="svg_1">
   <path d="m71.37,21.24l0,14.93c0,11.48 -9.3,20.78 -20.78,20.78l-50.09,0l0,-35.73c0,-11.44 9.28,-20.72 20.72,-20.72l29.41,0l20.74,0l0,20.74z" class="st0" id="XMLID_282_"/>
   <path id="svg_2" d="m50.59,57.45l-50.59,0l0,-36.23c0,-11.7 9.52,-21.22 21.22,-21.22l50.65,0l0,36.17c0,11.74 -9.54,21.28 -21.28,21.28zm-49.58,-1l49.59,0c11.18,0 20.28,-9.1 20.28,-20.28l0,-35.17l-49.65,0c-11.15,0 -20.22,9.07 -20.22,20.22l0,35.23z" class="st1"/>
   <g id="svg_3">
    <path id="svg_4" d="m17.97,49.08c-0.1,-0.3 -0.21,-0.6 -0.32,-0.89c-0.11,-0.29 -0.22,-0.59 -0.32,-0.9l-3.22,0c-0.1,0.31 -0.21,0.61 -0.31,0.91c-0.11,0.3 -0.21,0.59 -0.31,0.89l-1.44,0c0.29,-0.81 0.56,-1.57 0.81,-2.25c0.26,-0.69 0.51,-1.34 0.75,-1.96c0.25,-0.62 0.49,-1.2 0.73,-1.76c0.24,-0.56 0.49,-1.11 0.75,-1.65l1.32,0c0.26,0.54 0.51,1.09 0.75,1.65c0.24,0.56 0.49,1.14 0.73,1.76c0.25,0.62 0.5,1.27 0.76,1.96s0.53,1.44 0.82,2.25l-1.5,0l0,-0.01zm-2.25,-6.14c-0.17,0.39 -0.36,0.86 -0.58,1.42c-0.22,0.56 -0.44,1.16 -0.68,1.82l2.51,0c-0.23,-0.65 -0.46,-1.26 -0.68,-1.83c-0.21,-0.57 -0.4,-1.04 -0.57,-1.41z" class="st2"/>
    <path id="svg_5" d="m25.24,47.89l0,1.2l-4.82,0l0,-7.62l1.39,0l0,6.42l3.43,0z" class="st2"/>
    <path id="svg_6" d="m31.65,49.08c-0.1,-0.3 -0.21,-0.6 -0.32,-0.89c-0.11,-0.29 -0.22,-0.59 -0.32,-0.9l-3.22,0c-0.1,0.31 -0.21,0.61 -0.31,0.91c-0.11,0.3 -0.21,0.59 -0.31,0.89l-1.44,0c0.29,-0.81 0.56,-1.57 0.81,-2.25c0.26,-0.69 0.51,-1.34 0.75,-1.96c0.25,-0.62 0.49,-1.2 0.73,-1.76c0.24,-0.56 0.49,-1.11 0.75,-1.65l1.32,0c0.26,0.54 0.51,1.09 0.75,1.65c0.24,0.56 0.49,1.14 0.73,1.76c0.25,0.62 0.5,1.27 0.76,1.96s0.53,1.44 0.82,2.25l-1.5,0l0,-0.01zm-2.25,-6.14c-0.17,0.39 -0.36,0.86 -0.58,1.42c-0.22,0.56 -0.44,1.16 -0.68,1.82l2.51,0c-0.23,-0.65 -0.46,-1.26 -0.68,-1.83c-0.22,-0.57 -0.41,-1.04 -0.57,-1.41z" class="st2"/>
    <path id="svg_7" d="m36.2,41.38c1.1,0 1.94,0.2 2.52,0.61s0.87,1.02 0.87,1.85c0,1.03 -0.51,1.73 -1.53,2.1c0.14,0.17 0.3,0.37 0.47,0.62c0.18,0.24 0.36,0.5 0.54,0.79c0.18,0.28 0.36,0.57 0.53,0.87c0.17,0.3 0.32,0.59 0.45,0.87l-1.55,0c-0.14,-0.26 -0.29,-0.53 -0.45,-0.8c-0.16,-0.27 -0.32,-0.53 -0.49,-0.78s-0.33,-0.49 -0.49,-0.72c-0.16,-0.22 -0.31,-0.42 -0.45,-0.6c-0.1,0.01 -0.19,0.01 -0.26,0.01c-0.07,0 -0.14,0 -0.21,0l-0.67,0l0,2.88l-1.39,0l0,-7.51c0.34,-0.07 0.7,-0.12 1.08,-0.15c0.39,-0.02 0.73,-0.04 1.03,-0.04zm0.1,1.2c-0.29,0 -0.56,0.01 -0.81,0.03l0,2.46l0.6,0c0.34,0 0.63,-0.02 0.89,-0.05c0.26,-0.04 0.47,-0.1 0.64,-0.2s0.3,-0.22 0.39,-0.38s0.13,-0.37 0.13,-0.62c0,-0.23 -0.04,-0.43 -0.13,-0.59c-0.09,-0.16 -0.21,-0.29 -0.38,-0.39c-0.17,-0.09 -0.36,-0.16 -0.59,-0.2c-0.22,-0.04 -0.47,-0.06 -0.74,-0.06z" class="st2"/>
    <path id="svg_8" d="m42.81,41.46c0.16,0.28 0.34,0.62 0.54,1.02c0.2,0.4 0.4,0.83 0.6,1.27c0.21,0.44 0.41,0.89 0.61,1.35s0.39,0.88 0.56,1.27c0.17,-0.39 0.35,-0.81 0.55,-1.27c0.2,-0.46 0.4,-0.91 0.6,-1.35c0.21,-0.44 0.41,-0.87 0.6,-1.27c0.2,-0.4 0.38,-0.74 0.54,-1.02l1.25,0c0.07,0.56 0.13,1.15 0.19,1.78c0.06,0.63 0.11,1.27 0.16,1.92c0.05,0.66 0.09,1.32 0.13,1.98s0.08,1.31 0.11,1.94l-1.36,0c-0.03,-0.89 -0.07,-1.8 -0.11,-2.74c-0.04,-0.94 -0.1,-1.85 -0.19,-2.73c-0.08,0.17 -0.18,0.37 -0.29,0.6c-0.11,0.24 -0.23,0.49 -0.35,0.76c-0.12,0.28 -0.25,0.56 -0.38,0.85c-0.13,0.29 -0.25,0.58 -0.37,0.85s-0.23,0.53 -0.34,0.77s-0.19,0.44 -0.26,0.61l-1.03,0c-0.07,-0.17 -0.16,-0.37 -0.26,-0.62s-0.21,-0.5 -0.34,-0.78c-0.12,-0.28 -0.25,-0.56 -0.37,-0.85s-0.25,-0.58 -0.38,-0.85c-0.12,-0.27 -0.24,-0.53 -0.35,-0.76s-0.21,-0.44 -0.29,-0.6c-0.08,0.88 -0.14,1.79 -0.19,2.73c-0.04,0.94 -0.08,1.85 -0.11,2.74l-1.36,0c0.03,-0.63 0.07,-1.28 0.11,-1.96s0.09,-1.34 0.13,-2.01c0.05,-0.66 0.1,-1.31 0.16,-1.93c0.06,-0.62 0.12,-1.2 0.19,-1.73l1.3,0l0,0.03z" class="st2"/>
    <path id="svg_9" d="m52.71,48.05c0.5,0 0.86,-0.08 1.09,-0.25c0.23,-0.17 0.34,-0.41 0.34,-0.71c0,-0.18 -0.04,-0.34 -0.12,-0.47c-0.08,-0.13 -0.19,-0.25 -0.33,-0.36c-0.14,-0.11 -0.32,-0.21 -0.52,-0.3c-0.21,-0.09 -0.44,-0.18 -0.7,-0.27c-0.26,-0.09 -0.52,-0.2 -0.76,-0.31c-0.25,-0.11 -0.46,-0.25 -0.65,-0.42s-0.34,-0.37 -0.45,-0.61c-0.11,-0.23 -0.17,-0.52 -0.17,-0.85c0,-0.69 0.24,-1.23 0.72,-1.62c0.48,-0.39 1.13,-0.59 1.95,-0.59c0.48,0 0.9,0.05 1.27,0.16c0.37,0.11 0.66,0.22 0.87,0.35l-0.43,1.12c-0.25,-0.14 -0.52,-0.25 -0.82,-0.32s-0.6,-0.11 -0.92,-0.11c-0.37,0 -0.67,0.08 -0.87,0.23s-0.31,0.37 -0.31,0.65c0,0.17 0.03,0.31 0.1,0.43s0.17,0.23 0.3,0.32s0.28,0.18 0.45,0.26c0.17,0.08 0.36,0.16 0.57,0.23c0.36,0.13 0.68,0.27 0.96,0.4s0.52,0.3 0.72,0.48c0.19,0.19 0.34,0.41 0.45,0.66c0.1,0.25 0.15,0.56 0.15,0.92c0,0.69 -0.24,1.22 -0.73,1.6s-1.2,0.57 -2.14,0.57c-0.32,0 -0.6,-0.02 -0.86,-0.06s-0.49,-0.09 -0.69,-0.15s-0.38,-0.12 -0.52,-0.18c-0.15,-0.06 -0.26,-0.12 -0.35,-0.17l0.41,-1.13c0.2,0.11 0.47,0.22 0.8,0.33c0.31,0.12 0.71,0.17 1.19,0.17z" class="st2"/>
   </g>
   <path id="svg_10" d="m32.08,29.8l-14.48,0l0,-8.57c0,-3.99 3.25,-7.24 7.24,-7.24l0,0c1.93,0 3.75,0.75 5.12,2.12c1.37,1.37 2.12,3.19 2.12,5.12l0,8.57zm-13.34,-1.14l12.21,0l0,-7.44c0,-1.63 -0.64,-3.16 -1.79,-4.32s-2.69,-1.79 -4.31,-1.79c0,0 0,0 0,0c-3.37,0 -6.11,2.74 -6.11,6.1l0,7.45z" class="st3"/>
   <rect id="svg_11" height="1.09" width="5.39" class="st4" transform="matrix(0.9781,-0.2079,0.2079,0.9781,-23.1775,29.9491) " y="0.880325" x="35.162958"/>
   <rect id="svg_12" height="5.39" width="1.09" class="st4" transform="matrix(0.309,-0.9511,0.9511,0.309,-23.1669,207.44) " y="-25.475946" x="191.343072"/>
   <rect id="svg_13" height="5.39" width="1.09" class="st4" transform="matrix(0.7313,-0.682,0.682,0.7313,-42.4098,122.3927) " y="-41.701882" x="117.641766"/>
   <rect id="svg_14" height="5.39" width="1.09" class="st4" transform="matrix(0.9703,-0.2419,0.2419,0.9703,-23.0705,36.9675) " y="-17.242588" x="49.812124"/>
   <rect id="svg_15" height="1.09" width="5.39" class="st4" transform="matrix(0.2923,-0.9563,0.9563,0.2923,-5.3214,218.0098) " y="-29.320997" x="205.149056"/>
   <rect id="svg_16" height="1.09" width="5.39" class="st4" transform="matrix(0.7193,-0.6947,0.6947,0.7193,-38.2911,136.1528) " y="-39.371262" x="133.385984"/>
   <rect id="svg_17" height="1.09" width="5.39" class="st4" transform="matrix(0.9659,-0.2588,0.2588,0.9659,-25.9438,43.449) " y="-8.794798" x="62.940477"/>
   <rect id="svg_18" height="5.39" width="1.09" class="st4" transform="matrix(0.2588,-0.9659,0.9659,0.2588,-8.866,240.1118) " y="-15.943646" x="219.566916"/>
   <path id="svg_19" d="m33.42,35.14l-17.15,0l0,-6.47l17.15,0l0,6.47zm-16.02,-1.14l14.88,0l0,-4.2l-14.88,0l0,4.2z" class="st3"/>
   <g id="svg_20">
    <rect id="svg_21" height="1.5" width="16.01" class="st1" y="33.82" x="40.48"/>
    <rect id="svg_22" height="1.5" width="16.01" class="st1" y="30.08" x="40.48"/>
    <rect id="svg_23" height="1.5" width="16.01" class="st1" y="26.35" x="40.48"/>
    <rect id="svg_24" height="1.5" width="16.01" class="st1" y="22.61" x="40.48"/>
    <rect id="svg_25" height="1.5" width="16.01" class="st1" y="18.87" x="40.48"/>
    <rect id="svg_26" height="1.5" width="16.01" class="st1" y="15.14" x="40.48"/>
    <rect id="svg_27" height="1.5" width="16.01" class="st1" y="11.4" x="40.48"/>
    <rect id="svg_28" height="1.5" width="16.01" class="st1" y="7.66" x="40.48"/>
   </g>
  </g>
 </g>
</svg>