<svg width="72" height="57" xmlns="http://www.w3.org/2000/svg">
 <style type="text/css">.st0{fill:#3F3939;}
	.st1{fill:#ACB2B0;}
	.st2{fill:#FFFFFF;}
	.st3{fill:#0069B3;}
	.st4{fill:#E20613;}
	.st5{fill:#0F9F39;}
	.st6{fill:none;}</style>

 <g>
  <title>background</title>
  <rect fill="none" id="canvas_background" height="59" width="74" y="-1" x="-1"/>
 </g>
 <g>
  <title>Layer 1</title>
  <g id="svg_1">
   <path d="m71.37,21.239997l0,14.93c0,11.48 -9.3,20.78 -20.78,20.78l-50.09,0l0,-35.73c0,-11.44 9.28,-20.72 20.72,-20.72l29.41,0l20.74,0l0,20.74z" class="st0" id="XMLID_264_"/>
   <path id="svg_2" d="m50.59,57.449997l-50.59,0l0,-36.23c0,-11.7 9.52,-21.22 21.22,-21.22l50.65,0l0,36.17c0,11.73 -9.54,21.28 -21.28,21.28zm-49.58,-1l49.59,0c11.18,0 20.28,-9.1 20.28,-20.28l0,-35.17l-49.65,0c-11.15,0 -20.22,9.07 -20.22,20.22l0,35.23z" class="st1"/>
   <g id="svg_3">
    <path id="svg_4" d="m21.74,49.369997c-0.57,0 -1.08,-0.09 -1.54,-0.26c-0.46,-0.18 -0.84,-0.43 -1.16,-0.78c-0.32,-0.34 -0.56,-0.76 -0.73,-1.25c-0.17,-0.49 -0.25,-1.06 -0.25,-1.69c0,-0.64 0.1,-1.2 0.29,-1.69s0.46,-0.91 0.8,-1.25s0.73,-0.6 1.19,-0.78s0.94,-0.26 1.46,-0.26c0.31,0 0.6,0.02 0.86,0.07c0.26,0.05 0.48,0.1 0.67,0.16c0.19,0.06 0.35,0.12 0.47,0.19c0.12,0.07 0.21,0.11 0.26,0.14l-0.41,1.13c-0.18,-0.11 -0.43,-0.21 -0.75,-0.31c-0.33,-0.1 -0.68,-0.15 -1.06,-0.15c-0.33,0 -0.64,0.06 -0.92,0.17c-0.29,0.11 -0.53,0.28 -0.74,0.51s-0.37,0.51 -0.49,0.86s-0.18,0.75 -0.18,1.2c0,0.4 0.05,0.77 0.14,1.11c0.09,0.34 0.23,0.63 0.42,0.87c0.19,0.25 0.43,0.44 0.73,0.57c0.29,0.14 0.65,0.2 1.06,0.2c0.49,0 0.89,-0.05 1.2,-0.15c0.31,-0.1 0.55,-0.19 0.71,-0.28l0.37,1.13c-0.09,0.06 -0.21,0.12 -0.36,0.18c-0.15,0.06 -0.33,0.12 -0.53,0.17c-0.21,0.05 -0.44,0.1 -0.69,0.13s-0.52,0.06 -0.82,0.06z" class="st2"/>
    <path id="svg_5" d="m28.1,44.959997c0.33,-0.55 0.65,-1.11 0.97,-1.67s0.6,-1.13 0.86,-1.71l1.54,0c-0.41,0.78 -0.84,1.55 -1.28,2.32c-0.44,0.77 -0.92,1.54 -1.42,2.32l0,2.99l-1.39,0l0,-2.97c-0.51,-0.79 -0.98,-1.56 -1.43,-2.33c-0.45,-0.77 -0.88,-1.54 -1.29,-2.32l1.63,0c0.26,0.57 0.54,1.14 0.85,1.71c0.3,0.55 0.62,1.11 0.96,1.66z" class="st2"/>
    <path id="svg_6" d="m35.4,49.369997c-0.57,0 -1.08,-0.09 -1.54,-0.26c-0.46,-0.18 -0.84,-0.43 -1.16,-0.78c-0.32,-0.34 -0.56,-0.76 -0.73,-1.25c-0.17,-0.49 -0.25,-1.06 -0.25,-1.69c0,-0.64 0.1,-1.2 0.29,-1.69s0.46,-0.91 0.8,-1.25s0.73,-0.6 1.19,-0.78s0.94,-0.26 1.46,-0.26c0.31,0 0.6,0.02 0.86,0.07c0.26,0.05 0.48,0.1 0.67,0.16c0.19,0.06 0.35,0.12 0.47,0.19c0.12,0.07 0.21,0.11 0.26,0.14l-0.41,1.13c-0.18,-0.11 -0.43,-0.21 -0.75,-0.31c-0.33,-0.1 -0.68,-0.15 -1.06,-0.15c-0.33,0 -0.64,0.06 -0.92,0.17c-0.29,0.11 -0.53,0.28 -0.74,0.51s-0.37,0.51 -0.49,0.86s-0.18,0.75 -0.18,1.2c0,0.4 0.05,0.77 0.14,1.11c0.09,0.34 0.23,0.63 0.42,0.87c0.19,0.25 0.43,0.44 0.73,0.57c0.29,0.14 0.65,0.2 1.06,0.2c0.49,0 0.89,-0.05 1.2,-0.15c0.31,-0.1 0.55,-0.19 0.71,-0.28l0.37,1.13c-0.09,0.06 -0.21,0.12 -0.36,0.18c-0.15,0.06 -0.33,0.12 -0.53,0.17c-0.21,0.05 -0.44,0.1 -0.69,0.13s-0.52,0.06 -0.82,0.06z" class="st2"/>
    <path id="svg_7" d="m43.85,47.999997l0,1.2l-4.82,0l0,-7.62l1.39,0l0,6.42l3.43,0z" class="st2"/>
    <path id="svg_8" d="m44.91,49.199997l0,-7.62l4.9,0l0,1.18l-3.51,0l0,1.88l3.12,0l0,1.16l-3.12,0l0,2.23l3.77,0l0,1.18l-5.16,0l0,-0.01z" class="st2"/>
   </g>
   <path id="svg_9" d="m34.66,24.119997c-2.97,0 -5.38,-2.41 -5.38,-5.38c0,-2.97 2.41,-5.38 5.38,-5.38c2.97,0 5.38,2.41 5.38,5.38c0,2.96 -2.41,5.38 -5.38,5.38zm0,-9.77c-2.42,0 -4.38,1.97 -4.38,4.38s1.97,4.38 4.38,4.38s4.38,-1.96 4.38,-4.38s-1.97,-4.38 -4.38,-4.38z" class="st3"/>
   <path id="svg_10" d="m27.12,12.209997c-0.77,0 -1.4,-0.63 -1.4,-1.4s0.63,-1.4 1.4,-1.4s1.4,0.63 1.4,1.4s-0.63,1.4 -1.4,1.4zm0,-1.95c-0.3,0 -0.55,0.25 -0.55,0.55s0.25,0.55 0.55,0.55s0.55,-0.25 0.55,-0.55s-0.25,-0.55 -0.55,-0.55z" class="st3"/>
   <rect id="svg_11" height="1" width="4.31" class="st3" y="20.679997" x="26.4"/>
   <rect id="svg_12" height="1" width="4.31" class="st3" y="20.679997" x="38.92"/>
   <g id="svg_13">
    <path id="svg_14" d="m28,34.609997c-6.66,-1.37 -9.51,-6.43 -10.72,-10.43l0.96,-0.29c1.14,3.74 3.79,8.47 9.97,9.74l-0.21,0.98z" class="st4"/>
    <g id="svg_15">
     <path id="svg_16" d="m16.81,18.069997c-0.54,2.98 -1.7,6.76 -3.19,9.24l4.38,-2.52l4.98,0.87c-2.26,-1.82 -4.64,-4.98 -6.17,-7.59z" class="st4"/>
    </g>
   </g>
   <g id="svg_17">
    <path id="svg_18" d="m51.73,19.239997c-0.62,-3.86 -2.62,-8.91 -8.57,-10.99l0.33,-0.94c6.42,2.25 8.56,7.65 9.23,11.78l-0.99,0.15z" class="st4"/>
    <g id="svg_19">
     <path id="svg_20" d="m52.36,25.199997c0.94,-2.88 2.59,-6.47 4.41,-8.73l-4.68,1.91l-4.82,-1.53c1.98,2.1 3.92,5.55 5.09,8.35z" class="st4"/>
    </g>
   </g>
   <g id="svg_21">
    <polygon id="svg_22" points="35.61000061035156,31.56999969482422 35.61000061035156,27.849998474121094 34.61000061035156,27.849998474121094 34.61000061035156,32.56999969482422 35.61000061035156,32.56999969482422 " class="st5"/>
   </g>
   <path id="svg_23" d="m34.66,28.019997c-4.95,0 -8.95,-3.98 -9.29,-9.25c-0.02,-0.38 -0.25,-1.24 -0.49,-2.15c-0.4,-1.52 -0.9,-3.4 -0.96,-4.81l0,0c-0.05,-1.35 0.68,-2.85 1.82,-3.73c0.9,-0.7 1.92,-0.92 2.87,-0.64c2.17,0.64 5.76,1.66 6.23,1.79c5.36,0.38 9.1,4.28 9.1,9.51c0.01,5.12 -4.16,9.28 -9.28,9.28zm-9.74,-16.25c0.05,1.29 0.53,3.12 0.92,4.59c0.28,1.04 0.49,1.86 0.52,2.34c0.31,4.74 3.87,8.32 8.29,8.32c4.57,0 8.29,-3.72 8.29,-8.29c0,-4.7 -3.38,-8.2 -8.22,-8.51l-0.1,-0.02c0,0 -3.96,-1.12 -6.29,-1.81c-0.86,-0.26 -1.61,0.19 -1.97,0.47c-0.89,0.69 -1.48,1.89 -1.44,2.91l0,0z" class="st3"/>
   <path id="svg_24" d="m41.56,29.679997c-0.56,0.43 -0.98,1.04 -1.15,1.75l1.15,0.01l0,-1.76z" class="st6"/>
   <path id="svg_25" d="m40.38,32.629997c0.13,0.82 0.55,1.54 1.18,2.02l0,-2.01l-1.18,-0.01z" class="st6"/>
   <path id="svg_26" d="m46.53,31.509997c-0.31,-1.42 -1.54,-2.49 -3.05,-2.49c-0.7,0 -1.34,0.24 -1.86,0.62l4.18,1.86l0.73,0.01z" class="st6"/>
   <path id="svg_27" d="m46.1,32.699997l-4.49,1.99c0.52,0.39 1.16,0.62 1.86,0.62c1.55,0 2.82,-1.13 3.07,-2.61l-0.44,0z" class="st6"/>
   <path id="svg_28" d="m51.38,31.569997l-3.61,-0.05c0.03,0.21 0.07,0.42 0.07,0.64c0,0.19 -0.03,0.37 -0.06,0.55l3.59,0.04l0.01,-1.18z" class="st5"/>
   <path id="svg_29" d="m39.2,31.409997l-3.62,-0.05l-0.02,1.2l3.6,0.04c-0.02,-0.15 -0.05,-0.29 -0.05,-0.45c0.02,-0.24 0.05,-0.49 0.09,-0.74z" class="st5"/>
   <g id="svg_30">
    <path id="svg_31" d="m41.56,34.649997l0,-2.01l-1.18,-0.01c0.13,0.82 0.55,1.54 1.18,2.02z" class="st6"/>
    <path id="svg_32" d="m46.59,31.849997c-0.01,-0.12 -0.04,-0.23 -0.07,-0.34c-0.31,-1.42 -1.54,-2.49 -3.05,-2.49c-0.7,0 -1.34,0.24 -1.86,0.62l4.18,1.86l0.8,0.35z" class="st6"/>
    <path id="svg_33" d="m40.41,31.429997l1.15,0.01l0,-1.76c-0.56,0.43 -0.97,1.04 -1.15,1.75z" class="st6"/>
    <path id="svg_34" d="m41.62,34.689997c0.52,0.39 1.16,0.62 1.86,0.62c1.55,0 2.82,-1.13 3.07,-2.61c0.01,-0.08 0.04,-0.15 0.04,-0.22l-0.49,0.22l-4.48,1.99z" class="st6"/>
    <path id="svg_35" d="m47.76,31.519997c-0.31,-2.09 -2.11,-3.71 -4.29,-3.71c-2.14,0 -3.92,1.56 -4.27,3.6c-0.04,0.25 -0.08,0.49 -0.08,0.75c0,0.15 0.03,0.3 0.05,0.45c0.23,2.19 2.06,3.9 4.3,3.9c2.21,0 4.02,-1.66 4.29,-3.8c0.02,-0.18 0.06,-0.36 0.06,-0.55c0.01,-0.21 -0.03,-0.43 -0.06,-0.64zm-4.28,-2.5c1.51,0 2.75,1.07 3.05,2.49c0.02,0.11 0.06,0.23 0.07,0.34l-0.8,-0.35l-4.18,-1.86c0.52,-0.39 1.16,-0.62 1.86,-0.62zm-1.92,5.63c-0.63,-0.49 -1.06,-1.2 -1.18,-2.02l1.18,0.01l0,2.01zm0,-3.21l-1.15,-0.01c0.17,-0.71 0.59,-1.32 1.15,-1.75l0,1.76zm4.99,1.27c-0.26,1.48 -1.52,2.61 -3.07,2.61c-0.7,0 -1.34,-0.24 -1.86,-0.62l4.49,-1.99l0.49,-0.22c-0.01,0.07 -0.04,0.14 -0.05,0.22z" class="st1"/>
   </g>
  </g>
 </g>
</svg>