<svg width="72" height="72" xmlns="http://www.w3.org/2000/svg">
 <style type="text/css">.st0{fill-rule:evenodd;clip-rule:evenodd;fill:#ACB2B0;}
	.st1{fill:#B2B7B5;}
	.st2{fill-rule:evenodd;clip-rule:evenodd;fill:#FFFFFF;}
	.st3{fill:#FFFFFF;}</style>

 <g>
  <title>background</title>
  <rect fill="none" id="canvas_background" height="74" width="74" y="-1" x="-1"/>
 </g>
 <g>
  <title>Layer 1</title>
  <g stroke="null" id="svg_1">
   <path stroke="null" id="svg_2" d="m54.74,56.15l1.46,0.62c0.86,0.37 1.43,0.75 1.71,1.16c0.54,0.78 0.59,1.66 0.18,2.65c-0.42,0.98 -1.1,1.55 -2.04,1.7c-0.53,0.08 -1.23,-0.06 -2.1,-0.43l-1.38,-0.59l2.17,-5.11zm0.68,1.19l-1.51,3.56l0.58,0.25c0.57,0.24 1.07,0.27 1.52,0.09s0.79,-0.55 1.03,-1.12c0.25,-0.58 0.27,-1.09 0.08,-1.53c-0.19,-0.43 -0.57,-0.77 -1.16,-1.02l-0.54,-0.23z" class="st0"/>
   <polygon stroke="null" id="svg_3" points="60.03999328613281,58.399993896484375 63.160003662109375,59.72999572753906 62.850006103515625,60.46000671386719 60.72999572753906,59.55999755859375 60.160003662109375,60.91999816894531 62.160003662109375,61.77000427246094 61.839996337890625,62.52000427246094 59.839996337890625,61.66999816894531 59.19999694824219,63.16999816894531 61.38999938964844,64.10000610351562 61.05999755859375,64.8699951171875 57.8699951171875,63.50999450683594 " class="st0"/>
   <polygon stroke="null" id="svg_4" points="64.22999572753906,60.17999267578125 65.24000549316406,60.61000061035156 63.399993896484375,64.94999694824219 65.44999694824219,65.82000732421875 65.1199951171875,66.58999633789062 62.07000732421875,65.28999328613281 " class="st0"/>
  </g>
  <g id="svg_5">
   <path id="svg_6" d="m69.05,2.95l0,66.1l-66.1,0l0,-66.1l66.1,0m2,-2l-70.1,0l0,70.1l70.1,0l0,-70.1l0,0z" class="st1"/>
  </g>
  <g id="Layer_4">
   <g id="svg_7">
    <polygon id="svg_8" points="38.589996337890625,43.99000549316406 38.589996337890625,30.009994506835938 24.6199951171875,37.02000427246094 " class="st2"/>
    <rect id="svg_9" height="1.42" width="13.98" class="st3" y="35.58" x="33.41"/>
   </g>
  </g>
 </g>
</svg>