<svg width="72" height="57" xmlns="http://www.w3.org/2000/svg">
 <style type="text/css">.st0{fill:#3F3939;}
	.st1{fill:#ACB2B0;}
	.st2{fill-rule:evenodd;clip-rule:evenodd;fill:#0069B3;}
	.st3{fill-rule:evenodd;clip-rule:evenodd;fill:#E20613;}
	.st4{fill:#FFFFFF;}
	.st5{fill:#0F9F39;}
	.st6{opacity:0.5;fill:#ACB2B0;}</style>

 <g>
  <title>background</title>
  <rect fill="none" id="canvas_background" height="59" width="74" y="-1" x="-1"/>
 </g>
 <g>
  <title>Layer 1</title>
  <g id="svg_1">
   <g id="svg_2">
    <path d="m71.430002,21.240001l0,14.93c0,11.48 -9.3,20.78 -20.78,20.78l-50.09,0l0,-35.73c0,-11.44 9.28,-20.72 20.72,-20.72l29.41,0l20.74,0l0,20.74z" class="st0" id="XMLID_127_"/>
    <path id="svg_3" d="m50.590002,57.450001l-50.59,0l0,-36.23c0,-11.7 9.52,-21.22 21.22,-21.22l50.65,0l0,36.17c0,11.74 -9.54,21.28 -21.28,21.28zm-49.58,-1l49.59,0c11.18,0 20.28,-9.1 20.28,-20.28l0,-35.17l-49.65,0c-11.15,0 -20.22,9.07 -20.22,20.22l0,35.23z" class="st1"/>
    <g id="svg_4">
     <polygon points="29,32.38999938964844 29,27.289993286132812 23.889999389648438,27.289993286132812 23.889999389648438,23.459999084472656 16.229995727539062,29.839996337890625 23.889999389648438,36.220001220703125 23.889999389648438,32.38999938964844 " class="st2" id="XMLID_126_"/>
     <polygon points="44.58000183105469,8.900001525878906 44.58000183105469,14.010002136230469 49.68000793457031,14.010002136230469 49.68000793457031,17.840003967285156 57.339996337890625,11.459999084472656 49.68000793457031,5.069999694824219 49.68000793457031,8.900001525878906 " class="st3" id="XMLID_125_"/>
    </g>
    <g id="svg_5">
     <path id="svg_6" d="m25.110002,45.390001c0,0.66 -0.1,1.23 -0.31,1.72c-0.21,0.49 -0.5,0.89 -0.87,1.22c-0.38,0.33 -0.83,0.57 -1.36,0.73s-1.12,0.24 -1.77,0.24c-0.31,0 -0.66,-0.01 -1.04,-0.04c-0.39,-0.03 -0.76,-0.08 -1.11,-0.16l0,-7.4c0.35,-0.08 0.73,-0.13 1.12,-0.15s0.75,-0.03 1.06,-0.03c0.64,0 1.22,0.08 1.75,0.23c0.53,0.15 0.98,0.38 1.36,0.7c0.38,0.32 0.67,0.72 0.87,1.21c0.2,0.47 0.3,1.05 0.3,1.73zm-5.08,2.67c0.08,0.01 0.19,0.01 0.32,0.02c0.13,0 0.31,0.01 0.54,0.01c0.93,0 1.63,-0.24 2.08,-0.71c0.46,-0.47 0.69,-1.13 0.69,-1.99c0,-0.87 -0.22,-1.53 -0.67,-1.99s-1.14,-0.69 -2.08,-0.69c-0.41,0 -0.7,0.01 -0.88,0.03l0,5.32z" class="st4"/>
     <path id="svg_7" d="m26.630002,41.580001l1.39,0l0,7.62l-1.39,0l0,-7.62z" class="st4"/>
     <path id="svg_8" d="m31.690002,48.170001c0.5,0 0.86,-0.08 1.09,-0.25c0.23,-0.17 0.34,-0.41 0.34,-0.71c0,-0.18 -0.04,-0.34 -0.12,-0.47c-0.08,-0.13 -0.19,-0.25 -0.33,-0.36c-0.14,-0.11 -0.32,-0.21 -0.52,-0.3c-0.21,-0.09 -0.44,-0.18 -0.7,-0.27c-0.26,-0.09 -0.52,-0.2 -0.76,-0.31c-0.25,-0.11 -0.46,-0.25 -0.65,-0.42s-0.34,-0.37 -0.45,-0.61c-0.11,-0.23 -0.17,-0.52 -0.17,-0.85c0,-0.69 0.24,-1.23 0.72,-1.62c0.48,-0.39 1.13,-0.59 1.95,-0.59c0.48,0 0.9,0.05 1.27,0.16c0.37,0.11 0.66,0.22 0.87,0.35l-0.43,1.12c-0.25,-0.14 -0.52,-0.25 -0.82,-0.32s-0.6,-0.11 -0.92,-0.11c-0.37,0 -0.67,0.08 -0.87,0.23s-0.31,0.37 -0.31,0.65c0,0.17 0.03,0.31 0.1,0.43s0.17,0.23 0.3,0.32s0.28,0.18 0.45,0.26c0.17,0.08 0.36,0.16 0.57,0.23c0.36,0.13 0.68,0.27 0.96,0.4s0.52,0.3 0.72,0.48c0.19,0.19 0.34,0.41 0.45,0.66c0.1,0.25 0.15,0.56 0.15,0.92c0,0.69 -0.24,1.22 -0.73,1.6s-1.2,0.57 -2.14,0.57c-0.32,0 -0.6,-0.02 -0.86,-0.06s-0.49,-0.09 -0.69,-0.15s-0.38,-0.12 -0.52,-0.18c-0.15,-0.06 -0.26,-0.12 -0.35,-0.17l0.41,-1.13c0.2,0.11 0.47,0.22 0.8,0.33c0.3,0.12 0.71,0.17 1.19,0.17z" class="st4"/>
     <path id="svg_9" d="m37.930002,41.500001c1.11,0 1.96,0.2 2.55,0.61c0.59,0.4 0.89,1.03 0.89,1.89c0,0.45 -0.08,0.83 -0.24,1.15c-0.16,0.32 -0.39,0.58 -0.69,0.78c-0.3,0.2 -0.67,0.35 -1.1,0.45c-0.43,0.1 -0.93,0.14 -1.48,0.14l-0.69,0l0,2.68l-1.39,0l0,-7.51c0.32,-0.07 0.68,-0.12 1.07,-0.15c0.39,-0.02 0.75,-0.04 1.08,-0.04zm0.1,1.2c-0.35,0 -0.64,0.01 -0.87,0.03l0,2.6l0.67,0c0.67,0 1.18,-0.09 1.54,-0.28c0.36,-0.19 0.54,-0.54 0.54,-1.06c0,-0.25 -0.05,-0.46 -0.14,-0.63s-0.23,-0.3 -0.4,-0.4c-0.17,-0.09 -0.37,-0.16 -0.6,-0.2s-0.47,-0.06 -0.74,-0.06z" class="st4"/>
     <path id="svg_10" d="m50.010002,48.010001l0,1.2l-4.82,0l0,-7.62l1.39,0l0,6.42l3.43,0z" class="st4"/>
    </g>
    <g id="svg_11">
     <g id="svg_12">
      <rect id="svg_13" height="3.97" width="1.13" class="st5" y="16.680001" x="33.290002"/>
      <rect id="svg_14" height="3.97" width="1.13" class="st5" y="21.210001" x="33.290002"/>
      <rect id="svg_15" height="1.13" width="3.97" class="st5" y="20.080001" x="34.880002"/>
      <rect id="svg_16" height="3.97" width="1.13" class="st5" y="16.680001" x="39.250002"/>
      <rect id="svg_17" height="3.97" width="1.13" class="st5" y="21.210001" x="39.250002"/>
      <rect id="svg_18" height="1.13" width="3.97" class="st5" y="15.540001" x="34.880002"/>
      <rect id="svg_19" height="1.13" width="3.97" class="st5" y="24.620001" x="34.880002"/>
     </g>
     <g id="svg_20">
      <g id="svg_21">
       <rect id="svg_22" height="3.97" width="1.13" class="st5" y="16.680001" x="25.290002"/>
       <rect id="svg_23" height="3.97" width="1.13" class="st5" y="21.210001" x="25.290002"/>
       <rect id="svg_24" height="1.13" width="3.97" class="st5" y="20.080001" x="26.880002"/>
       <rect id="svg_25" height="3.97" width="1.13" class="st5" y="16.680001" x="31.240002"/>
       <rect id="svg_26" height="3.97" width="1.13" class="st5" y="21.210001" x="31.240002"/>
       <rect id="svg_27" height="1.13" width="3.97" class="st5" y="15.540001" x="26.880002"/>
       <rect id="svg_28" height="1.13" width="3.97" class="st5" y="24.620001" x="26.880002"/>
      </g>
      <g id="svg_29">
       <rect id="svg_30" height="3.97" width="1.13" class="st5" y="16.680001" x="41.300002"/>
       <rect id="svg_31" height="3.97" width="1.13" class="st5" y="21.210001" x="41.300002"/>
       <rect id="svg_32" height="1.13" width="3.97" class="st5" y="20.080001" x="42.890002"/>
       <rect id="svg_33" height="3.97" width="1.13" class="st5" y="16.680001" x="47.250002"/>
       <rect id="svg_34" height="3.97" width="1.13" class="st5" y="21.210001" x="47.250002"/>
       <rect id="svg_35" height="1.13" width="3.97" class="st5" y="15.540001" x="42.890002"/>
       <rect id="svg_36" height="1.13" width="3.97" class="st5" y="24.620001" x="42.890002"/>
      </g>
     </g>
    </g>
   </g>
   <path id="svg_37" d="m0.750002,32.750001l39.87,-32.24l-21,0c0,0 -10.8,0.08 -16.61,10.95c0,0 -3.72,4.08 -2.26,21.29z" class="st6"/>
   <g id="svg_38">
    <path id="svg_39" d="m10.270002,21.100001c-0.37,0.29 -0.74,0.5 -1.12,0.62c-0.38,0.12 -0.76,0.16 -1.13,0.1c-0.38,-0.05 -0.74,-0.2 -1.1,-0.42s-0.7,-0.54 -1.03,-0.95s-0.56,-0.82 -0.68,-1.23c-0.13,-0.41 -0.17,-0.81 -0.13,-1.21c0.04,-0.39 0.16,-0.76 0.36,-1.1c0.2,-0.34 0.46,-0.65 0.8,-0.92c0.2,-0.16 0.39,-0.29 0.58,-0.4c0.19,-0.1 0.36,-0.18 0.51,-0.24s0.28,-0.1 0.4,-0.12c0.11,-0.02 0.19,-0.04 0.24,-0.04l0.32,0.93c-0.17,0.02 -0.38,0.08 -0.64,0.19c-0.26,0.11 -0.51,0.26 -0.75,0.45c-0.21,0.17 -0.38,0.37 -0.5,0.58c-0.12,0.22 -0.19,0.45 -0.21,0.71c-0.02,0.25 0.03,0.52 0.13,0.8s0.27,0.56 0.5,0.85c0.21,0.26 0.43,0.47 0.66,0.64c0.23,0.17 0.47,0.28 0.72,0.34c0.25,0.06 0.5,0.06 0.76,-0.01c0.26,-0.07 0.51,-0.2 0.78,-0.41c0.31,-0.25 0.54,-0.49 0.69,-0.71s0.25,-0.4 0.31,-0.55l0.82,0.53c-0.03,0.08 -0.07,0.18 -0.14,0.29c-0.06,0.12 -0.15,0.24 -0.25,0.38s-0.23,0.29 -0.37,0.44c-0.18,0.16 -0.35,0.31 -0.53,0.46z" class="st4"/>
    <path id="svg_40" d="m15.860002,16.420001c-0.22,-0.14 -0.44,-0.27 -0.66,-0.4c-0.22,-0.13 -0.44,-0.27 -0.67,-0.41l-2.05,1.65c0.09,0.25 0.18,0.5 0.27,0.74s0.17,0.49 0.25,0.72l-0.92,0.74c-0.24,-0.66 -0.45,-1.28 -0.64,-1.85c-0.19,-0.57 -0.37,-1.12 -0.53,-1.63c-0.16,-0.52 -0.3,-1.02 -0.44,-1.5c-0.13,-0.48 -0.26,-0.96 -0.37,-1.44l0.84,-0.68c0.44,0.21 0.88,0.44 1.32,0.67c0.44,0.23 0.9,0.48 1.37,0.75c0.47,0.27 0.97,0.55 1.49,0.86c0.52,0.3 1.08,0.64 1.68,1.02l-0.94,0.76zm-4.59,-2.76c0.09,0.33 0.21,0.73 0.36,1.2c0.15,0.47 0.32,0.97 0.5,1.5l1.6,-1.29c-0.48,-0.29 -0.94,-0.57 -1.37,-0.81c-0.44,-0.25 -0.8,-0.45 -1.09,-0.6z" class="st4"/>
    <path id="svg_41" d="m14.840002,9.150001c0.71,-0.57 1.35,-0.88 1.93,-0.92c0.58,-0.05 1.09,0.2 1.54,0.75c0.23,0.29 0.38,0.57 0.44,0.85c0.06,0.29 0.05,0.57 -0.04,0.85s-0.25,0.57 -0.47,0.85c-0.23,0.28 -0.52,0.57 -0.87,0.85l-0.44,0.36l1.38,1.71l-0.88,0.71l-3.86,-4.79c0.17,-0.21 0.37,-0.43 0.61,-0.65c0.23,-0.21 0.45,-0.4 0.66,-0.57zm0.68,0.71c-0.22,0.18 -0.4,0.34 -0.54,0.47l1.33,1.65l0.43,-0.34c0.42,-0.34 0.7,-0.67 0.84,-0.97c0.13,-0.3 0.07,-0.62 -0.2,-0.95c-0.13,-0.16 -0.27,-0.27 -0.41,-0.33c-0.15,-0.06 -0.3,-0.08 -0.46,-0.05c-0.16,0.03 -0.32,0.08 -0.49,0.18c-0.17,0.09 -0.33,0.2 -0.5,0.34z" class="st4"/>
    <path id="svg_42" d="m22.430002,10.030001c0.32,-0.26 0.5,-0.5 0.56,-0.72c0.06,-0.22 0.01,-0.43 -0.15,-0.63c-0.09,-0.12 -0.2,-0.2 -0.32,-0.24c-0.12,-0.04 -0.25,-0.06 -0.39,-0.06s-0.31,0.03 -0.49,0.08c-0.18,0.05 -0.37,0.11 -0.59,0.19c-0.22,0.08 -0.43,0.14 -0.65,0.19c-0.22,0.05 -0.42,0.08 -0.63,0.06c-0.21,-0.01 -0.4,-0.06 -0.6,-0.15c-0.19,-0.09 -0.37,-0.24 -0.54,-0.45c-0.35,-0.44 -0.48,-0.91 -0.38,-1.4c0.1,-0.5 0.42,-0.95 0.94,-1.38c0.3,-0.25 0.6,-0.43 0.89,-0.55c0.29,-0.12 0.54,-0.2 0.74,-0.23l0.3,0.94c-0.23,0.04 -0.46,0.11 -0.69,0.22c-0.23,0.11 -0.44,0.24 -0.64,0.4c-0.24,0.19 -0.38,0.39 -0.44,0.6c-0.05,0.21 -0.01,0.4 0.13,0.57c0.09,0.11 0.18,0.18 0.29,0.22c0.11,0.04 0.23,0.06 0.36,0.05c0.13,0 0.27,-0.03 0.42,-0.06c0.15,-0.04 0.31,-0.08 0.48,-0.14c0.3,-0.1 0.57,-0.18 0.82,-0.24c0.25,-0.06 0.48,-0.08 0.7,-0.06c0.22,0.02 0.43,0.08 0.62,0.19c0.2,0.11 0.38,0.28 0.57,0.51c0.35,0.44 0.47,0.9 0.36,1.39c-0.12,0.49 -0.47,0.98 -1.07,1.46c-0.2,0.16 -0.39,0.3 -0.58,0.41c-0.19,0.11 -0.36,0.19 -0.52,0.26c-0.16,0.07 -0.3,0.12 -0.43,0.15s-0.23,0.06 -0.31,0.07l-0.32,-0.93c0.18,-0.03 0.41,-0.1 0.68,-0.2c0.29,-0.1 0.58,-0.27 0.88,-0.52z" class="st4"/>
   </g>
   <rect id="svg_43" height="1" width="51.28" class="st1" transform="matrix(0.7774,-0.629,0.629,0.7774,-44.3887,113.0939) " y="-34.566278" x="85.626736"/>
  </g>
 </g>
</svg>