<svg width="72" height="57" xmlns="http://www.w3.org/2000/svg">
 <style type="text/css">.st0{fill:#3F3939;}
	.st1{fill:#ACB2B0;}
	.st2{fill:#0069B3;}
	.st3{fill-rule:evenodd;clip-rule:evenodd;fill:#E20613;}
	.st4{fill:none;stroke:#2A2422;stroke-miterlimit:3.8637;}
	.st5{fill:#FFFFFF;}
	.st6{fill-rule:evenodd;clip-rule:evenodd;fill:#0069B3;}
	.st7{fill:#0F9F39;}</style>

 <g>
  <title>background</title>
  <rect fill="none" id="canvas_background" height="59" width="74" y="-1" x="-1"/>
 </g>
 <g>
  <title>Layer 1</title>
  <g id="svg_1">
   <path d="m71.370002,21.239998l0,14.93c0,11.48 -9.3,20.78 -20.78,20.78l-50.09,0l0,-35.73c0,-11.44 9.28,-20.72 20.72,-20.72l29.41,0l20.74,0l0,20.74z" class="st0" id="XMLID_292_"/>
   <path id="svg_2" d="m50.590002,57.449998l-50.59,0l0,-36.23c0,-11.7 9.52,-21.22 21.22,-21.22l50.65,0l0,36.17c0,11.74 -9.54,21.28 -21.28,21.28zm-49.58,-1l49.59,0c11.18,0 20.28,-9.1 20.28,-20.28l0,-35.17l-49.65,0c-11.15,0 -20.22,9.07 -20.22,20.22l0,35.23z" class="st1"/>
   <rect height="11.95" width="2.32" class="st2" y="20.289998" x="44.170002" id="XMLID_288_"/>
   <rect height="16.73" width="2.32" class="st2" y="15.549998" x="50.150002" id="XMLID_287_"/>
   <rect height="10.04" width="2.32" class="st2" y="22.199998" x="56.120002" id="XMLID_286_"/>
   <polygon points="38.80999755859375,10.900001525878906 38.80999755859375,15.680000305175781 43.589996337890625,15.680000305175781 43.589996337890625,19.269996643066406 50.75999450683594,13.290000915527344 43.589996337890625,7.319999694824219 43.589996337890625,10.900001525878906 " class="st3" id="XMLID_285_"/>
   <path d="m34.910002,29.729998" class="st4" id="XMLID_284_"/>
   <path d="m34.910002,29.729998" class="st4" id="XMLID_283_"/>
   <g id="svg_3">
    <path id="svg_4" d="m24.530002,45.269998c0,0.66 -0.1,1.23 -0.31,1.72c-0.21,0.49 -0.5,0.89 -0.87,1.22c-0.38,0.33 -0.83,0.57 -1.36,0.73s-1.12,0.24 -1.77,0.24c-0.31,0 -0.66,-0.01 -1.04,-0.04c-0.39,-0.03 -0.76,-0.08 -1.11,-0.16l0,-7.4c0.35,-0.08 0.73,-0.13 1.12,-0.15s0.75,-0.03 1.06,-0.03c0.64,0 1.22,0.08 1.75,0.23c0.53,0.15 0.98,0.38 1.36,0.7c0.38,0.32 0.67,0.72 0.87,1.21c0.19,0.47 0.3,1.05 0.3,1.73zm-5.09,2.67c0.08,0.01 0.19,0.01 0.32,0.02c0.13,0 0.31,0.01 0.54,0.01c0.93,0 1.63,-0.24 2.08,-0.71c0.46,-0.47 0.69,-1.13 0.69,-1.99c0,-0.87 -0.22,-1.53 -0.67,-1.99s-1.14,-0.69 -2.08,-0.69c-0.41,0 -0.7,0.01 -0.88,0.03l0,5.32z" class="st5"/>
    <path id="svg_5" d="m26.040002,41.459998l1.39,0l0,7.62l-1.39,0l0,-7.62z" class="st5"/>
    <path id="svg_6" d="m31.100002,48.049998c0.5,0 0.86,-0.08 1.09,-0.25c0.23,-0.17 0.34,-0.41 0.34,-0.71c0,-0.18 -0.04,-0.34 -0.12,-0.47c-0.08,-0.13 -0.19,-0.25 -0.33,-0.36c-0.14,-0.11 -0.32,-0.21 -0.52,-0.3c-0.21,-0.09 -0.44,-0.18 -0.7,-0.27c-0.26,-0.09 -0.52,-0.2 -0.76,-0.31c-0.25,-0.11 -0.46,-0.25 -0.65,-0.42s-0.34,-0.37 -0.45,-0.61c-0.11,-0.23 -0.17,-0.52 -0.17,-0.85c0,-0.69 0.24,-1.23 0.72,-1.62c0.48,-0.39 1.13,-0.59 1.95,-0.59c0.48,0 0.9,0.05 1.27,0.16c0.37,0.11 0.66,0.22 0.87,0.35l-0.43,1.12c-0.25,-0.14 -0.52,-0.25 -0.82,-0.32s-0.6,-0.11 -0.92,-0.11c-0.37,0 -0.67,0.08 -0.87,0.23s-0.31,0.37 -0.31,0.65c0,0.17 0.03,0.31 0.1,0.43s0.17,0.23 0.3,0.32s0.28,0.18 0.45,0.26c0.17,0.08 0.36,0.16 0.57,0.23c0.36,0.13 0.68,0.27 0.96,0.4s0.52,0.3 0.72,0.48c0.19,0.19 0.34,0.41 0.45,0.66c0.1,0.25 0.15,0.56 0.15,0.92c0,0.69 -0.24,1.22 -0.73,1.6s-1.2,0.57 -2.14,0.57c-0.32,0 -0.6,-0.02 -0.86,-0.06s-0.49,-0.09 -0.69,-0.15s-0.38,-0.12 -0.52,-0.18c-0.15,-0.06 -0.26,-0.12 -0.35,-0.17l0.41,-1.13c0.2,0.11 0.47,0.22 0.8,0.33c0.31,0.12 0.72,0.17 1.19,0.17z" class="st5"/>
    <path id="svg_7" d="m37.350002,41.379998c1.11,0 1.96,0.2 2.55,0.61c0.59,0.4 0.89,1.03 0.89,1.89c0,0.45 -0.08,0.83 -0.24,1.15c-0.16,0.32 -0.39,0.58 -0.69,0.78c-0.3,0.2 -0.67,0.35 -1.1,0.45c-0.43,0.1 -0.93,0.14 -1.48,0.14l-0.69,0l0,2.68l-1.39,0l0,-7.51c0.32,-0.07 0.68,-0.12 1.07,-0.15c0.39,-0.02 0.75,-0.04 1.08,-0.04zm0.1,1.2c-0.35,0 -0.64,0.01 -0.87,0.03l0,2.6l0.67,0c0.67,0 1.18,-0.09 1.54,-0.28c0.36,-0.19 0.54,-0.54 0.54,-1.06c0,-0.25 -0.05,-0.46 -0.14,-0.63s-0.23,-0.3 -0.4,-0.4c-0.17,-0.09 -0.37,-0.16 -0.6,-0.2s-0.48,-0.06 -0.74,-0.06z" class="st5"/>
    <path id="svg_8" d="m46.710002,41.379998c1.1,0 1.94,0.2 2.52,0.61s0.87,1.02 0.87,1.85c0,1.03 -0.51,1.73 -1.53,2.1c0.14,0.17 0.3,0.37 0.47,0.62c0.18,0.24 0.36,0.5 0.54,0.79c0.18,0.28 0.36,0.57 0.53,0.87c0.17,0.3 0.32,0.59 0.45,0.87l-1.55,0c-0.14,-0.26 -0.29,-0.53 -0.45,-0.8c-0.16,-0.27 -0.32,-0.53 -0.49,-0.78s-0.33,-0.49 -0.49,-0.72c-0.16,-0.22 -0.31,-0.42 -0.45,-0.6c-0.1,0.01 -0.19,0.01 -0.26,0.01c-0.07,0 -0.14,0 -0.21,0l-0.67,0l0,2.88l-1.39,0l0,-7.51c0.34,-0.07 0.7,-0.12 1.08,-0.15c0.39,-0.02 0.73,-0.04 1.03,-0.04zm0.1,1.2c-0.29,0 -0.56,0.01 -0.81,0.03l0,2.46l0.6,0c0.34,0 0.63,-0.02 0.89,-0.05c0.26,-0.04 0.47,-0.1 0.64,-0.2s0.3,-0.22 0.39,-0.38s0.13,-0.37 0.13,-0.62c0,-0.23 -0.04,-0.43 -0.13,-0.59c-0.09,-0.16 -0.21,-0.29 -0.38,-0.39c-0.17,-0.09 -0.36,-0.16 -0.59,-0.2c-0.22,-0.04 -0.47,-0.06 -0.74,-0.06z" class="st5"/>
   </g>
   <g id="svg_9">
    <polygon points="33.1199951171875,25.650001525878906 33.1199951171875,20.540000915527344 28.009994506835938,20.540000915527344 28.009994506835938,16.709999084472656 20.350006103515625,23.089996337890625 28.009994506835938,29.480003356933594 28.009994506835938,25.650001525878906 " class="st6" id="XMLID_344_"/>
   </g>
   <polygon id="svg_10" points="40.779998779296875,22.089996337890625 38.43000793457031,22.089996337890625 28.669998168945312,10.5 21.580001831054688,18.900001525878906 15.800003051757812,20.769996643066406 15.5,19.80999755859375 21,18.040000915527344 28.669998168945312,8.939994812011719 38.88999938964844,21.089996337890625 40.779998779296875,21.089996337890625 " class="st7"/>
   <circle id="svg_11" r="1.57" cy="9.719998" cx="28.750002" class="st7"/>
   <circle id="svg_12" r="1.57" cy="18.529998" cx="21.320002" class="st7"/>
   <circle id="svg_13" r="1.57" cy="21.519998" cx="38.360002" class="st7"/>
   <polygon id="svg_14" points="61.15000915527344,32.840003967285156 15.169998168945312,32.840003967285156 15.169998168945312,8.3699951171875 16.30999755859375,8.3699951171875 16.30999755859375,31.709999084472656 61.15000915527344,31.709999084472656 " class="st1"/>
  </g>
 </g>
</svg>