<svg width="45" height="42.6" xmlns="http://www.w3.org/2000/svg">
 <style type="text/css">.st0{fill:#B2B7B5;}
	.st1{fill:#3F3939;}</style>

 <g>
  <title>background</title>
  <rect fill="none" id="canvas_background" height="44.6" width="47" y="-1" x="-1"/>
 </g>
 <g>
  <title>Layer 1</title>
  <path d="m32.35,-0.01l-18.82,0c-7.32,0 -13.26,5.25 -13.26,11.73l0,30.79l32.05,0c7.34,0 13.3,-5.27 13.3,-11.77l0,-19.01l0,-11.74l-13.27,0z" class="st0" id="XMLID_307_"/>
  <g id="svg_1">
   <path id="svg_2" d="m24.88,20.59c0,0.47 -0.16,0.85 -0.47,1.14s-0.69,0.44 -1.13,0.44c-0.45,0 -0.83,-0.15 -1.14,-0.44s-0.46,-0.67 -0.46,-1.14s0.15,-0.85 0.46,-1.15s0.69,-0.45 1.14,-0.45c0.44,0 0.82,0.15 1.13,0.45s0.47,0.68 0.47,1.15z" class="st1"/>
  </g>
 </g>
</svg>