<svg width="72" height="72" xmlns="http://www.w3.org/2000/svg">
 <style type="text/css">.st0{fill:#B2B7B5;}
	.st1{fill-rule:evenodd;clip-rule:evenodd;fill:#ACB2B0;}
	.st2{fill:#FFFFFF;}
	.st3{fill-rule:evenodd;clip-rule:evenodd;fill:#FFFFFF;}</style>

 <g>
  <title>background</title>
  <rect fill="none" id="canvas_background" height="74" width="74" y="-1" x="-1"/>
 </g>
 <g>
  <title>Layer 1</title>
  <g id="svg_1">
   <g id="svg_2">
    <path id="svg_3" d="m69.1,3.37l0,66.1l-66.1,0l0,-66.1l66.1,0m2,-2l-70.1,0l0,70.1l70.1,0l0,-70.1l0,0z" class="st0"/>
   </g>
   <polygon id="svg_4" points="7.290003776550293,5.709999084472656 10.409998893737793,7.029998779296875 10.089999198913574,7.769996643066406 7.979998588562012,6.870002746582031 7.409998893737793,8.230003356933594 9.409998893737793,9.080001831054688 9.089999198913574,9.830001831054688 7.089999198913574,8.980003356933594 6.449999809265137,10.470001220703125 8.640002250671387,11.400001525878906 8.3100004196167,12.180000305175781 5.119997978210449,10.819999694824219 " class="st1"/>
   <path id="svg_5" d="m14.41,8.89l-0.43,0.77c-0.31,-0.33 -0.65,-0.58 -1.02,-0.74c-0.57,-0.24 -0.94,-0.17 -1.1,0.2c-0.09,0.22 0.07,0.59 0.5,1.09l0.1,0.11c0.34,0.4 0.56,0.73 0.66,0.99c0.16,0.38 0.16,0.77 0,1.15c-0.22,0.52 -0.59,0.83 -1.12,0.96c-0.47,0.11 -0.98,0.05 -1.52,-0.18c-0.24,-0.1 -0.61,-0.36 -1.1,-0.77c-0.04,-0.03 -0.08,-0.07 -0.12,-0.1l0.46,-0.83c0.42,0.49 0.78,0.79 1.09,0.92c0.23,0.1 0.46,0.13 0.67,0.1c0.26,-0.04 0.43,-0.16 0.52,-0.38c0.11,-0.25 -0.05,-0.64 -0.47,-1.17l-0.07,-0.08c-0.01,-0.01 -0.04,-0.04 -0.08,-0.1c-0.31,-0.38 -0.51,-0.7 -0.6,-0.95c-0.13,-0.36 -0.12,-0.72 0.03,-1.08c0.2,-0.48 0.56,-0.77 1.07,-0.86c0.44,-0.08 0.91,-0.01 1.41,0.21c0.22,0.09 0.52,0.29 0.89,0.59l0.23,0.15z" class="st1"/>
   <path id="svg_6" d="m19.44,11.06l-0.41,0.78c-0.01,-0.01 -0.03,-0.03 -0.06,-0.06c-0.4,-0.38 -0.73,-0.62 -1,-0.74c-0.57,-0.24 -1.1,-0.26 -1.58,-0.05c-0.48,0.21 -0.84,0.6 -1.08,1.17c-0.24,0.56 -0.25,1.08 -0.04,1.56c0.21,0.48 0.59,0.84 1.15,1.08c0.19,0.08 0.5,0.14 0.94,0.17c0.14,0.01 0.25,0.02 0.34,0.03l-0.26,0.84c-0.06,-0.01 -0.16,-0.02 -0.31,-0.04c-0.52,-0.07 -0.9,-0.15 -1.14,-0.25c-0.85,-0.36 -1.44,-0.87 -1.76,-1.54c-0.34,-0.69 -0.33,-1.46 0.03,-2.3c0.35,-0.82 0.89,-1.37 1.62,-1.64c0.71,-0.26 1.49,-0.22 2.32,0.13c0.25,0.11 0.58,0.32 0.98,0.64c0.08,0.08 0.16,0.14 0.26,0.22z" class="st1"/>
   <g id="svg_7">
    <path id="svg_8" d="m43.75,44.12l-15.39,0l0,-15.39l15.39,0l0,15.39zm-13.98,-1.42l12.56,0l0,-12.56l-12.56,0l0,12.56z" class="st2"/>
    <polygon id="svg_9" points="31.40999984741211,31.94000244140625 33.71000289916992,31.94000244140625 35.82999801635742,35.44999694824219 37.90000534057617,31.94000244140625 40.04000473022461,31.94000244140625 36.90999984741211,36.3800048828125 40.3700065612793,41.25999450683594 38.059993743896484,41.25999450683594 35.65999984741211,37.38999938964844 33.21999740600586,41.25999450683594 31.049999237060547,41.25999450683594 34.559993743896484,36.3800048828125 " class="st3"/>
   </g>
  </g>
 </g>
</svg>