<svg width="69" height="55" xmlns="http://www.w3.org/2000/svg">
 <style type="text/css">.st0{fill:#B2B7B5;}
	.st1{fill:#3F3939;}</style>

 <g>
  <title>background</title>
  <rect fill="none" id="canvas_background" height="60" width="85" y="-1" x="-1"/>
 </g>
 <g>
  <title>Layer 1</title>
  <path d="m68.2,20.38l0,14.33c0,11.02 -8.93,19.95 -19.95,19.95l-48.08,0l0,-34.3c0,-10.98 8.91,-19.89 19.89,-19.89l28.23,0l19.91,0l0,19.91z" class="st0" id="XMLID_318_"/>
  <g id="svg_1">
   <path id="svg_2" d="m23.48,35.4l0,-15.25l9.64,0l0,2.35l-6.86,0l0,3.89l6.09,0l0,2.35l-6.09,0l0,6.64l-2.78,0l0,0.02z" class="st1"/>
   <path id="svg_3" d="m35.76,23.32c0.85,-0.34 1.7,-0.77 2.56,-1.3c0.86,-0.53 1.62,-1.15 2.28,-1.87l1.87,0l0,15.25l-2.66,0l0,-11.68c-0.4,0.31 -0.9,0.61 -1.5,0.9c-0.6,0.29 -1.18,0.54 -1.74,0.73l-0.81,-2.03z" class="st1"/>
  </g>
 </g>
</svg>