<svg width="69" height="55" xmlns="http://www.w3.org/2000/svg">
 <style type="text/css">.st0{fill:#B2B7B5;}
	.st1{fill:#3F3939;}</style>

 <g>
  <title>background</title>
  <rect fill="none" id="canvas_background" height="57" width="71" y="-1" x="-1"/>
 </g>
 <g>
  <title>Layer 1</title>
  <path d="m67.56,20.38l0,14.33c0,11.02 -8.93,19.95 -19.95,19.95l-48.08,0l0,-34.3c0,-10.98 8.91,-19.89 19.89,-19.89l28.23,0l19.91,0l0,19.91z" class="st0" id="XMLID_315_"/>
  <g id="svg_1">
   <path id="svg_2" d="m23.06,35.4l0,-15.25l9.64,0l0,2.35l-6.86,0l0,3.89l6.09,0l0,2.35l-6.09,0l0,6.64l-2.78,0l0,0.02z" class="st1"/>
   <path id="svg_3" d="m43.36,20.16l0,9.42l1.72,0l0,2.18l-1.72,0l0,3.65l-2.6,0l0,-3.65l-6.69,0l0,-1.89c0.29,-0.65 0.69,-1.39 1.18,-2.22c0.49,-0.84 1.04,-1.69 1.64,-2.57c0.6,-0.88 1.24,-1.75 1.91,-2.6s1.35,-1.62 2.02,-2.31l2.54,0l0,-0.01zm-2.59,3.27c-0.35,0.42 -0.71,0.88 -1.09,1.36c-0.37,0.48 -0.74,0.99 -1.09,1.52c-0.35,0.53 -0.69,1.07 -1.01,1.62c-0.32,0.55 -0.62,1.1 -0.88,1.64l4.07,0l0,-6.14z" class="st1"/>
  </g>
 </g>
</svg>