<svg width="69" height="55" xmlns="http://www.w3.org/2000/svg">
 <style type="text/css">.st0{fill:#B2B7B5;}
	.st1{fill:#3F3939;}</style>

 <g>
  <title>background</title>
  <rect fill="none" id="canvas_background" height="57" width="71" y="-1" x="-1"/>
 </g>
 <g>
  <title>Layer 1</title>
  <path d="m67.56,20.38l0,14.33c0,11.02 -8.93,19.95 -19.95,19.95l-48.08,0l0,-34.3c0,-10.98 8.91,-19.89 19.89,-19.89l28.23,0l19.91,0l0,19.91z" class="st0" id="XMLID_313_"/>
  <g id="svg_1">
   <path id="svg_2" d="m23.06,35.28l0,-15.25l9.64,0l0,2.35l-6.86,0l0,3.89l6.09,0l0,2.35l-6.09,0l0,6.64l-2.78,0l0,0.02z" class="st1"/>
   <path id="svg_3" d="m39.89,25.75c0.91,0 1.68,0.13 2.32,0.38c0.64,0.26 1.15,0.61 1.55,1.04c0.4,0.44 0.69,0.95 0.87,1.53c0.18,0.58 0.27,1.18 0.27,1.82c0,0.57 -0.1,1.16 -0.3,1.76s-0.51,1.15 -0.92,1.64c-0.42,0.49 -0.94,0.9 -1.57,1.21c-0.63,0.32 -1.38,0.47 -2.24,0.47c-1.75,0 -3.08,-0.58 -3.99,-1.73c-0.92,-1.15 -1.38,-2.74 -1.38,-4.76c0,-1.47 0.22,-2.77 0.65,-3.91s1.05,-2.09 1.85,-2.87c0.8,-0.78 1.77,-1.37 2.9,-1.77s2.42,-0.61 3.84,-0.63l0.15,2.2c-0.79,0.01 -1.53,0.1 -2.22,0.25c-0.69,0.15 -1.31,0.39 -1.85,0.71s-1.01,0.74 -1.4,1.25c-0.39,0.51 -0.69,1.14 -0.89,1.89c0.72,-0.31 1.51,-0.48 2.36,-0.48zm-0.33,2.12c-0.43,0 -0.84,0.04 -1.23,0.11c-0.4,0.07 -0.75,0.18 -1.08,0.33c-0.01,0.12 -0.03,0.25 -0.03,0.39c-0.01,0.14 -0.01,0.27 -0.01,0.41c0,0.59 0.04,1.14 0.12,1.66c0.08,0.52 0.22,0.98 0.42,1.36c0.2,0.39 0.47,0.7 0.81,0.92s0.77,0.34 1.29,0.34c0.42,0 0.79,-0.09 1.09,-0.26s0.55,-0.4 0.74,-0.68c0.19,-0.28 0.33,-0.58 0.42,-0.91s0.13,-0.65 0.13,-0.96c0,-0.88 -0.21,-1.55 -0.64,-2.01c-0.43,-0.47 -1.11,-0.7 -2.03,-0.7z" class="st1"/>
  </g>
 </g>
</svg>