<svg width="69" height="55" xmlns="http://www.w3.org/2000/svg">
 <style type="text/css">.st0{fill:#B2B7B5;}
	.st1{fill:#3F3939;}</style>

 <g>
  <title>background</title>
  <rect fill="none" id="canvas_background" height="57" width="71" y="-1" x="-1"/>
 </g>
 <g>
  <title>Layer 1</title>
  <path d="m67.8,20.38l0,14.33c0,11.02 -8.93,19.95 -19.95,19.95l-48.08,0l0,-34.3c0,-10.98 8.91,-19.89 19.89,-19.89l28.23,0l19.91,0l0,19.91z" class="st0" id="XMLID_312_"/>
  <g id="svg_1">
   <path id="svg_2" d="m23.3,35.4l0,-15.25l9.64,0l0,2.35l-6.87,0l0,3.89l6.1,0l0,2.35l-6.1,0l0,6.64l-2.77,0l0,0.02z" class="st1"/>
   <path id="svg_3" d="m36.98,35.4c0.09,-1.11 0.29,-2.29 0.6,-3.52c0.31,-1.23 0.68,-2.43 1.13,-3.6c0.45,-1.17 0.94,-2.26 1.47,-3.28c0.54,-1.02 1.07,-1.87 1.6,-2.56l-7.02,0l0,-2.29l10.19,0l0,2.02c-0.48,0.54 -1.01,1.28 -1.58,2.22s-1.12,2 -1.63,3.18s-0.96,2.45 -1.33,3.79c-0.38,1.35 -0.61,2.69 -0.69,4.03l-2.74,0l0,0.01z" class="st1"/>
  </g>
 </g>
</svg>