<svg width="69" height="55" xmlns="http://www.w3.org/2000/svg">
 <style type="text/css">.st0{fill:#B2B7B5;}
	.st1{fill:#3F3939;}</style>

 <g>
  <title>background</title>
  <rect fill="none" id="canvas_background" height="57" width="71" y="-1" x="-1"/>
 </g>
 <g>
  <title>Layer 1</title>
  <path d="m67.8,20.38l0,14.33c0,11.02 -8.93,19.95 -19.95,19.95l-48.08,0l0,-34.3c0,-10.98 8.91,-19.89 19.89,-19.89l28.23,0l19.91,0l0,19.91z" class="st0" id="XMLID_311_"/>
  <g id="svg_1">
   <path id="svg_2" d="m21.95,35.41l0,-15.25l9.64,0l0,2.35l-6.86,0l0,3.89l6.09,0l0,2.35l-6.09,0l0,6.64l-2.78,0l0,0.02z" class="st1"/>
   <path id="svg_3" d="m43.68,31.32c0,0.63 -0.11,1.22 -0.33,1.76c-0.22,0.54 -0.55,1.01 -0.99,1.41c-0.44,0.4 -0.99,0.7 -1.64,0.92c-0.65,0.22 -1.41,0.33 -2.26,0.33c-1,0 -1.83,-0.14 -2.49,-0.42s-1.19,-0.63 -1.58,-1.06c-0.4,-0.42 -0.68,-0.88 -0.85,-1.38c-0.17,-0.49 -0.25,-0.96 -0.25,-1.4c0,-0.44 0.06,-0.85 0.19,-1.22c0.12,-0.37 0.3,-0.72 0.52,-1.03c0.22,-0.32 0.47,-0.61 0.75,-0.87c0.28,-0.26 0.57,-0.5 0.88,-0.7c-0.67,-0.47 -1.18,-0.98 -1.51,-1.53s-0.5,-1.22 -0.5,-2.01c0,-0.57 0.11,-1.12 0.34,-1.64s0.55,-0.98 0.98,-1.38c0.42,-0.4 0.94,-0.71 1.54,-0.95s1.27,-0.35 2,-0.35c0.87,0 1.6,0.12 2.21,0.37c0.61,0.25 1.11,0.57 1.5,0.97c0.39,0.4 0.67,0.84 0.85,1.32c0.18,0.48 0.26,0.95 0.26,1.41c0,0.81 -0.22,1.52 -0.66,2.15c-0.44,0.62 -0.95,1.12 -1.52,1.48c0.87,0.47 1.51,1.01 1.93,1.63c0.42,0.63 0.63,1.35 0.63,2.19zm-7.76,0.13c0,0.22 0.04,0.45 0.13,0.7c0.09,0.25 0.23,0.48 0.44,0.68c0.21,0.21 0.47,0.38 0.79,0.52c0.32,0.14 0.73,0.21 1.21,0.21c0.44,0 0.82,-0.06 1.14,-0.18c0.32,-0.12 0.59,-0.27 0.79,-0.47c0.21,-0.2 0.36,-0.43 0.46,-0.68c0.1,-0.26 0.15,-0.52 0.15,-0.78c0,-0.41 -0.08,-0.77 -0.24,-1.08c-0.16,-0.31 -0.39,-0.58 -0.69,-0.8c-0.3,-0.23 -0.66,-0.43 -1.07,-0.59c-0.41,-0.17 -0.87,-0.32 -1.36,-0.45c-0.53,0.34 -0.95,0.75 -1.28,1.22c-0.31,0.47 -0.47,1.04 -0.47,1.7zm4.79,-7.52c0,-0.19 -0.04,-0.4 -0.12,-0.63c-0.08,-0.23 -0.21,-0.44 -0.4,-0.63c-0.18,-0.19 -0.42,-0.35 -0.69,-0.48c-0.28,-0.13 -0.62,-0.2 -1.01,-0.2c-0.4,0 -0.74,0.06 -1.02,0.19c-0.29,0.12 -0.52,0.29 -0.69,0.48s-0.31,0.41 -0.4,0.64s-0.13,0.45 -0.13,0.67c0,0.56 0.21,1.09 0.63,1.58c0.42,0.5 1.12,0.89 2.1,1.19c0.54,-0.34 0.97,-0.72 1.28,-1.16c0.3,-0.42 0.45,-0.98 0.45,-1.65z" class="st1"/>
  </g>
 </g>
</svg>