<svg width="72" height="72" xmlns="http://www.w3.org/2000/svg">
 <style type="text/css">.st0{fill:#FFFFFF;}
	.st1{fill-rule:evenodd;clip-rule:evenodd;fill:#FFFFFF;}
	.st2{fill:#B2B7B5;}
	.st3{fill-rule:evenodd;clip-rule:evenodd;fill:#ACB2B0;}</style>

 <g>
  <title>background</title>
  <rect fill="none" id="canvas_background" height="74" width="74" y="-1" x="-1"/>
 </g>
 <g>
  <title>Layer 1</title>
  <g id="svg_1">
   <g id="svg_2">
    <path id="svg_3" d="m36.05,42.33c-2.47,0 -4.48,-1.9 -4.48,-4.24l0,-6.14c0,-2.34 2,-4.24 4.47,-4.24l0,0c2.47,0 4.47,1.9 4.47,4.24l0,6.14c0.01,2.33 -1.99,4.24 -4.46,4.24zm0,-13.21c-1.68,0 -3.05,1.27 -3.05,2.83l0,6.14c0,1.56 1.37,2.83 3.06,2.83c1.68,0 3.05,-1.27 3.05,-2.83l0,-6.14c-0.01,-1.56 -1.38,-2.83 -3.06,-2.83l0,0z" class="st0"/>
    <rect id="svg_4" height="9.67" width="10.75" class="st1" y="34.73" x="30.67"/>
   </g>
   <g id="svg_5">
    <path id="svg_6" d="m69.1,3l0,66.1l-66.1,0l0,-66.1l66.1,0m2,-2l-70.1,0l0,70.1l70.1,0l0,-70.1l0,0z" class="st2"/>
   </g>
   <polygon id="svg_7" points="46.7400016784668,13.34000015258789 47.749996185302734,12.920001983642578 49.58999252319336,17.249996185302734 51.63999557495117,16.380001068115234 51.96999740600586,17.15999984741211 48.90999984741211,18.449993133544922 " class="st3"/>
   <path id="svg_8" d="m52.38,10.82c0.78,-0.33 1.49,-0.34 2.14,-0.01c0.61,0.3 1.08,0.85 1.42,1.65c0.34,0.8 0.41,1.52 0.21,2.16c-0.21,0.68 -0.71,1.19 -1.5,1.52c-0.78,0.33 -1.5,0.34 -2.14,0.02c-0.6,-0.3 -1.07,-0.85 -1.41,-1.65c-0.34,-0.8 -0.41,-1.52 -0.21,-2.16c0.21,-0.69 0.71,-1.2 1.49,-1.53zm0.33,0.76c-0.47,0.2 -0.74,0.56 -0.81,1.08c-0.06,0.43 0.01,0.9 0.23,1.4c0.21,0.51 0.5,0.89 0.85,1.14c0.43,0.31 0.88,0.37 1.35,0.17c0.47,-0.2 0.75,-0.56 0.82,-1.09c0.06,-0.44 -0.02,-0.91 -0.23,-1.41c-0.21,-0.5 -0.5,-0.88 -0.86,-1.14c-0.43,-0.3 -0.88,-0.35 -1.35,-0.15z" class="st3"/>
   <path id="svg_9" d="m59.75,8.02l0.28,0.84c-0.02,0 -0.05,0 -0.09,0c-0.55,0.02 -0.96,0.09 -1.22,0.21c-0.57,0.24 -0.95,0.61 -1.13,1.1c-0.18,0.49 -0.15,1.02 0.09,1.59c0.24,0.56 0.6,0.93 1.09,1.12c0.49,0.19 1.02,0.16 1.58,-0.08c0.19,-0.08 0.44,-0.27 0.77,-0.56c0.1,-0.09 0.19,-0.17 0.26,-0.22l0.43,0.77c-0.05,0.04 -0.13,0.1 -0.24,0.19c-0.41,0.33 -0.73,0.54 -0.97,0.64c-0.85,0.36 -1.63,0.43 -2.33,0.2c-0.73,-0.24 -1.28,-0.78 -1.63,-1.62c-0.35,-0.82 -0.37,-1.59 -0.06,-2.3c0.31,-0.7 0.87,-1.22 1.7,-1.58c0.25,-0.11 0.63,-0.19 1.14,-0.26c0.09,-0.01 0.2,-0.03 0.33,-0.04z" class="st3"/>
   <polygon id="svg_10" points="60.499996185302734,7.509998321533203 61.510005950927734,7.079998016357422 62.46000289916992,9.310001373291016 63.38999557495117,6.280002593994141 64.54000854492188,5.789997100830078 63.44999313354492,9.049999237060547 66.91000366210938,10.820003509521484 65.6399917602539,11.359996795654297 62.63999557495117,9.740001678466797 63.68000411987305,12.189998626708984 62.66999435424805,12.619998931884766 " class="st3"/>
  </g>
 </g>
</svg>