<svg width="72" height="57" xmlns="http://www.w3.org/2000/svg">
 <style type="text/css">.st0{fill:#3F3939;}
	.st1{fill:#ACB2B0;}
	.st2{fill:#0069B3;}
	.st3{fill:#0F9F39;}
	.st4{fill:#E20613;}
	.st5{fill:#FFFFFF;}
	.st6{fill:none;}</style>

 <g>
  <title>background</title>
  <rect fill="none" id="canvas_background" height="59" width="74" y="-1" x="-1"/>
 </g>
 <g>
  <title>Layer 1</title>
  <g id="svg_1">
   <path d="m71.370004,21.240004l0,14.93c0,11.48 -9.3,20.78 -20.78,20.78l-50.09,0l0,-35.73c0,-11.44 9.28,-20.72 20.72,-20.72l29.41,0l20.74,0l0,20.74z" class="st0" id="XMLID_22_"/>
   <path id="svg_2" d="m50.590004,57.450004l-50.59,0l0,-36.23c0,-11.7 9.52,-21.22 21.22,-21.22l50.65,0l0,36.17c0,11.73 -9.54,21.28 -21.28,21.28zm-49.58,-1l49.59,0c11.18,0 20.28,-9.1 20.28,-20.28l0,-35.17l-49.65,0c-11.15,0 -20.22,9.07 -20.22,20.22l0,35.23z" class="st1"/>
   <path id="svg_3" d="m42.850004,24.010004c-2.97,0 -5.38,-2.41 -5.38,-5.38s2.41,-5.38 5.38,-5.38s5.38,2.41 5.38,5.38s-2.41,5.38 -5.38,5.38zm0,-9.76c-2.42,0 -4.38,1.97 -4.38,4.38s1.97,4.38 4.38,4.38s4.38,-1.97 4.38,-4.38s-1.96,-4.38 -4.38,-4.38z" class="st2"/>
   <path id="svg_4" d="m35.320004,12.110004c-0.77,0 -1.4,-0.63 -1.4,-1.4s0.63,-1.4 1.4,-1.4c0.77,0 1.4,0.63 1.4,1.4s-0.63,1.4 -1.4,1.4zm0,-1.95c-0.3,0 -0.55,0.25 -0.55,0.55s0.25,0.55 0.55,0.55c0.3,0 0.55,-0.25 0.55,-0.55s-0.25,-0.55 -0.55,-0.55z" class="st2"/>
   <rect id="svg_5" height="1" width="4.31" class="st2" y="20.570004" x="34.600004"/>
   <rect id="svg_6" height="1" width="4.31" class="st2" y="20.570004" x="47.120004"/>
   <rect id="svg_7" height="1" width="16.09" class="st3" y="7.690004" x="37.970004"/>
   <path id="svg_8" d="m42.850004,27.920004c-4.95,0 -8.95,-3.98 -9.29,-9.25c-0.02,-0.38 -0.25,-1.24 -0.49,-2.15c-0.19,-0.7 -0.39,-1.49 -0.57,-2.27c-0.2,-0.9 -0.36,-1.79 -0.39,-2.54l0,0c-0.05,-1.35 0.68,-2.85 1.82,-3.73c0.9,-0.7 1.92,-0.92 2.87,-0.64c2.17,0.64 5.76,1.66 6.23,1.79c5.36,0.38 9.1,4.28 9.1,9.51c0.01,5.11 -4.15,9.28 -9.28,9.28zm-9.73,-16.26c0.03,0.72 0.19,1.6 0.39,2.5c0.16,0.72 0.36,1.44 0.53,2.1c0.28,1.04 0.49,1.86 0.52,2.34c0.31,4.74 3.87,8.32 8.29,8.32c4.57,0 8.29,-3.72 8.29,-8.29c0,-4.7 -3.38,-8.2 -8.22,-8.51l-0.1,-0.02c0,0 -3.96,-1.12 -6.29,-1.81c-0.86,-0.26 -1.61,0.19 -1.97,0.47c-0.89,0.69 -1.48,1.88 -1.44,2.9l0,0z" class="st2"/>
   <path d="m15.530004,30.040004l2.4,-0.87c1.72,0.72 3.28,1.1 4.67,1.13c0.48,-0.12 0.82,-0.22 1.03,-0.29c0.62,-0.22 1.24,-0.56 1.88,-1.01l0.71,0l0.59,-0.18c1.67,-0.61 2.32,-1.42 1.95,-2.44l-0.08,-0.23c0.6,-0.31 1.01,-0.65 1.23,-1.03c0.22,-0.38 0.24,-0.8 0.07,-1.26c-0.07,-0.2 -0.22,-0.42 -0.44,-0.64c0.44,-0.29 0.74,-0.6 0.89,-0.94c0.15,-0.33 0.16,-0.69 0.03,-1.06c-0.1,-0.27 -0.25,-0.49 -0.46,-0.64c-0.21,-0.15 -0.47,-0.25 -0.79,-0.3l0.4,-0.7l5.44,-2.05c1.29,-0.47 2.22,-0.95 2.78,-1.45c0.56,-0.49 0.88,-0.64 0.69,-1.14c-0.22,-0.59 -0.68,-0.89 -1.39,-0.9c-0.71,-0.01 -1.85,0.27 -3.41,0.84l-5.94,2.02l-1,-0.63l-5.14,1.48c-1.94,1.3 -3.61,2.6 -5.01,3.91l-3.6,1.31c-0.18,1.28 -0.2,2.99 0.24,4.22c0.41,1.07 1.35,1.96 2.26,2.85z" class="st0" id="XMLID_1_"/>
   <path id="svg_9" d="m22.670004,30.870004l-0.08,0c-1.4,-0.03 -2.98,-0.4 -4.67,-1.09l-2.53,0.92l-0.39,-0.38c-0.9,-0.88 -1.83,-1.79 -2.25,-2.94c-0.6,-1.66 -0.36,-3.86 -0.27,-4.49l0.05,-0.34l3.81,-1.39c1.4,-1.3 3.08,-2.6 5,-3.89l0.16,-0.07l5.38,-1.55l0.98,0.62l5.68,-1.93c1.64,-0.59 2.82,-0.9 3.61,-0.87c0.94,0.01 1.61,0.47 1.91,1.28c0.29,0.8 -0.19,1.2 -0.62,1.56l-0.23,0.2c-0.62,0.55 -1.59,1.06 -2.96,1.56l-5.11,1.92c0.07,0.04 0.14,0.09 0.21,0.13c0.3,0.22 0.52,0.53 0.66,0.91c0.19,0.51 0.17,1.01 -0.04,1.48c-0.13,0.28 -0.33,0.55 -0.61,0.8c0.07,0.12 0.13,0.23 0.17,0.35c0.22,0.62 0.18,1.22 -0.12,1.74c-0.22,0.38 -0.56,0.71 -1.03,1.01c0.24,0.92 -0.05,2.09 -2.36,2.94l-0.79,0.22l-0.53,0c-0.62,0.42 -1.25,0.75 -1.86,0.97c-0.22,0.08 -0.59,0.19 -1.09,0.31l-0.08,0.02zm-4.73,-2.31l0.2,0.09c1.61,0.68 3.09,1.04 4.39,1.08c0.41,-0.1 0.71,-0.19 0.9,-0.26c0.57,-0.21 1.16,-0.52 1.75,-0.94l0.15,-0.1l0.8,0l0.51,-0.16c1.95,-0.71 1.68,-1.43 1.58,-1.71l-0.25,-0.7l0.45,-0.23c0.5,-0.25 0.83,-0.52 0.99,-0.8c0.13,-0.23 0.14,-0.48 0.03,-0.79c-0.03,-0.09 -0.11,-0.23 -0.31,-0.44l-0.48,-0.49l0.57,-0.38c0.35,-0.23 0.58,-0.46 0.69,-0.7c0.09,-0.2 0.09,-0.4 0.01,-0.63c-0.06,-0.17 -0.15,-0.29 -0.27,-0.38c-0.13,-0.1 -0.31,-0.16 -0.53,-0.19l-0.83,-0.11l0.92,-1.61l5.63,-2.12c1.23,-0.45 2.1,-0.9 2.6,-1.34l0.26,-0.22c0.12,-0.11 0.28,-0.24 0.31,-0.29c-0.12,-0.27 -0.3,-0.54 -0.89,-0.55c-0.43,-0.01 -1.35,0.13 -3.21,0.8l-6.21,2.11l-1.01,-0.64l-4.81,1.38c-1.87,1.26 -3.51,2.54 -4.86,3.8l-0.19,0.12l-3.27,1.19c-0.12,1.13 -0.12,2.59 0.26,3.61c0.31,0.87 1.05,1.62 1.85,2.4l2.27,-0.8z" class="st4"/>
   <g id="svg_10">
    <path id="svg_11" d="m9.310004,41.450004c0.16,0.28 0.34,0.62 0.54,1.02c0.2,0.4 0.4,0.83 0.6,1.27c0.21,0.44 0.41,0.89 0.61,1.35s0.39,0.88 0.56,1.27c0.17,-0.39 0.35,-0.81 0.55,-1.27c0.2,-0.46 0.4,-0.91 0.6,-1.35c0.21,-0.44 0.41,-0.87 0.6,-1.27c0.2,-0.4 0.38,-0.74 0.54,-1.02l1.25,0c0.07,0.56 0.13,1.15 0.19,1.78c0.06,0.63 0.11,1.27 0.16,1.92c0.05,0.66 0.09,1.32 0.13,1.98s0.08,1.31 0.11,1.94l-1.36,0c-0.03,-0.89 -0.07,-1.8 -0.11,-2.74c-0.04,-0.94 -0.1,-1.85 -0.19,-2.73c-0.08,0.17 -0.18,0.37 -0.29,0.6c-0.11,0.24 -0.23,0.49 -0.35,0.76c-0.12,0.28 -0.25,0.56 -0.38,0.85c-0.13,0.29 -0.25,0.58 -0.37,0.85s-0.23,0.53 -0.34,0.77s-0.19,0.44 -0.26,0.61l-1.03,0c-0.07,-0.17 -0.16,-0.37 -0.26,-0.62s-0.21,-0.5 -0.34,-0.78c-0.12,-0.28 -0.25,-0.56 -0.37,-0.85s-0.25,-0.58 -0.38,-0.85c-0.12,-0.27 -0.24,-0.53 -0.35,-0.76s-0.21,-0.44 -0.29,-0.6c-0.08,0.88 -0.14,1.79 -0.19,2.73c-0.04,0.94 -0.08,1.85 -0.11,2.74l-1.36,0c0.03,-0.63 0.07,-1.28 0.11,-1.96s0.09,-1.34 0.13,-2.01c0.05,-0.66 0.1,-1.31 0.16,-1.93c0.06,-0.62 0.12,-1.2 0.19,-1.73l1.3,0l0,0.03z" class="st5"/>
    <path id="svg_12" d="m22.440004,49.080004c-0.1,-0.3 -0.21,-0.6 -0.32,-0.89c-0.11,-0.29 -0.22,-0.59 -0.32,-0.9l-3.22,0c-0.1,0.31 -0.21,0.61 -0.31,0.91c-0.11,0.3 -0.21,0.59 -0.31,0.89l-1.44,0c0.29,-0.81 0.56,-1.57 0.81,-2.25c0.26,-0.69 0.51,-1.34 0.75,-1.96c0.25,-0.62 0.49,-1.2 0.73,-1.76c0.24,-0.56 0.49,-1.11 0.75,-1.65l1.32,0c0.26,0.54 0.51,1.09 0.75,1.65c0.24,0.56 0.49,1.14 0.73,1.76c0.25,0.62 0.5,1.27 0.76,1.96s0.53,1.44 0.82,2.25l-1.5,0l0,-0.01zm-2.25,-6.15c-0.17,0.39 -0.36,0.86 -0.58,1.42c-0.22,0.56 -0.44,1.16 -0.68,1.82l2.51,0c-0.23,-0.65 -0.46,-1.26 -0.68,-1.83c-0.22,-0.57 -0.41,-1.04 -0.57,-1.41z" class="st5"/>
    <path id="svg_13" d="m30.030004,49.080004c-0.25,-0.42 -0.53,-0.87 -0.84,-1.35s-0.63,-0.96 -0.96,-1.45c-0.33,-0.49 -0.67,-0.96 -1.01,-1.42c-0.34,-0.46 -0.67,-0.87 -0.97,-1.24l0,5.46l-1.36,0l0,-7.62l1.13,0c0.29,0.31 0.61,0.67 0.95,1.09c0.34,0.42 0.68,0.86 1.02,1.31c0.34,0.46 0.67,0.91 0.99,1.37c0.32,0.46 0.6,0.89 0.85,1.28l0,-5.06l1.38,0l0,7.62l-1.18,0l0,0.01z" class="st5"/>
    <path id="svg_14" d="m38.980004,49.240004c-0.57,0 -1.08,-0.09 -1.54,-0.26c-0.46,-0.18 -0.84,-0.43 -1.16,-0.78c-0.32,-0.34 -0.56,-0.76 -0.73,-1.25c-0.17,-0.49 -0.25,-1.06 -0.25,-1.69c0,-0.64 0.1,-1.2 0.29,-1.69s0.46,-0.91 0.8,-1.25s0.73,-0.6 1.19,-0.78s0.94,-0.26 1.46,-0.26c0.31,0 0.6,0.02 0.86,0.07c0.26,0.05 0.48,0.1 0.67,0.16c0.19,0.06 0.35,0.12 0.47,0.19c0.12,0.07 0.21,0.11 0.26,0.14l-0.41,1.13c-0.18,-0.11 -0.43,-0.21 -0.75,-0.31c-0.33,-0.1 -0.68,-0.15 -1.06,-0.15c-0.33,0 -0.64,0.06 -0.92,0.17c-0.29,0.11 -0.53,0.28 -0.74,0.51s-0.37,0.51 -0.49,0.86s-0.18,0.75 -0.18,1.2c0,0.4 0.05,0.77 0.14,1.11c0.09,0.34 0.23,0.63 0.42,0.87c0.19,0.25 0.43,0.44 0.73,0.57c0.29,0.14 0.65,0.2 1.06,0.2c0.49,0 0.89,-0.05 1.2,-0.15c0.31,-0.1 0.55,-0.19 0.71,-0.28l0.37,1.13c-0.09,0.06 -0.21,0.12 -0.36,0.18c-0.15,0.06 -0.33,0.12 -0.53,0.17c-0.21,0.05 -0.44,0.1 -0.69,0.13s-0.52,0.06 -0.82,0.06z" class="st5"/>
    <path id="svg_15" d="m48.090004,41.450004l0,1.2l-2.34,0l0,6.42l-1.4,0l0,-6.42l-2.34,0l0,-1.2l6.08,0z" class="st5"/>
    <path id="svg_16" d="m51.250004,41.380004c1.1,0 1.94,0.2 2.52,0.61s0.87,1.02 0.87,1.85c0,1.03 -0.51,1.73 -1.53,2.1c0.14,0.17 0.3,0.37 0.47,0.62c0.18,0.24 0.36,0.5 0.54,0.79c0.18,0.28 0.36,0.57 0.53,0.87c0.17,0.3 0.32,0.59 0.45,0.87l-1.55,0c-0.14,-0.26 -0.29,-0.53 -0.45,-0.8c-0.16,-0.27 -0.32,-0.53 -0.49,-0.78s-0.33,-0.49 -0.49,-0.72c-0.16,-0.22 -0.31,-0.42 -0.45,-0.6c-0.1,0.01 -0.19,0.01 -0.26,0.01c-0.07,0 -0.14,0 -0.21,0l-0.67,0l0,2.88l-1.39,0l0,-7.51c0.34,-0.07 0.7,-0.12 1.08,-0.15c0.39,-0.03 0.73,-0.04 1.03,-0.04zm0.1,1.2c-0.29,0 -0.56,0.01 -0.81,0.03l0,2.46l0.6,0c0.34,0 0.63,-0.02 0.89,-0.05c0.26,-0.04 0.47,-0.1 0.64,-0.2s0.3,-0.22 0.39,-0.38s0.13,-0.37 0.13,-0.62c0,-0.23 -0.04,-0.43 -0.13,-0.59c-0.09,-0.16 -0.21,-0.29 -0.38,-0.39c-0.17,-0.09 -0.36,-0.16 -0.59,-0.2c-0.22,-0.04 -0.47,-0.06 -0.74,-0.06z" class="st5"/>
    <path id="svg_17" d="m61.010004,47.880004l0,1.2l-4.82,0l0,-7.62l1.39,0l0,6.42l3.43,0z" class="st5"/>
   </g>
   <path id="svg_18" d="m49.130004,31.300004l1.15,0.01l0,-1.76c-0.56,0.44 -0.97,1.05 -1.15,1.75z" class="st6"/>
   <path id="svg_19" d="m52.190004,28.890004c-0.7,0 -1.34,0.24 -1.86,0.62l4.18,1.86l0.73,0.01c-0.3,-1.42 -1.54,-2.49 -3.05,-2.49z" class="st6"/>
   <path id="svg_20" d="m50.280004,34.530004l0,-2.01l-1.18,-0.01c0.13,0.81 0.55,1.53 1.18,2.02z" class="st6"/>
   <path id="svg_21" d="m52.190004,35.190004c1.55,0 2.82,-1.13 3.07,-2.61l-0.45,-0.01l-4.49,1.99c0.54,0.4 1.18,0.63 1.87,0.63z" class="st6"/>
   <path id="svg_22" d="m56.480004,31.400004c0.03,0.21 0.07,0.42 0.07,0.64c0,0.19 -0.03,0.37 -0.06,0.55l3.59,0.04l0.02,-1.2l-3.62,-0.03z" class="st3"/>
   <path id="svg_23" d="m47.920004,31.290004l-3.59,-0.04l0,0.2l0,1l-0.04,0l0,0l3.6,0.04c-0.02,-0.15 -0.05,-0.29 -0.05,-0.45c0,-0.26 0.04,-0.51 0.08,-0.75z" class="st3"/>
   <polygon id="svg_24" points="44.33000183105469,31.25 44.33000183105469,27.720001220703125 43.33000183105469,27.720001220703125 43.33000183105469,32.44000244140625 44.290008544921875,32.44000244140625 44.30000305175781,31.240005493164062 " class="st3"/>
   <polygon id="svg_25" points="44.33000183105469,31.44000244140625 44.33000183105469,31.25 44.30000305175781,31.240005493164062 44.290008544921875,32.44000244140625 44.33000183105469,32.44000244140625 " class="st3"/>
   <g id="svg_26">
    <path id="svg_27" d="m50.280004,34.530004l0,-2.01l-1.18,-0.01c0.13,0.81 0.55,1.53 1.18,2.02z" class="st6"/>
    <path id="svg_28" d="m49.130004,31.300004l1.15,0.01l0,-1.76c-0.56,0.44 -0.97,1.05 -1.15,1.75z" class="st6"/>
    <path id="svg_29" d="m55.310004,31.730004c-0.01,-0.12 -0.04,-0.23 -0.07,-0.34c-0.31,-1.42 -1.54,-2.49 -3.05,-2.49c-0.7,0 -1.34,0.24 -1.86,0.62l4.18,1.86l0.8,0.35z" class="st6"/>
    <path id="svg_30" d="m50.330004,34.570004c0.52,0.39 1.16,0.62 1.86,0.62c1.55,0 2.82,-1.13 3.07,-2.61c0.01,-0.08 0.04,-0.15 0.04,-0.22l-0.49,0.22l-4.48,1.99z" class="st6"/>
    <path id="svg_31" d="m56.480004,31.400004c-0.31,-2.09 -2.11,-3.71 -4.29,-3.71c-2.14,0 -3.92,1.56 -4.27,3.6c-0.04,0.25 -0.08,0.49 -0.08,0.75c0,0.15 0.03,0.3 0.05,0.45c0.23,2.19 2.06,3.9 4.3,3.9c2.21,0 4.02,-1.66 4.29,-3.8c0.02,-0.18 0.06,-0.36 0.06,-0.55c0,-0.22 -0.03,-0.43 -0.06,-0.64zm-4.29,-2.51c1.51,0 2.75,1.07 3.05,2.49c0.02,0.11 0.06,0.23 0.07,0.34l-0.79,-0.35l-4.18,-1.86c0.52,-0.38 1.16,-0.62 1.85,-0.62zm-1.91,5.64c-0.63,-0.49 -1.06,-1.2 -1.18,-2.02l1.18,0.01l0,2.01zm0,-3.21l-1.15,-0.01c0.17,-0.71 0.59,-1.32 1.15,-1.75l0,1.76zm4.99,1.26c-0.26,1.48 -1.52,2.61 -3.07,2.61c-0.7,0 -1.34,-0.24 -1.86,-0.62l4.49,-1.99l0.49,-0.22c-0.02,0.07 -0.04,0.15 -0.05,0.22z" class="st1"/>
   </g>
  </g>
 </g>
</svg>