<svg width="69" height="83" xmlns="http://www.w3.org/2000/svg">
 <style type="text/css">.st0{fill:#E20613;}
	.st1{fill:#FFFFFF;}
	.st2{fill-rule:evenodd;clip-rule:evenodd;fill:#3F3939;}</style>

 <g>
  <title>background</title>
  <rect fill="none" id="canvas_background" height="85" width="71" y="-1" x="-1"/>
 </g>
 <g>
  <title>Layer 1</title>
  <g id="svg_1">
   <path id="svg_2" d="m20.010001,-0.000003l28.38,0c11.04,0 19.99,8.95 19.99,19.99l0,62.47l-48.33,0c-11.07,0 -20.05,-8.98 -20.05,-20.05l0,-32.4l0,-30.01l20.01,0z" class="st0"/>
   <path id="svg_3" d="m33.930001,63.379997c-6.33,0 -11.48,-5.15 -11.48,-11.48s5.15,-11.48 11.48,-11.48s11.48,5.15 11.48,11.48s-5.15,11.48 -11.48,11.48zm0,-21.26c-5.39,0 -9.78,4.39 -9.78,9.78s4.39,9.78 9.78,9.78s9.78,-4.39 9.78,-9.78s-4.39,-9.78 -9.78,-9.78z" class="st1"/>
   <rect id="svg_4" height="2.27" width="10.61" class="st1" y="50.789997" x="38.650001"/>
   <path id="svg_5" d="m25.850001,21.259997l-0.13,1.22c-0.58,-0.26 -1.15,-0.39 -1.71,-0.39c-0.87,0 -1.3,0.29 -1.3,0.86c0,0.34 0.41,0.72 1.24,1.14l0.19,0.09c0.65,0.33 1.11,0.63 1.39,0.91c0.42,0.41 0.62,0.9 0.62,1.48c0,0.78 -0.31,1.4 -0.92,1.85c-0.55,0.4 -1.23,0.6 -2.05,0.6c-0.37,0 -0.98,-0.13 -1.84,-0.39c-0.07,-0.02 -0.14,-0.05 -0.21,-0.07l0.14,-1.33c0.81,0.4 1.45,0.59 1.91,0.59c0.36,0 0.67,-0.08 0.92,-0.24c0.31,-0.19 0.46,-0.45 0.46,-0.78c0,-0.38 -0.41,-0.8 -1.24,-1.25l-0.13,-0.07c-0.02,-0.01 -0.07,-0.03 -0.16,-0.08c-0.61,-0.32 -1.04,-0.62 -1.3,-0.9c-0.36,-0.39 -0.55,-0.86 -0.55,-1.41c0,-0.73 0.3,-1.3 0.91,-1.7c0.52,-0.34 1.16,-0.51 1.94,-0.51c0.34,0 0.83,0.09 1.47,0.27l0.35,0.11z" class="st2"/>
   <polygon id="svg_6" points="26.82000732421875,21.04999542236328 32.47999572753906,21.04999542236328 32.47999572753906,22.25 30.410003662109375,22.25 30.410003662109375,28.81999969482422 28.8699951171875,28.81999969482422 28.8699951171875,22.25 26.82000732421875,22.25 " class="st2"/>
   <path id="svg_7" d="m36.780001,20.879997c1.19,0 2.11,0.38 2.76,1.15c0.62,0.72 0.92,1.69 0.92,2.9c0,1.22 -0.31,2.19 -0.92,2.9c-0.65,0.76 -1.57,1.14 -2.77,1.14c-1.19,0 -2.11,-0.38 -2.76,-1.15c-0.61,-0.72 -0.91,-1.68 -0.91,-2.9c0,-1.21 0.3,-2.18 0.91,-2.9c0.66,-0.75 1.58,-1.14 2.77,-1.14zm0,1.16c-0.71,0 -1.26,0.32 -1.64,0.95c-0.32,0.52 -0.48,1.16 -0.48,1.93c0,0.77 0.16,1.42 0.47,1.94c0.38,0.63 0.93,0.95 1.65,0.95s1.27,-0.32 1.65,-0.95c0.32,-0.53 0.48,-1.18 0.48,-1.94c0,-0.77 -0.16,-1.41 -0.48,-1.94c-0.38,-0.63 -0.93,-0.94 -1.65,-0.94z" class="st2"/>
   <path id="svg_8" d="m41.860001,21.049997l2.31,0c1.98,0 2.97,0.81 2.97,2.42c0,0.82 -0.29,1.44 -0.87,1.85c-0.51,0.36 -1.19,0.55 -2.04,0.55l-0.83,0l0,2.96l-1.53,0l0,-7.78l-0.01,0zm1.54,1.1l0,2.62l0.63,0c1.03,0 1.55,-0.43 1.55,-1.3c0,-0.88 -0.49,-1.32 -1.46,-1.32l-0.72,0z" class="st2"/>
  </g>
 </g>
</svg>