<svg width="72" height="72" xmlns="http://www.w3.org/2000/svg">
 <style type="text/css">.st0{fill:#B2B7B5;}
	.st1{fill-rule:evenodd;clip-rule:evenodd;fill:#FFFFFF;}
	.st2{fill:#FFFFFF;}
	.st3{fill-rule:evenodd;clip-rule:evenodd;fill:#ACB2B0;}
	.st4{display:none;fill:#ACB2B0;}</style>

 <g>
  <title>background</title>
  <rect fill="none" id="canvas_background" height="74" width="74" y="-1" x="-1"/>
 </g>
 <g>
  <title>Layer 1</title>
  <g id="svg_1">
   <g id="svg_2">
    <path id="svg_3" d="m69.119999,2.999997l0,65.53l-66.12,0l0,-65.53l66.12,0m2,-2l-70.12,0l0,69.53l70.12,0l0,-69.53l0,0z" class="st0"/>
   </g>
   <g id="svg_4">
    <polygon id="svg_5" points="28.709991455078125,42.699981689453125 28.709991455078125,28.839996337890625 42.69000244140625,35.78999328613281 " class="st1"/>
    <rect id="svg_6" height="13.86" width="1.42" class="st2" y="28.839997" x="41.979999"/>
   </g>
   <polygon id="svg_7" points="5.129997253417969,61.410003662109375 8.879997253417969,59.839996337890625 9.220001220703125,60.62001037597656 7.849998474121094,61.19999694824219 9.699996948242188,65.51998901367188 8.680000305175781,65.94000244140625 6.8300018310546875,61.62998962402344 5.470001220703125,62.19999694824219 " class="st3"/>
   <path id="svg_8" d="m10.699999,59.069997l1.22,-0.52l4.18,4.27l-1.09,0.46l-0.94,-1.03l-2.24,0.94l0.07,1.4l-1.01,0.43l-0.19,-5.95zm0.96,0.61l0.12,2.65l1.69,-0.71l-1.81,-1.94z" class="st3"/>
   <path id="svg_9" d="m14.359999,57.529997l1.71,-0.72c1.21,-0.51 2,-0.32 2.37,0.56c0.25,0.58 0.09,1.09 -0.48,1.53c0.8,-0.16 1.34,0.1 1.63,0.77c0.4,0.95 -0.06,1.7 -1.38,2.26l-1.67,0.7l-2.18,-5.1zm1.31,0.3l0.6,1.4l0.48,-0.2c0.68,-0.29 0.92,-0.66 0.72,-1.13c-0.2,-0.47 -0.62,-0.57 -1.26,-0.3l-0.54,0.23zm0.91,2.12l0.65,1.52l0.54,-0.23c0.72,-0.3 0.97,-0.71 0.75,-1.23c-0.21,-0.5 -0.66,-0.61 -1.33,-0.33l-0.61,0.27z" class="st3"/>
   <path id="svg_10" d="m6.619999,70.529997l-0.15,0c-3.02,0 -5.48,-2.44 -5.48,-5.44l0,-58.65c0,-3 2.46,-5.44 5.48,-5.44l58.98,0c1.92,0 4.04,1.08 5.04,2.57c0.67,1 0.81,2.12 0.38,3.15l-16.41,39.88c-1.05,2.56 -4.91,6.39 -7.5,7.45l-40.34,16.48zm-0.14,-68.03c-2.19,0 -3.98,1.77 -3.98,3.94l0,58.65c0,2.13 1.71,3.87 3.84,3.94l40.06,-16.36c2.22,-0.91 5.78,-4.44 6.68,-6.63l16.41,-39.88c0.23,-0.57 0.15,-1.16 -0.24,-1.75c-0.73,-1.09 -2.36,-1.91 -3.79,-1.91l-58.98,0z" class="st4"/>
  </g>
 </g>
</svg>