  <svg
    viewBox="0 0 415 415"
    width="415"
    height="415"
  >
    <g fill="currentColor">
      <path d="m383.29978,264.11786c-17.37,0 -103.56,0 -258.59,0c-3.87,8.3 -34.87,74.65 -38.74,82.95c50.68,39.05 103.81,52.52 159.39,40.42c83.37,-18.16 122.47,-76.99 137.94,-123.37z" />
      <path d="m387.50978,246.26786c2.82,-12.7 4.31,-25.78 4.31,-39.24c0.2,-94.53 -71.4,-172.23 -163.42,-182.69c-12.72,29.59 -44.52,103.57 -95.4,221.93c152.7,0 237.54,0 254.51,0z" />
      <path d="m74.52978,334.25786c13.37,-31.1 120.27,-279.94 133.64,-311.04c-0.2,0 -0.39,0 -0.58,0c-101.77,0 -184.41,82.2 -184.41,183.81c0,49.32 19.68,94.16 51.35,127.23z" />
    </g>
  </svg>
