<svg
version="1.1"
xmlns="http://www.w3.org/2000/svg"
xmlns:xlink="http://www.w3.org/1999/xlink"
preserveAspectRatio="xMidYMid meet"
viewBox="0 0 512 512" width="512" height="512"
><g>
  <path d="M431.8 312.58C414.43 312.58 328.24 312.58 173.21 312.58C169.34 320.88 138.34 387.23 134.47 395.53C185.15 434.58 238.28 448.05 293.86 435.95C377.23 417.79 416.33 358.96 431.8 312.58Z" id="aU3pK5juD"></path>
  <path d="M436.01 294.73C438.83 282.03 440.32 268.95 440.32 255.49C440.52 160.96 368.92 83.26 276.9 72.8C264.18 102.39 232.38 176.37 181.5 294.73C334.2 294.73 419.04 294.73 436.01 294.73Z" id="a8EEkN5ZZ"></path>
  <path d="M123.03 382.72C136.4 351.62 243.3 102.78 256.67 71.68C256.47 71.68 256.28 71.68 256.09 71.68C154.32 71.68 71.68 153.88 71.68 255.49C71.68 304.81 91.36 349.65 123.03 382.72Z" id="bw93AeuYr"></path>
</g>
</svg>
