<?xml version="1.0" standalone="no"?>
<!DOCTYPE svg PUBLIC "-//W3C//DTD SVG 20010904//EN"
 "http://www.w3.org/TR/2001/REC-SVG-20010904/DTD/svg10.dtd">
<svg version="1.0" xmlns="http://www.w3.org/2000/svg"
 width="700.000000pt" height="700.000000pt" viewBox="0 0 700.000000 700.000000"
 preserveAspectRatio="xMidYMid meet">
<metadata>
Created by potrace 1.14, written by Peter Selinger 2001-2017
</metadata>
<g transform="translate(0.000000,700.000000) scale(0.100000,-0.100000)"
fill="#000000" stroke="none">
<path d="M3317 6604 c-1 -1 -42 -5 -92 -9 -101 -8 -125 -11 -175 -19 -19 -4
-48 -8 -65 -11 -42 -6 -83 -14 -135 -25 -25 -6 -54 -12 -65 -14 -30 -6 -106
-26 -135 -35 -14 -5 -52 -17 -85 -26 -100 -29 -333 -124 -458 -186 -422 -212
-773 -501 -1078 -889 -149 -191 -310 -472 -412 -720 -33 -81 -122 -348 -131
-393 -3 -12 -12 -56 -21 -97 -9 -41 -18 -82 -20 -91 -4 -18 -11 -65 -21 -126
-3 -21 -7 -48 -9 -61 -20 -119 -27 -525 -12 -672 47 -463 178 -875 398 -1257
95 -165 270 -412 354 -499 11 -11 38 -41 61 -67 l41 -46 168 392 c92 216 179
417 192 447 14 30 33 75 43 100 10 25 29 70 43 100 14 30 78 179 142 330 65
151 125 293 135 315 10 22 134 310 275 640 142 330 267 620 278 645 11 25 21
47 21 50 1 5 373 872 406 945 31 71 530 1234 540 1260 l10 25 -96 -2 c-53 -2
-96 -4 -97 -4z"/>
<path d="M3785 6432 c-37 -86 -76 -175 -85 -197 -10 -22 -64 -148 -120 -280
-57 -132 -115 -268 -131 -303 -16 -35 -29 -69 -29 -76 0 -6 -4 -16 -9 -21 -5
-6 -25 -50 -46 -100 -21 -49 -48 -112 -60 -140 -12 -27 -62 -142 -110 -255
-48 -113 -98 -228 -111 -257 -13 -28 -24 -54 -24 -57 0 -3 -11 -29 -24 -58
-13 -29 -65 -150 -116 -268 -89 -207 -117 -271 -145 -335 -97 -223 -525 -1226
-525 -1232 0 -6 4211 -10 4276 -4 16 1 54 210 71 386 4 44 8 168 8 275 -1 220
-9 335 -36 500 -6 36 -13 74 -15 85 -15 95 -62 271 -109 411 -92 273 -245 570
-423 818 -288 399 -742 779 -1173 979 -204 94 -430 176 -589 212 -95 22 -203
45 -234 49 -21 4 -48 8 -60 11 -12 3 -42 7 -67 9 l-47 5 -67 -157z"/>
<path d="M2110 2538 c-10 -4 -21 -17 -25 -29 -4 -12 -32 -74 -62 -138 -30 -64
-68 -143 -83 -176 -15 -33 -60 -129 -99 -214 -40 -84 -87 -186 -105 -225 -99
-212 -202 -432 -240 -511 -24 -49 -41 -94 -39 -100 6 -12 60 -53 216 -159 496
-337 1025 -536 1547 -583 155 -14 612 -5 640 12 3 2 30 6 60 10 30 4 57 8 60
10 3 2 28 6 55 9 77 10 323 73 443 112 236 79 462 180 636 285 48 30 96 59
105 64 124 74 334 245 482 394 324 326 555 688 725 1136 19 50 34 95 34 100 0
11 -4319 15 -4350 3z"/>
</g>
</svg>
