<svg width="45" height="42.6" xmlns="http://www.w3.org/2000/svg">
 <style type="text/css">.st0{fill:#B2B7B5;}
	.st1{fill:#3F3939;}</style>

 <g>
  <title>background</title>
  <rect fill="none" id="canvas_background" height="44.6" width="47" y="-1" x="-1"/>
 </g>
 <g>
  <title>Layer 1</title>
  <path stroke="null" d="m32.08,0l-18.82,0c-7.32,0 -13.26,5.25 -13.26,11.73l0,30.79l32.05,0c7.34,0 13.3,-5.27 13.3,-11.77l0,-19.01l0,-11.74l-13.27,0z" class="st0" id="XMLID_310_"/>
  <g id="svg_1">
   <path id="svg_2" d="m19.449999,12.042963c0.77,-0.31 1.55,-0.7 2.33,-1.18c0.78,-0.48 1.47,-1.05 2.07,-1.7l1.7,0l0,13.86l-2.42,0l0,-10.62c-0.36,0.28 -0.81,0.55 -1.36,0.82s-1.07,0.49 -1.58,0.66l-0.74,-1.84z" class="st1"/>
  </g>
 </g>
</svg>