<svg width="45" height="42.6" xmlns="http://www.w3.org/2000/svg">
 <style type="text/css">.st0{fill:#B2B7B5;}
	.st1{fill:#3F3939;}</style>

 <g>
  <title>background</title>
  <rect fill="none" id="canvas_background" height="44.6" width="47" y="-1" x="-1"/>
 </g>
 <g>
  <title>Layer 1</title>
  <path d="m32.31,0.23l-18.82,0c-7.32,0 -13.26,5.25 -13.26,11.73l0,30.79l32.05,0c7.34,0 13.3,-5.27 13.3,-11.77l0,-19.01l0,-11.74l-13.27,0z" class="st0" id="XMLID_301_"/>
  <g id="svg_1">
   <path id="svg_2" d="m19.83,25.23c0.08,-1.01 0.26,-2.08 0.54,-3.2c0.28,-1.12 0.62,-2.21 1.03,-3.27c0.41,-1.06 0.85,-2.05 1.34,-2.98c0.49,-0.93 0.97,-1.7 1.45,-2.33l-6.38,0l0,-2.08l9.26,0l0,1.84c-0.44,0.49 -0.92,1.17 -1.44,2.02c-0.52,0.85 -1.01,1.82 -1.48,2.89c-0.47,1.07 -0.87,2.22 -1.21,3.45c-0.34,1.23 -0.55,2.45 -0.63,3.66l-2.48,0z" class="st1"/>
  </g>
  <g id="svg_3">
   <path id="svg_4" d="m18.28,33.75c0,0.4 -0.05,0.77 -0.16,1.1s-0.25,0.62 -0.45,0.86c-0.19,0.24 -0.43,0.43 -0.72,0.56c-0.29,0.13 -0.62,0.2 -0.99,0.2c-0.25,0 -0.47,-0.03 -0.68,-0.09c-0.21,-0.06 -0.38,-0.13 -0.51,-0.2l0,2.03l-1.21,0l0,-6.91c0.25,-0.07 0.55,-0.13 0.91,-0.19c0.36,-0.06 0.74,-0.09 1.14,-0.09c0.41,0 0.78,0.06 1.11,0.19c0.33,0.13 0.61,0.31 0.83,0.54c0.23,0.24 0.41,0.52 0.53,0.86c0.13,0.34 0.2,0.72 0.2,1.14zm-1.24,0.02c0,-0.54 -0.12,-0.96 -0.37,-1.26s-0.63,-0.45 -1.17,-0.45c-0.11,0 -0.23,0 -0.36,0.01c-0.12,0.01 -0.25,0.03 -0.36,0.07l0,2.99c0.11,0.07 0.25,0.14 0.42,0.21s0.36,0.09 0.56,0.09c0.44,0 0.76,-0.15 0.96,-0.45c0.22,-0.3 0.32,-0.71 0.32,-1.21z" class="st1"/>
   <path id="svg_5" d="m19.24,33.75c0,-0.41 0.06,-0.79 0.18,-1.12c0.12,-0.34 0.3,-0.62 0.53,-0.86c0.23,-0.24 0.51,-0.42 0.83,-0.55c0.33,-0.13 0.7,-0.2 1.11,-0.2c0.41,0 0.8,0.03 1.16,0.09c0.36,0.06 0.66,0.12 0.89,0.19l0,6.91l-1.21,0l0,-2.03c-0.14,0.07 -0.31,0.14 -0.52,0.2c-0.2,0.06 -0.43,0.09 -0.67,0.09c-0.37,0 -0.7,-0.07 -0.99,-0.2c-0.29,-0.13 -0.53,-0.31 -0.72,-0.55s-0.34,-0.53 -0.45,-0.86c-0.09,-0.34 -0.14,-0.71 -0.14,-1.11zm1.24,0.02c0,0.51 0.1,0.91 0.31,1.21c0.2,0.3 0.52,0.45 0.96,0.45c0.2,0 0.39,-0.03 0.56,-0.09s0.32,-0.13 0.43,-0.21l0,-2.99c-0.09,-0.02 -0.2,-0.04 -0.33,-0.05s-0.3,-0.03 -0.5,-0.03c-0.45,0 -0.8,0.15 -1.05,0.46c-0.26,0.29 -0.38,0.71 -0.38,1.25z" class="st1"/>
   <path id="svg_6" d="m28.47,32.22c-0.1,-0.03 -0.24,-0.07 -0.42,-0.11c-0.18,-0.04 -0.38,-0.05 -0.62,-0.05c-0.13,0 -0.27,0.01 -0.42,0.04s-0.25,0.05 -0.31,0.07l0,4.19l-1.21,0l0,-4.98c0.23,-0.09 0.53,-0.17 0.88,-0.25c0.35,-0.08 0.74,-0.12 1.17,-0.12c0.08,0 0.17,0 0.28,0.01c0.11,0.01 0.21,0.02 0.32,0.04c0.11,0.02 0.21,0.04 0.31,0.06c0.1,0.02 0.18,0.04 0.24,0.06l-0.22,1.04z" class="st1"/>
   <path id="svg_7" d="m30.83,35.49c0.32,0 0.55,-0.04 0.7,-0.11c0.15,-0.08 0.22,-0.21 0.22,-0.4c0,-0.17 -0.08,-0.32 -0.24,-0.43c-0.16,-0.11 -0.42,-0.24 -0.77,-0.37c-0.22,-0.08 -0.42,-0.17 -0.61,-0.25s-0.34,-0.2 -0.47,-0.32c-0.13,-0.12 -0.24,-0.26 -0.32,-0.43c-0.08,-0.17 -0.11,-0.38 -0.11,-0.62c0,-0.48 0.18,-0.86 0.53,-1.13c0.35,-0.28 0.83,-0.42 1.44,-0.42c0.31,0 0.6,0.03 0.88,0.08s0.49,0.11 0.63,0.17l-0.22,0.98c-0.13,-0.06 -0.3,-0.12 -0.51,-0.17c-0.21,-0.05 -0.45,-0.08 -0.72,-0.08c-0.25,0 -0.45,0.04 -0.6,0.12c-0.15,0.08 -0.23,0.21 -0.23,0.39c0,0.09 0.02,0.16 0.04,0.23c0.03,0.07 0.08,0.13 0.16,0.19s0.17,0.11 0.29,0.17s0.27,0.11 0.44,0.17c0.29,0.11 0.53,0.21 0.73,0.31c0.2,0.1 0.37,0.22 0.5,0.35s0.22,0.28 0.29,0.44c0.06,0.17 0.09,0.37 0.09,0.6c0,0.5 -0.18,0.88 -0.55,1.13s-0.9,0.38 -1.58,0.38c-0.46,0 -0.83,-0.04 -1.11,-0.11c-0.28,-0.08 -0.48,-0.14 -0.59,-0.19l0.21,-1.01c0.18,0.07 0.39,0.14 0.64,0.21s0.52,0.12 0.84,0.12z" class="st1"/>
  </g>
 </g>
</svg>