<svg width="45" height="42.6" xmlns="http://www.w3.org/2000/svg">
 <style type="text/css">.st0{fill:#B2B7B5;}
	.st1{fill:#3F3939;}</style>

 <g>
  <title>background</title>
  <rect fill="none" id="canvas_background" height="44.6" width="47" y="-1" x="-1"/>
 </g>
 <g>
  <title>Layer 1</title>
  <path d="m32.35,0.23l-18.82,0c-7.32,0 -13.26,5.25 -13.26,11.73l0,30.79l32.05,0c7.34,0 13.3,-5.27 13.3,-11.77l0,-19.01l0,-11.74l-13.27,0z" class="st0" id="XMLID_299_"/>
  <g id="svg_1">
   <path id="svg_2" d="m24.91,17.51c-0.32,0.15 -0.67,0.26 -1.06,0.34s-0.76,0.12 -1.12,0.12c-0.83,0 -1.53,-0.11 -2.11,-0.33s-1.05,-0.53 -1.42,-0.92c-0.37,-0.39 -0.64,-0.85 -0.81,-1.37c-0.17,-0.52 -0.26,-1.08 -0.26,-1.68c0,-0.52 0.09,-1.05 0.26,-1.59c0.17,-0.54 0.45,-1.04 0.82,-1.49c0.37,-0.45 0.85,-0.82 1.42,-1.11c0.57,-0.29 1.25,-0.43 2.04,-0.43c1.63,0 2.86,0.52 3.69,1.57s1.25,2.52 1.25,4.43c0,2.69 -0.69,4.73 -2.08,6.12s-3.51,2.09 -6.38,2.1l-0.1,-2.02c0.8,0 1.52,-0.07 2.17,-0.2c0.65,-0.13 1.21,-0.35 1.7,-0.64c0.49,-0.29 0.9,-0.68 1.23,-1.15s0.58,-1.05 0.76,-1.75zm-1.9,-1.46c0.39,0 0.77,-0.04 1.14,-0.11s0.69,-0.18 0.96,-0.33c0.01,-0.15 0.02,-0.27 0.02,-0.38c0,-0.11 0,-0.2 0,-0.28c0,-0.53 -0.04,-1.04 -0.11,-1.51c-0.07,-0.47 -0.2,-0.89 -0.38,-1.24c-0.18,-0.35 -0.43,-0.63 -0.74,-0.84c-0.31,-0.21 -0.7,-0.31 -1.17,-0.31c-0.39,0 -0.72,0.08 -0.99,0.24s-0.5,0.37 -0.67,0.62c-0.17,0.25 -0.3,0.53 -0.38,0.82c-0.08,0.29 -0.12,0.58 -0.12,0.86c0,0.81 0.2,1.43 0.59,1.84s1.01,0.62 1.85,0.62z" class="st1"/>
  </g>
  <g id="svg_3">
   <path id="svg_4" d="m15.08,31.12c-0.15,0.59 -0.32,1.16 -0.49,1.71c-0.18,0.56 -0.35,1.08 -0.52,1.58l-0.99,0c-0.13,-0.31 -0.27,-0.66 -0.42,-1.05c-0.15,-0.39 -0.29,-0.81 -0.44,-1.26c-0.15,-0.45 -0.29,-0.92 -0.44,-1.41s-0.29,-1 -0.43,-1.51l1.28,0c0.06,0.28 0.13,0.58 0.21,0.9c0.08,0.32 0.16,0.65 0.25,0.99c0.09,0.34 0.18,0.67 0.27,0.99s0.19,0.61 0.28,0.88c0.1,-0.31 0.2,-0.62 0.29,-0.95c0.1,-0.33 0.19,-0.65 0.28,-0.98c0.09,-0.33 0.17,-0.65 0.25,-0.96c0.08,-0.31 0.15,-0.6 0.21,-0.88l0.93,0c0.06,0.27 0.13,0.56 0.2,0.88c0.07,0.31 0.15,0.63 0.23,0.96c0.08,0.33 0.17,0.65 0.27,0.98c0.1,0.33 0.19,0.64 0.29,0.95c0.09,-0.27 0.18,-0.56 0.27,-0.88s0.19,-0.65 0.28,-0.99c0.09,-0.34 0.18,-0.67 0.26,-0.99c0.08,-0.32 0.15,-0.62 0.21,-0.9l1.25,0c-0.14,0.51 -0.28,1.02 -0.43,1.51s-0.29,0.96 -0.44,1.41c-0.15,0.45 -0.29,0.87 -0.44,1.26c-0.15,0.39 -0.29,0.74 -0.43,1.05l-0.98,0c-0.17,-0.49 -0.35,-1.02 -0.53,-1.58c-0.2,-0.55 -0.37,-1.13 -0.53,-1.71z" class="st1"/>
   <path id="svg_5" d="m21.76,30.78l1.11,-1.6l1.27,0l-1.76,2.5c0.37,0.46 0.72,0.93 1.06,1.4c0.34,0.47 0.61,0.91 0.83,1.33l-1.32,0c-0.06,-0.12 -0.14,-0.26 -0.24,-0.4c-0.1,-0.15 -0.2,-0.3 -0.31,-0.46c-0.11,-0.16 -0.22,-0.32 -0.34,-0.47s-0.23,-0.3 -0.35,-0.44c-0.23,0.27 -0.46,0.57 -0.69,0.9s-0.41,0.62 -0.56,0.87l-1.23,0c0.1,-0.2 0.22,-0.41 0.36,-0.63c0.14,-0.22 0.3,-0.45 0.46,-0.68c0.16,-0.23 0.33,-0.46 0.51,-0.7c0.17,-0.23 0.35,-0.45 0.52,-0.66l-1.78,-2.56l1.33,0l1.13,1.6z" class="st1"/>
   <path id="svg_6" d="m29.44,29.18c-0.54,1.99 -1.17,3.79 -1.88,5.4c-0.13,0.3 -0.27,0.56 -0.41,0.77c-0.14,0.21 -0.3,0.39 -0.47,0.53c-0.17,0.14 -0.37,0.24 -0.58,0.3c-0.21,0.06 -0.46,0.09 -0.74,0.09c-0.19,0 -0.37,-0.02 -0.56,-0.06s-0.32,-0.08 -0.42,-0.13l0.22,-0.97c0.24,0.09 0.48,0.14 0.71,0.14c0.32,0 0.56,-0.08 0.74,-0.23c0.18,-0.15 0.33,-0.38 0.47,-0.69c-0.38,-0.73 -0.75,-1.53 -1.1,-2.4s-0.67,-1.79 -0.94,-2.76l1.29,0c0.07,0.28 0.15,0.58 0.25,0.91c0.1,0.33 0.2,0.66 0.32,0.99c0.11,0.34 0.23,0.67 0.36,1.01c0.13,0.33 0.25,0.64 0.38,0.93c0.21,-0.59 0.41,-1.23 0.6,-1.9s0.36,-1.32 0.51,-1.94l1.25,0l0,0.01z" class="st1"/>
   <path id="svg_7" d="m34.02,30.03c-0.13,0.14 -0.31,0.34 -0.52,0.59c-0.22,0.25 -0.45,0.54 -0.7,0.85c-0.25,0.31 -0.5,0.63 -0.75,0.97s-0.47,0.66 -0.67,0.96l2.7,0l0,1.01l-4.16,0l0,-0.75c0.15,-0.27 0.33,-0.56 0.55,-0.87c0.22,-0.31 0.45,-0.63 0.68,-0.94s0.47,-0.62 0.7,-0.91c0.23,-0.29 0.44,-0.54 0.62,-0.75l-2.41,0l0,-1.01l3.97,0l0,0.85l-0.01,0z" class="st1"/>
  </g>
 </g>
</svg>