<svg width="69" height="55" xmlns="http://www.w3.org/2000/svg">
 <style type="text/css">.st0{fill:#B2B7B5;}
	.st1{fill:#3F3939;}</style>

 <g>
  <title>background</title>
  <rect fill="none" id="canvas_background" height="57" width="71" y="-1" x="-1"/>
 </g>
 <g>
  <title>Layer 1</title>
  <path d="m68.32,20.38l0,14.33c0,11.02 -8.93,19.95 -19.95,19.95l-48.08,0l0,-34.3c0,-10.98 8.91,-19.89 19.89,-19.89l28.23,0l19.91,0l0,19.91z" class="st0" id="XMLID_317_"/>
  <g id="svg_1">
   <path id="svg_2" d="m23.82,35.58l0,-15.25l9.64,0l0,2.35l-6.86,0l0,3.89l6.09,0l0,2.35l-6.09,0l0,6.64l-2.78,0l0,0.02z" class="st1"/>
   <path id="svg_3" d="m44.7,24.29c0,0.53 -0.11,1.04 -0.33,1.55s-0.5,1 -0.85,1.47c-0.34,0.48 -0.74,0.94 -1.18,1.39c-0.44,0.45 -0.88,0.88 -1.32,1.31c-0.24,0.22 -0.5,0.48 -0.79,0.79c-0.29,0.31 -0.57,0.62 -0.84,0.92c-0.26,0.31 -0.49,0.61 -0.68,0.89s-0.29,0.52 -0.31,0.71l6.78,0l0,2.24l-9.7,0c-0.01,-0.12 -0.02,-0.26 -0.02,-0.43c0,-0.17 0,-0.3 0,-0.38c0,-0.7 0.11,-1.35 0.34,-1.95c0.23,-0.59 0.52,-1.15 0.89,-1.66c0.37,-0.51 0.78,-1 1.23,-1.45c0.46,-0.46 0.91,-0.9 1.36,-1.34c0.35,-0.34 0.69,-0.67 1.01,-0.99c0.32,-0.32 0.61,-0.64 0.85,-0.96s0.44,-0.64 0.58,-0.97c0.15,-0.33 0.22,-0.67 0.22,-1.02c0,-0.76 -0.22,-1.3 -0.66,-1.63c-0.44,-0.32 -0.98,-0.48 -1.61,-0.48c-0.41,0 -0.79,0.06 -1.14,0.18c-0.35,0.12 -0.66,0.26 -0.93,0.42c-0.27,0.16 -0.51,0.33 -0.71,0.5c-0.21,0.17 -0.36,0.3 -0.46,0.41l-1.32,-1.87c0.62,-0.59 1.34,-1.06 2.17,-1.42c0.83,-0.36 1.72,-0.54 2.67,-0.54c1.63,0 2.83,0.39 3.6,1.16c0.76,0.77 1.15,1.82 1.15,3.15z" class="st1"/>
  </g>
 </g>
</svg>