<svg width="69" height="55" xmlns="http://www.w3.org/2000/svg">
 <style type="text/css">.st0{fill:#B2B7B5;}
	.st1{fill:#3F3939;}</style>

 <g>
  <title>background</title>
  <rect fill="none" id="canvas_background" height="57" width="71" y="-1" x="-1"/>
 </g>
 <g>
  <title>Layer 1</title>
  <path d="m68.32,20.38l0,14.33c0,11.02 -8.93,19.95 -19.95,19.95l-48.08,0l0,-34.3c0,-10.98 8.91,-19.89 19.89,-19.89l28.23,0l19.91,0l0,19.91z" class="st0" id="XMLID_316_"/>
  <g id="svg_1">
   <path id="svg_2" d="m23.82,35.41l0,-15.25l9.64,0l0,2.35l-6.86,0l0,3.89l6.09,0l0,2.35l-6.09,0l0,6.64l-2.78,0l0,0.02z" class="st1"/>
   <path id="svg_3" d="m39.31,35.74c-0.4,0 -0.8,-0.03 -1.22,-0.08c-0.42,-0.05 -0.81,-0.12 -1.19,-0.2s-0.71,-0.17 -1.02,-0.26c-0.31,-0.1 -0.54,-0.19 -0.7,-0.28l0.53,-2.27c0.31,0.15 0.75,0.31 1.34,0.5s1.31,0.27 2.18,0.27c1.16,0 2,-0.22 2.51,-0.67c0.51,-0.45 0.77,-1.04 0.77,-1.79c0,-0.48 -0.1,-0.89 -0.3,-1.21c-0.2,-0.32 -0.47,-0.58 -0.81,-0.78c-0.35,-0.2 -0.74,-0.34 -1.19,-0.42c-0.45,-0.08 -0.92,-0.12 -1.42,-0.12l-0.9,0l0,-2.16l1.1,0c0.34,0 0.68,-0.03 1.02,-0.1c0.34,-0.07 0.66,-0.18 0.94,-0.35c0.28,-0.17 0.51,-0.39 0.68,-0.67s0.26,-0.64 0.26,-1.08c0,-0.35 -0.07,-0.65 -0.2,-0.9c-0.13,-0.25 -0.3,-0.45 -0.52,-0.62c-0.21,-0.16 -0.46,-0.28 -0.74,-0.35c-0.28,-0.07 -0.57,-0.11 -0.88,-0.11c-0.66,0 -1.25,0.1 -1.76,0.3c-0.51,0.2 -0.97,0.42 -1.36,0.67l-0.97,-1.98c0.21,-0.13 0.46,-0.27 0.75,-0.42s0.62,-0.29 0.98,-0.42c0.36,-0.13 0.74,-0.24 1.15,-0.32c0.41,-0.08 0.84,-0.12 1.3,-0.12c0.85,0 1.58,0.1 2.2,0.31c0.62,0.21 1.13,0.5 1.53,0.87s0.7,0.81 0.9,1.32c0.2,0.51 0.3,1.06 0.3,1.66c0,0.7 -0.19,1.33 -0.58,1.89s-0.89,0.98 -1.51,1.28c0.79,0.28 1.45,0.74 1.97,1.39c0.52,0.65 0.78,1.47 0.78,2.49c0,0.67 -0.12,1.3 -0.35,1.88c-0.23,0.58 -0.59,1.08 -1.08,1.5c-0.48,0.42 -1.1,0.75 -1.84,0.99s-1.63,0.36 -2.65,0.36z" class="st1"/>
  </g>
 </g>
</svg>