<svg width="69" height="55" xmlns="http://www.w3.org/2000/svg">
 <style type="text/css">.st0{fill:#B2B7B5;}
	.st1{fill:#3F3939;}</style>

 <g>
  <title>background</title>
  <rect fill="none" id="canvas_background" height="57" width="71" y="-1" x="-1"/>
 </g>
 <g>
  <title>Layer 1</title>
  <path d="m67.56,20.38l0,14.33c0,11.02 -8.93,19.95 -19.95,19.95l-48.08,0l0,-34.3c0,-10.98 8.91,-19.89 19.89,-19.89l28.23,0l19.91,0l0,19.91z" class="st0" id="XMLID_314_"/>
  <g id="svg_1">
   <path id="svg_2" d="m23.06,35.24l0,-15.25l9.63,0l0,2.35l-6.86,0l0,3.89l6.09,0l0,2.35l-6.09,0l0,6.64l-2.77,0l0,0.02z" class="st1"/>
   <path id="svg_3" d="m41.78,30.88c0,-0.48 -0.1,-0.92 -0.29,-1.3c-0.19,-0.38 -0.53,-0.7 -1,-0.97c-0.48,-0.26 -1.11,-0.46 -1.91,-0.59c-0.8,-0.13 -1.81,-0.2 -3.02,-0.2c0.16,-1.41 0.29,-2.75 0.37,-4.02c0.09,-1.27 0.16,-2.54 0.22,-3.82l7.79,0l0,2.24l-5.52,0c-0.02,0.25 -0.03,0.53 -0.05,0.85s-0.04,0.63 -0.07,0.96c-0.02,0.32 -0.05,0.63 -0.08,0.92c-0.03,0.29 -0.06,0.54 -0.09,0.75c2.17,0.12 3.77,0.61 4.81,1.49c1.03,0.87 1.55,2.06 1.55,3.58c0,0.69 -0.12,1.33 -0.35,1.91c-0.24,0.59 -0.6,1.09 -1.08,1.52c-0.48,0.43 -1.09,0.76 -1.83,1c-0.73,0.24 -1.59,0.36 -2.57,0.36c-0.4,0 -0.8,-0.03 -1.21,-0.09c-0.41,-0.06 -0.8,-0.13 -1.18,-0.21c-0.38,-0.08 -0.71,-0.17 -1,-0.25c-0.29,-0.09 -0.51,-0.17 -0.66,-0.24l0.51,-2.24c0.31,0.15 0.75,0.3 1.33,0.47c0.58,0.17 1.29,0.25 2.12,0.25c0.57,0 1.06,-0.06 1.47,-0.19c0.41,-0.12 0.74,-0.3 1,-0.52c0.26,-0.22 0.44,-0.47 0.56,-0.76s0.18,-0.58 0.18,-0.9z" class="st1"/>
  </g>
 </g>
</svg>