<svg width="72" height="57" xmlns="http://www.w3.org/2000/svg">
 <style type="text/css">.st0{fill:#3F3939;}
	.st1{fill:#ACB2B0;}
	.st2{fill:#B2B7B5;}
	.st3{fill:#0069B3;}
	.st4{fill:#E20613;}
	.st5{fill:#FFFFFF;}</style>

 <g>
  <title>background</title>
  <rect fill="none" id="canvas_background" height="59" width="74" y="-1" x="-1"/>
 </g>
 <g>
  <title>Layer 1</title>
  <g id="svg_1">
   <g id="svg_2">
    <path d="m71.370001,21.239999l0,14.93c0,11.48 -9.3,20.78 -20.78,20.78l-50.09,0l0,-35.73c0,-11.44 9.28,-20.72 20.72,-20.72l29.41,0l20.74,0l0,20.74z" class="st0" id="XMLID_24_"/>
    <path id="svg_3" d="m50.590001,57.449999l-50.59,0l0,-36.23c0,-11.7 9.52,-21.22 21.22,-21.22l50.65,0l0,36.17c0,11.73 -9.54,21.28 -21.28,21.28zm-49.58,-1l49.59,0c11.18,0 20.28,-9.1 20.28,-20.28l0,-35.17l-49.65,0c-11.15,0 -20.22,9.07 -20.22,20.22l0,35.23z" class="st1"/>
    <g id="svg_4">
     <path id="svg_5" d="m37.070001,33.179999l-3.91,0c-0.83,0 -1.5,-0.67 -1.5,-1.5s0.67,-1.5 1.5,-1.5l3.91,0c0.83,0 1.5,0.67 1.5,1.5s-0.67,1.5 -1.5,1.5z" class="st2"/>
     <path id="svg_6" d="m37.070001,27.699999l-3.91,0c-0.83,0 -1.5,-0.67 -1.5,-1.5s0.67,-1.5 1.5,-1.5l3.91,0c0.83,0 1.5,0.67 1.5,1.5s-0.67,1.5 -1.5,1.5z" class="st2"/>
     <path id="svg_7" d="m37.070001,22.219999l-3.91,0c-0.83,0 -1.5,-0.67 -1.5,-1.5s0.67,-1.5 1.5,-1.5l3.91,0c0.83,0 1.5,0.67 1.5,1.5s-0.67,1.5 -1.5,1.5z" class="st2"/>
     <path id="svg_8" d="m34.070001,16.379999l-3.91,0c-0.83,0 -1.5,-0.67 -1.5,-1.5s0.67,-1.5 1.5,-1.5l3.91,0c0.83,0 1.5,0.67 1.5,1.5s-0.68,1.5 -1.5,1.5z" class="st3"/>
     <path id="svg_9" d="m37.070001,10.899999l-3.91,0c-0.83,0 -1.5,-0.67 -1.5,-1.5s0.67,-1.5 1.5,-1.5l3.91,0c0.83,0 1.5,0.67 1.5,1.5s-0.67,1.5 -1.5,1.5z" class="st2"/>
     <path id="svg_10" d="m60.580001,33.179999l-19.57,0c-0.83,0 -1.5,-0.67 -1.5,-1.5s0.67,-1.5 1.5,-1.5l19.57,0c0.83,0 1.5,0.67 1.5,1.5s-0.68,1.5 -1.5,1.5z" class="st2"/>
     <path id="svg_11" d="m60.120001,27.699999l-19.58,0c-0.83,0 -1.5,-0.67 -1.5,-1.5s0.67,-1.5 1.5,-1.5l19.57,0c0.83,0 1.5,0.67 1.5,1.5s-0.67,1.5 -1.49,1.5z" class="st2"/>
     <path id="svg_12" d="m60.120001,22.219999l-19.58,0c-0.83,0 -1.5,-0.67 -1.5,-1.5s0.67,-1.5 1.5,-1.5l19.57,0c0.83,0 1.5,0.67 1.5,1.5s-0.67,1.5 -1.49,1.5z" class="st2"/>
     <path id="svg_13" d="m57.110001,16.379999l-19.57,0c-0.83,0 -1.5,-0.67 -1.5,-1.5s0.67,-1.5 1.5,-1.5l19.57,0c0.83,0 1.5,0.67 1.5,1.5s-0.67,1.5 -1.5,1.5z" class="st3"/>
     <path id="svg_14" d="m60.120001,10.899999l-19.58,0c-0.83,0 -1.5,-0.67 -1.5,-1.5s0.67,-1.5 1.5,-1.5l19.57,0c0.83,0 1.5,0.67 1.5,1.5s-0.67,1.5 -1.49,1.5z" class="st2"/>
    </g>
    <path d="m14.170001,29.919999l2.4,-0.87c1.72,0.72 3.28,1.1 4.67,1.13c0.48,-0.12 0.82,-0.22 1.03,-0.29c0.62,-0.22 1.24,-0.56 1.88,-1.01l0.71,0l0.59,-0.18c1.67,-0.61 2.32,-1.42 1.95,-2.44l-0.08,-0.23c0.6,-0.31 1.01,-0.65 1.23,-1.03c0.22,-0.38 0.24,-0.8 0.07,-1.26c-0.07,-0.2 -0.22,-0.42 -0.44,-0.64c0.44,-0.29 0.74,-0.6 0.89,-0.94c0.15,-0.33 0.16,-0.69 0.03,-1.06c-0.1,-0.27 -0.25,-0.49 -0.46,-0.64c-0.21,-0.15 -0.47,-0.25 -0.79,-0.3l0.4,-0.7l5.44,-2.05c1.29,-0.47 2.22,-0.95 2.78,-1.45c0.56,-0.49 0.88,-0.64 0.69,-1.14c-0.22,-0.59 -0.68,-0.89 -1.39,-0.9c-0.71,-0.01 -1.85,0.27 -3.41,0.84l-5.94,2.02l-1,-0.63l-5.14,1.48c-1.94,1.3 -3.61,2.6 -5.01,3.91l-3.6,1.31c-0.18,1.28 -0.2,2.99 0.24,4.22c0.41,1.07 1.35,1.96 2.26,2.85z" class="st0" id="XMLID_23_"/>
    <path id="svg_15" d="m21.310001,30.749999l-0.08,0c-1.4,-0.03 -2.98,-0.4 -4.67,-1.09l-2.53,0.92l-0.39,-0.38c-0.9,-0.88 -1.83,-1.79 -2.25,-2.94c-0.6,-1.66 -0.36,-3.86 -0.27,-4.49l0.05,-0.34l3.81,-1.39c1.4,-1.3 3.08,-2.6 5,-3.89l0.16,-0.07l5.38,-1.55l0.98,0.62l5.68,-1.93c1.64,-0.59 2.83,-0.9 3.61,-0.87c0.94,0.01 1.61,0.47 1.91,1.28c0.29,0.8 -0.19,1.2 -0.62,1.56l-0.23,0.2c-0.62,0.55 -1.59,1.06 -2.96,1.56l-5.11,1.92c0.07,0.04 0.14,0.09 0.21,0.13c0.3,0.22 0.52,0.53 0.66,0.91c0.19,0.51 0.17,1.01 -0.04,1.48c-0.13,0.28 -0.33,0.55 -0.61,0.8c0.07,0.12 0.13,0.23 0.17,0.35c0.22,0.62 0.18,1.22 -0.12,1.74c-0.22,0.38 -0.56,0.71 -1.03,1.01c0.24,0.92 -0.05,2.09 -2.36,2.94l-0.79,0.22l-0.53,0c-0.62,0.42 -1.25,0.75 -1.86,0.97c-0.22,0.08 -0.59,0.19 -1.09,0.31l-0.08,0.02zm-4.73,-2.31l0.2,0.09c1.61,0.68 3.09,1.04 4.39,1.08c0.41,-0.1 0.71,-0.19 0.9,-0.26c0.57,-0.21 1.16,-0.52 1.75,-0.94l0.15,-0.1l0.8,0l0.51,-0.16c1.95,-0.71 1.68,-1.43 1.58,-1.71l-0.25,-0.7l0.45,-0.23c0.5,-0.25 0.83,-0.52 0.99,-0.8c0.13,-0.23 0.14,-0.48 0.03,-0.79c-0.03,-0.09 -0.11,-0.23 -0.31,-0.44l-0.48,-0.49l0.57,-0.38c0.35,-0.23 0.58,-0.46 0.69,-0.7c0.09,-0.2 0.09,-0.4 0.01,-0.63c-0.06,-0.17 -0.15,-0.29 -0.27,-0.38c-0.13,-0.1 -0.31,-0.16 -0.53,-0.19l-0.83,-0.11l0.92,-1.61l5.63,-2.12c1.23,-0.45 2.1,-0.9 2.6,-1.34l0.26,-0.22c0.12,-0.11 0.28,-0.24 0.31,-0.29c-0.12,-0.27 -0.3,-0.54 -0.89,-0.55c-0.42,-0.01 -1.35,0.13 -3.21,0.8l-6.21,2.11l-1.01,-0.64l-4.81,1.38c-1.87,1.26 -3.51,2.54 -4.86,3.8l-0.19,0.12l-3.27,1.19c-0.12,1.13 -0.12,2.59 0.26,3.61c0.31,0.87 1.05,1.62 1.85,2.4l2.27,-0.8z" class="st4"/>
   </g>
   <g id="svg_16">
    <path id="svg_17" d="m10.120001,41.549999c0.16,0.28 0.34,0.62 0.54,1.02c0.2,0.4 0.4,0.83 0.6,1.27c0.21,0.44 0.41,0.89 0.61,1.35c0.2,0.46 0.39,0.88 0.56,1.27c0.17,-0.39 0.35,-0.81 0.55,-1.27c0.2,-0.46 0.4,-0.91 0.61,-1.35c0.21,-0.44 0.41,-0.87 0.6,-1.27c0.2,-0.4 0.38,-0.74 0.54,-1.02l1.25,0c0.07,0.56 0.13,1.15 0.19,1.78s0.11,1.27 0.16,1.92c0.05,0.66 0.09,1.32 0.13,1.98s0.08,1.31 0.11,1.94l-1.36,0c-0.03,-0.89 -0.07,-1.8 -0.11,-2.74c-0.04,-0.94 -0.1,-1.85 -0.18,-2.73c-0.08,0.17 -0.18,0.37 -0.29,0.6c-0.11,0.24 -0.23,0.49 -0.35,0.76c-0.12,0.28 -0.25,0.56 -0.38,0.85c-0.13,0.29 -0.25,0.58 -0.37,0.85s-0.23,0.53 -0.34,0.77s-0.19,0.44 -0.26,0.61l-1.03,0c-0.07,-0.17 -0.16,-0.37 -0.26,-0.62s-0.21,-0.5 -0.34,-0.78c-0.12,-0.28 -0.25,-0.56 -0.37,-0.85c-0.13,-0.29 -0.25,-0.58 -0.38,-0.85c-0.12,-0.27 -0.24,-0.53 -0.35,-0.76c-0.11,-0.24 -0.21,-0.44 -0.29,-0.6c-0.08,0.88 -0.14,1.79 -0.18,2.73c-0.04,0.94 -0.08,1.85 -0.11,2.74l-1.36,0c0.03,-0.63 0.07,-1.28 0.11,-1.96s0.09,-1.34 0.13,-2.01c0.05,-0.66 0.1,-1.31 0.16,-1.93c0.06,-0.62 0.12,-1.2 0.19,-1.73l1.27,0l0,0.03z" class="st5"/>
    <path id="svg_18" d="m23.250001,49.169999c-0.1,-0.3 -0.21,-0.6 -0.32,-0.89c-0.11,-0.29 -0.22,-0.59 -0.32,-0.9l-3.22,0c-0.1,0.31 -0.21,0.61 -0.31,0.91s-0.21,0.59 -0.31,0.89l-1.44,0c0.29,-0.81 0.56,-1.57 0.81,-2.25s0.51,-1.34 0.75,-1.96s0.49,-1.2 0.73,-1.76c0.24,-0.56 0.49,-1.11 0.75,-1.65l1.32,0c0.26,0.54 0.51,1.09 0.75,1.65c0.24,0.56 0.49,1.14 0.73,1.76c0.25,0.62 0.5,1.27 0.76,1.96c0.26,0.69 0.53,1.44 0.82,2.25l-1.5,0l0,-0.01zm-2.25,-6.15c-0.17,0.39 -0.36,0.86 -0.58,1.42c-0.22,0.56 -0.44,1.16 -0.68,1.82l2.51,0c-0.23,-0.65 -0.46,-1.26 -0.68,-1.83c-0.22,-0.57 -0.41,-1.04 -0.57,-1.41z" class="st5"/>
    <path id="svg_19" d="m30.840001,49.169999c-0.25,-0.42 -0.53,-0.87 -0.84,-1.35c-0.31,-0.48 -0.63,-0.96 -0.96,-1.45c-0.33,-0.49 -0.67,-0.96 -1.01,-1.42c-0.34,-0.46 -0.67,-0.87 -0.97,-1.24l0,5.46l-1.36,0l0,-7.62l1.13,0c0.29,0.31 0.61,0.67 0.95,1.09c0.34,0.42 0.68,0.86 1.02,1.31c0.34,0.46 0.67,0.91 0.99,1.37c0.32,0.46 0.6,0.89 0.85,1.28l0,-5.06l1.38,0l0,7.62l-1.18,0l0,0.01z" class="st5"/>
    <path id="svg_20" d="m39.790001,49.329999c-0.57,0 -1.08,-0.09 -1.54,-0.26c-0.46,-0.18 -0.84,-0.43 -1.16,-0.78c-0.32,-0.34 -0.56,-0.76 -0.73,-1.25s-0.25,-1.06 -0.25,-1.69c0,-0.64 0.1,-1.2 0.29,-1.69s0.46,-0.91 0.8,-1.25c0.34,-0.34 0.73,-0.6 1.19,-0.78c0.46,-0.18 0.94,-0.26 1.46,-0.26c0.31,0 0.6,0.02 0.86,0.07s0.48,0.1 0.67,0.16c0.19,0.06 0.35,0.12 0.47,0.19c0.12,0.07 0.21,0.11 0.26,0.14l-0.41,1.13c-0.18,-0.11 -0.43,-0.21 -0.75,-0.31c-0.33,-0.1 -0.68,-0.15 -1.06,-0.15c-0.33,0 -0.64,0.06 -0.92,0.17c-0.29,0.11 -0.53,0.28 -0.74,0.51s-0.37,0.51 -0.49,0.86s-0.18,0.75 -0.18,1.2c0,0.4 0.04,0.77 0.14,1.11c0.09,0.34 0.23,0.63 0.42,0.87c0.19,0.25 0.43,0.44 0.73,0.57c0.29,0.14 0.64,0.2 1.06,0.2c0.49,0 0.89,-0.05 1.2,-0.15c0.31,-0.1 0.55,-0.19 0.71,-0.28l0.37,1.13c-0.09,0.06 -0.21,0.12 -0.36,0.18c-0.15,0.06 -0.33,0.12 -0.53,0.17c-0.21,0.05 -0.44,0.1 -0.69,0.13s-0.52,0.06 -0.82,0.06z" class="st5"/>
    <path id="svg_21" d="m45.090001,41.549999c0.16,0.28 0.34,0.62 0.54,1.02s0.4,0.83 0.61,1.27c0.21,0.44 0.41,0.89 0.61,1.35c0.2,0.46 0.39,0.88 0.56,1.27c0.17,-0.39 0.35,-0.81 0.55,-1.27s0.4,-0.91 0.6,-1.35c0.21,-0.44 0.41,-0.87 0.61,-1.27s0.38,-0.74 0.54,-1.02l1.25,0c0.07,0.56 0.13,1.15 0.19,1.78c0.06,0.63 0.11,1.27 0.16,1.92c0.05,0.66 0.09,1.32 0.13,1.98s0.08,1.31 0.11,1.94l-1.36,0c-0.03,-0.89 -0.07,-1.8 -0.11,-2.74c-0.04,-0.94 -0.1,-1.85 -0.19,-2.73c-0.08,0.17 -0.18,0.37 -0.29,0.6c-0.11,0.24 -0.23,0.49 -0.35,0.76c-0.12,0.28 -0.25,0.56 -0.38,0.85c-0.13,0.29 -0.25,0.58 -0.37,0.85s-0.23,0.53 -0.33,0.77s-0.19,0.44 -0.26,0.61l-1.03,0c-0.07,-0.17 -0.16,-0.37 -0.26,-0.62s-0.21,-0.5 -0.33,-0.78c-0.12,-0.28 -0.25,-0.56 -0.37,-0.85c-0.13,-0.29 -0.25,-0.58 -0.38,-0.85c-0.12,-0.27 -0.24,-0.53 -0.35,-0.76c-0.11,-0.24 -0.21,-0.44 -0.29,-0.6c-0.08,0.88 -0.14,1.79 -0.19,2.73c-0.04,0.94 -0.08,1.85 -0.11,2.74l-1.36,0c0.03,-0.63 0.07,-1.28 0.11,-1.96s0.09,-1.34 0.13,-2.01c0.05,-0.66 0.1,-1.31 0.16,-1.93c0.06,-0.62 0.12,-1.2 0.19,-1.73l1.26,0l0,0.03z" class="st5"/>
    <path id="svg_22" d="m59.610001,45.349999c0,0.66 -0.1,1.23 -0.31,1.72c-0.21,0.49 -0.5,0.89 -0.87,1.22c-0.38,0.33 -0.83,0.57 -1.36,0.73c-0.53,0.16 -1.12,0.24 -1.77,0.24c-0.31,0 -0.66,-0.01 -1.04,-0.04c-0.39,-0.03 -0.76,-0.08 -1.11,-0.16l0,-7.4c0.35,-0.08 0.73,-0.13 1.12,-0.15c0.4,-0.02 0.75,-0.03 1.06,-0.03c0.64,0 1.22,0.08 1.75,0.23c0.53,0.15 0.98,0.38 1.36,0.7c0.38,0.32 0.67,0.72 0.87,1.21c0.2,0.48 0.3,1.06 0.3,1.73zm-5.08,2.68c0.08,0.01 0.19,0.01 0.32,0.02c0.13,0 0.31,0.01 0.54,0.01c0.93,0 1.63,-0.24 2.08,-0.71c0.46,-0.47 0.69,-1.13 0.69,-1.99c0,-0.87 -0.22,-1.53 -0.67,-1.99s-1.14,-0.69 -2.08,-0.69c-0.41,0 -0.7,0.01 -0.88,0.03l0,5.32z" class="st5"/>
   </g>
  </g>
 </g>
</svg>