<svg width="72" height="57" xmlns="http://www.w3.org/2000/svg">
 <style type="text/css">.st0{fill:#3F3939;}
	.st1{fill:#ACB2B0;}
	.st2{fill:#FFFFFF;}
	.st3{fill:#0069B3;}
	.st4{fill:#0F9F39;}
	.st5{fill:none;}
	.st6{fill:#E20D13;}
	.st7{fill:#E20613;}</style>

 <g>
  <title>background</title>
  <rect fill="none" id="canvas_background" height="59" width="74" y="-1" x="-1"/>
 </g>
 <g>
  <title>Layer 1</title>
  <g id="svg_1">
   <path d="m71.370001,21.239997l0,14.93c0,11.48 -9.3,20.78 -20.78,20.78l-50.09,0l0,-35.73c0,-11.44 9.28,-20.72 20.72,-20.72l29.41,0l20.74,0l0,20.74z" class="st0" id="XMLID_278_"/>
   <path id="svg_2" d="m50.590001,57.449997l-50.59,0l0,-36.23c0,-11.7 9.52,-21.22 21.22,-21.22l50.65,0l0,36.17c0,11.73 -9.54,21.28 -21.28,21.28zm-49.58,-1l49.59,0c11.18,0 20.28,-9.1 20.28,-20.28l0,-35.17l-49.65,0c-11.15,0 -20.22,9.07 -20.22,20.22l0,35.23z" class="st1"/>
   <g id="svg_3">
    <path id="svg_4" d="m20.090001,40.739997c0.16,0.28 0.34,0.62 0.54,1.02c0.2,0.4 0.4,0.83 0.6,1.27c0.21,0.44 0.41,0.89 0.61,1.35s0.39,0.88 0.56,1.27c0.17,-0.39 0.35,-0.81 0.55,-1.27c0.2,-0.46 0.4,-0.91 0.6,-1.35c0.21,-0.44 0.41,-0.87 0.6,-1.27c0.2,-0.4 0.38,-0.74 0.54,-1.02l1.25,0c0.07,0.56 0.13,1.15 0.19,1.78c0.06,0.63 0.11,1.27 0.16,1.92c0.05,0.66 0.09,1.32 0.13,1.98s0.08,1.31 0.11,1.94l-1.36,0c-0.03,-0.89 -0.07,-1.8 -0.11,-2.74c-0.04,-0.94 -0.1,-1.85 -0.19,-2.73c-0.08,0.17 -0.18,0.37 -0.29,0.6c-0.11,0.24 -0.23,0.49 -0.35,0.76c-0.12,0.28 -0.25,0.56 -0.38,0.85c-0.13,0.29 -0.25,0.58 -0.37,0.85s-0.23,0.53 -0.34,0.77s-0.19,0.44 -0.26,0.61l-1.03,0c-0.07,-0.17 -0.16,-0.37 -0.26,-0.62s-0.21,-0.5 -0.34,-0.78c-0.12,-0.28 -0.25,-0.56 -0.37,-0.85s-0.25,-0.58 -0.38,-0.85c-0.12,-0.27 -0.24,-0.53 -0.35,-0.76s-0.21,-0.44 -0.29,-0.6c-0.08,0.88 -0.14,1.79 -0.19,2.73c-0.04,0.94 -0.08,1.85 -0.11,2.74l-1.36,0c0.03,-0.63 0.07,-1.28 0.11,-1.96s0.09,-1.34 0.13,-2.01c0.05,-0.66 0.1,-1.31 0.16,-1.93c0.06,-0.62 0.12,-1.2 0.19,-1.73l1.3,0l0,0.03z" class="st2"/>
    <path id="svg_5" d="m28.140001,40.739997l1.39,0l0,7.62l-1.39,0l0,-7.62z" class="st2"/>
    <path id="svg_6" d="m33.020001,40.739997c0.16,0.28 0.34,0.62 0.54,1.02c0.2,0.4 0.4,0.83 0.6,1.27c0.21,0.44 0.41,0.89 0.61,1.35s0.39,0.88 0.56,1.27c0.17,-0.39 0.35,-0.81 0.55,-1.27c0.2,-0.46 0.4,-0.91 0.6,-1.35c0.21,-0.44 0.41,-0.87 0.6,-1.27c0.2,-0.4 0.38,-0.74 0.54,-1.02l1.25,0c0.07,0.56 0.13,1.15 0.19,1.78c0.06,0.63 0.11,1.27 0.16,1.92c0.05,0.66 0.09,1.32 0.13,1.98s0.08,1.31 0.11,1.94l-1.36,0c-0.03,-0.89 -0.07,-1.8 -0.11,-2.74c-0.04,-0.94 -0.1,-1.85 -0.19,-2.73c-0.08,0.17 -0.18,0.37 -0.29,0.6c-0.11,0.24 -0.23,0.49 -0.35,0.76c-0.12,0.28 -0.25,0.56 -0.38,0.85c-0.13,0.29 -0.25,0.58 -0.37,0.85s-0.23,0.53 -0.34,0.77s-0.19,0.44 -0.26,0.61l-1.03,0c-0.07,-0.17 -0.16,-0.37 -0.26,-0.62s-0.21,-0.5 -0.34,-0.78c-0.12,-0.28 -0.25,-0.56 -0.37,-0.85s-0.25,-0.58 -0.38,-0.85c-0.12,-0.27 -0.24,-0.53 -0.35,-0.76s-0.21,-0.44 -0.29,-0.6c-0.08,0.88 -0.14,1.79 -0.19,2.73c-0.04,0.94 -0.08,1.85 -0.11,2.74l-1.36,0c0.03,-0.63 0.07,-1.28 0.11,-1.96s0.09,-1.34 0.13,-2.01c0.05,-0.66 0.1,-1.31 0.16,-1.93c0.06,-0.62 0.12,-1.2 0.19,-1.73l1.3,0l0,0.03z" class="st2"/>
    <path id="svg_7" d="m41.080001,40.739997l1.39,0l0,7.62l-1.39,0l0,-7.62z" class="st2"/>
    <path id="svg_8" d="m47.680001,48.529997c-0.57,0 -1.08,-0.09 -1.54,-0.26c-0.46,-0.18 -0.84,-0.43 -1.16,-0.78c-0.32,-0.34 -0.56,-0.76 -0.73,-1.25c-0.17,-0.49 -0.25,-1.06 -0.25,-1.69c0,-0.64 0.1,-1.2 0.29,-1.69s0.46,-0.91 0.8,-1.25s0.73,-0.6 1.19,-0.78s0.94,-0.26 1.46,-0.26c0.31,0 0.6,0.02 0.86,0.07c0.26,0.05 0.48,0.1 0.67,0.16c0.19,0.06 0.35,0.12 0.47,0.19c0.12,0.07 0.21,0.11 0.26,0.14l-0.41,1.13c-0.18,-0.11 -0.43,-0.21 -0.75,-0.31c-0.33,-0.1 -0.68,-0.15 -1.06,-0.15c-0.33,0 -0.64,0.06 -0.92,0.17c-0.29,0.11 -0.53,0.28 -0.74,0.51s-0.37,0.51 -0.49,0.86s-0.18,0.75 -0.18,1.2c0,0.4 0.05,0.77 0.14,1.11c0.09,0.34 0.23,0.63 0.42,0.87c0.19,0.25 0.43,0.44 0.73,0.57c0.29,0.14 0.65,0.2 1.06,0.2c0.49,0 0.89,-0.05 1.2,-0.15c0.31,-0.1 0.55,-0.19 0.71,-0.28l0.37,1.13c-0.09,0.06 -0.21,0.12 -0.36,0.18c-0.15,0.06 -0.33,0.12 -0.53,0.17c-0.21,0.05 -0.44,0.1 -0.69,0.13s-0.53,0.06 -0.82,0.06z" class="st2"/>
   </g>
   <path id="svg_9" d="m24.760001,24.119997c-2.97,0 -5.38,-2.41 -5.38,-5.38c0,-2.97 2.41,-5.38 5.38,-5.38c2.97,0 5.38,2.41 5.38,5.38c0,2.96 -2.41,5.38 -5.38,5.38zm0,-9.77c-2.42,0 -4.38,1.97 -4.38,4.38s1.97,4.38 4.38,4.38s4.38,-1.96 4.38,-4.38s-1.96,-4.38 -4.38,-4.38z" class="st3"/>
   <path id="svg_10" d="m17.220001,12.209997c-0.77,0 -1.4,-0.63 -1.4,-1.4s0.63,-1.4 1.4,-1.4s1.4,0.63 1.4,1.4s-0.62,1.4 -1.4,1.4zm0,-1.95c-0.3,0 -0.55,0.25 -0.55,0.55s0.25,0.55 0.55,0.55s0.55,-0.25 0.55,-0.55s-0.24,-0.55 -0.55,-0.55z" class="st3"/>
   <rect id="svg_11" height="1" width="4.31" class="st3" y="20.679997" x="16.510001"/>
   <rect id="svg_12" height="1" width="4.31" class="st3" y="20.679997" x="29.030001"/>
   <g id="svg_13">
    <polygon id="svg_14" points="25.719993591308594,31.56999969482422 25.719993591308594,27.849998474121094 24.719993591308594,27.849998474121094 24.719993591308594,32.56999969482422 25.719993591308594,32.56999969482422 " class="st4"/>
   </g>
   <polygon id="svg_15" points="38.670005798339844,11.680000305175781 37.81000518798828,11.680000305175781 37.81000518798828,9.379997253417969 22.170005798339844,9.379997253417969 21.040000915527344,8.519996643066406 38.670005798339844,8.519996643066406 " class="st4"/>
   <path id="svg_16" d="m44.730001,13.879997l0,2.6c0,1.77 1.44,3.22 3.22,3.22l0.09,0c1.77,0 3.22,-1.44 3.22,-3.22l0,-2.6l-6.53,0z" class="st3"/>
   <rect id="svg_17" height="8.62" width="0.22" class="st1" y="11.869997" x="38.130001"/>
   <rect id="svg_18" height="8.62" width="0.22" class="st1" y="11.869997" x="38.780001"/>
   <rect id="svg_19" height="8.62" width="0.22" class="st1" y="11.869997" x="37.500001"/>
   <path id="svg_20" d="m24.760001,28.019997c-4.95,0 -8.95,-3.98 -9.29,-9.25c-0.02,-0.38 -0.25,-1.24 -0.49,-2.15c-0.4,-1.52 -0.9,-3.4 -0.96,-4.81l0,0c-0.05,-1.35 0.68,-2.85 1.82,-3.73c0.9,-0.7 1.92,-0.92 2.87,-0.64c2.17,0.64 5.76,1.66 6.23,1.79c5.36,0.38 9.1,4.28 9.1,9.51c0.01,5.12 -4.16,9.28 -9.28,9.28zm-9.73,-16.25c0.05,1.29 0.53,3.12 0.92,4.59c0.28,1.04 0.49,1.86 0.52,2.34c0.31,4.74 3.87,8.32 8.29,8.32c4.57,0 8.29,-3.72 8.29,-8.29c0,-4.7 -3.38,-8.2 -8.22,-8.51l-0.1,-0.02c0,0 -3.96,-1.12 -6.29,-1.81c-0.86,-0.26 -1.61,0.19 -1.97,0.47c-0.89,0.69 -1.48,1.89 -1.44,2.91l0,0z" class="st3"/>
   <rect id="svg_21" height="3.97" width="1.2" class="st4" y="20.139997" x="47.390001"/>
   <polygon id="svg_22" points="48.079994201660156,25.980003356933594 48.079994201660156,25.980003356933594 48.079994201660156,25.980003356933594 " class="st4"/>
   <g id="svg_23">
    <polygon id="svg_24" points="48.079994201660156,25.980003356933594 48.079994201660156,25.980003356933594 48.079994201660156,25.980003356933594 " class="st5"/>
    <path id="svg_25" d="m49.490001,25.049997l0,0.83l-0.9,0l-0.45,0l0.45,-0.72l0.66,-1.05l-0.66,0l-1.2,0l-0.5,0l0.5,0.78l0.68,1.08l0,0l0,0l0,0l-0.68,1.08l-0.5,0.78l0.5,0l1.2,0l0.66,0l-0.66,-1.05l-0.45,-0.72l0.45,0l0.9,0l0,0.83c0.52,0 0.93,-0.42 0.93,-0.93c0.01,-0.49 -0.41,-0.91 -0.93,-0.91z" class="st1"/>
   </g>
   <path id="svg_26" d="m53.860001,24.419997l0,1.16c0,1.77 1.44,3.22 3.22,3.22l0.08,0c1.77,0 3.22,-1.44 3.22,-3.22l0,-1.16l-6.52,0z" class="st1"/>
   <rect id="svg_27" height="1.2" width="2.94" class="st4" y="31.359997" x="47.990001"/>
   <polygon id="svg_28" points="56.519996643066406,29.279991149902344 56.519996643066406,31.35999298095703 54.670005798339844,31.35999298095703 54.670005798339844,32.55998992919922 57.719993591308594,32.55998992919922 57.719993591308594,29.279991149902344 " class="st4"/>
   <path id="svg_29" d="m53.720001,31.359997l-0.82,0.52l0,-0.52l0,-0.84l0.83,0c0,-0.52 -0.42,-0.93 -0.93,-0.93c-0.52,0 -0.93,0.42 -0.93,0.93l0.83,0l0,0.84l0,0.52l-0.82,-0.52l-0.95,-0.6l0,0.6l0,1.2l0,0.56l0.88,-0.56l0.98,-0.62l0,0l0.98,0.62l0.88,0.56l0,-0.56l0,-1.2l0,-0.6l-0.93,0.6z" class="st1"/>
   <rect id="svg_30" height="11.28" width="1.2" class="st4" y="20.679997" x="37.640001"/>
   <path id="svg_31" d="m38.240001,21.379997c-1.12,0 -2.04,-0.92 -2.04,-2.04l0,-6.44c0,-1.12 0.91,-2.04 2.04,-2.04s2.04,0.92 2.04,2.04l0,6.44c0,1.12 -0.92,2.04 -2.04,2.04zm0,-9.52c-0.57,0 -1.04,0.47 -1.04,1.04l0,6.44c0,0.57 0.47,1.04 1.04,1.04s1.04,-0.47 1.04,-1.04l0,-6.44c0,-0.57 -0.47,-1.04 -1.04,-1.04z" class="st6"/>
   <path id="svg_32" d="m48.040001,20.559997l-0.08,0c-2.25,0 -4.08,-1.83 -4.08,-4.08l0,-8.46l8.24,0l0,8.46c-0.01,2.25 -1.83,4.08 -4.08,4.08zm-3.31,-11.68l0,7.6c0,1.77 1.44,3.22 3.22,3.22l0.09,0c1.77,0 3.22,-1.44 3.22,-3.22l0,-7.6l-6.53,0z" class="st1"/>
   <path id="svg_33" d="m57.160001,29.659997l-0.08,0c-2.25,0 -4.08,-1.83 -4.08,-4.08l0,-5.02l8.24,0l0,5.02c0,2.25 -1.83,4.08 -4.08,4.08zm-3.3,-8.24l0,4.16c0,1.77 1.44,3.22 3.22,3.22l0.08,0c1.77,0 3.22,-1.44 3.22,-3.22l0,-4.16l-6.52,0z" class="st7"/>
   <path id="svg_34" d="m31.780001,28.809997c-0.7,0 -1.34,0.24 -1.86,0.62l4.34,1.93l0.58,0c-0.28,-1.45 -1.54,-2.55 -3.06,-2.55z" class="st5"/>
   <path id="svg_35" d="m28.700001,31.359997l1.17,0l0,-1.89c-0.6,0.46 -1.02,1.12 -1.17,1.89z" class="st5"/>
   <path id="svg_36" d="m31.780001,35.109997c1.53,0 2.78,-1.1 3.06,-2.55l-0.58,0l-4.34,1.93c0.52,0.38 1.16,0.62 1.86,0.62z" class="st5"/>
   <path id="svg_37" d="m29.860001,34.439997l0,-1.89l-1.17,0c0.16,0.77 0.58,1.43 1.17,1.89z" class="st5"/>
   <path id="svg_38" d="m47.390001,27.849997l0,3.51l-11.33,0c0.03,0.2 0.06,0.39 0.06,0.6s-0.03,0.4 -0.06,0.6l12.53,0l0,-4.71l-1.2,0z" class="st4"/>
   <path id="svg_39" d="m27.490001,31.359997l-2.27,0l0,1.2l2.27,0c-0.03,-0.2 -0.06,-0.39 -0.06,-0.6s0.03,-0.41 0.06,-0.6z" class="st4"/>
   <g id="svg_40">
    <path id="svg_41" d="m29.860001,29.469997c-0.6,0.46 -1.01,1.12 -1.17,1.89l1.17,0l0,-1.89z" class="st5"/>
    <path id="svg_42" d="m34.890001,31.639997c-0.01,-0.1 -0.04,-0.19 -0.06,-0.28c-0.28,-1.45 -1.53,-2.55 -3.06,-2.55c-0.7,0 -1.34,0.24 -1.86,0.62l4.34,1.93l0.64,0.28z" class="st5"/>
    <path id="svg_43" d="m29.860001,34.439997l0,-1.89l-1.17,0c0.16,0.77 0.58,1.43 1.17,1.89z" class="st5"/>
    <path id="svg_44" d="m34.250001,32.559997l-4.34,1.93c0.52,0.39 1.16,0.62 1.86,0.62c1.53,0 2.78,-1.1 3.06,-2.55c0.02,-0.09 0.05,-0.19 0.06,-0.28l-0.64,0.28z" class="st5"/>
    <path id="svg_45" d="m36.070001,31.359997c-0.3,-2.11 -2.1,-3.75 -4.29,-3.75c-2.19,0 -3.99,1.64 -4.29,3.75c-0.03,0.2 -0.06,0.39 -0.06,0.6s0.03,0.4 0.06,0.6c0.3,2.11 2.1,3.75 4.29,3.75c2.19,0 3.99,-1.64 4.29,-3.75c0.03,-0.2 0.06,-0.39 0.06,-0.6s-0.04,-0.41 -0.06,-0.6zm-4.29,-2.55c1.53,0 2.78,1.1 3.06,2.55c0.02,0.09 0.05,0.19 0.06,0.28l-0.64,-0.28l-4.34,-1.93c0.52,-0.39 1.16,-0.62 1.86,-0.62zm-1.92,0.66l0,1.89l-1.17,0c0.16,-0.77 0.58,-1.43 1.17,-1.89zm0,4.97c-0.6,-0.46 -1.01,-1.12 -1.17,-1.89l1.17,0l0,1.89zm1.92,0.67c-0.7,0 -1.34,-0.24 -1.86,-0.62l4.34,-1.93l0.64,-0.28c-0.01,0.1 -0.04,0.19 -0.06,0.28c-0.28,1.44 -1.54,2.55 -3.06,2.55z" class="st1"/>
   </g>
  </g>
 </g>
</svg>