<svg width="65.6" height="66" xmlns="http://www.w3.org/2000/svg">
 <style type="text/css">.st0{fill:#0F9F39;}
	.st1{fill-rule:evenodd;clip-rule:evenodd;fill:#FFFFFF;}</style>

 <g>
  <title>background</title>
  <rect fill="none" id="canvas_background" height="68" width="67.6" y="-1" x="-1"/>
 </g>
 <g>
  <title>Layer 1</title>
  <g id="svg_1">
   <path id="svg_2" d="m46.12,0l-27.06,0c-10.53,0 -19.06,7.08 -19.06,15.81l0,49.39l46.08,0c10.56,0 19.12,-7.1 19.12,-15.85l0,-33.53l0,-15.82l-19.08,0z" class="st0"/>
   <g id="svg_3">
    <path d="m44.84,18.24l0.73,1.04c-2.98,2.24 -6.29,5.69 -9.93,10.35c-3.65,4.66 -6.43,9.02 -8.35,13.07l-1.54,1.04c-1.28,0.89 -2.15,1.55 -2.61,1.98c-0.18,-0.65 -0.58,-1.73 -1.19,-3.21l-0.58,-1.36c-0.83,-1.95 -1.61,-3.39 -2.33,-4.32c-0.72,-0.93 -1.52,-1.55 -2.41,-1.86c1.5,-1.58 2.88,-2.38 4.13,-2.38c1.07,0 2.26,1.45 3.57,4.36l0.65,1.46c2.35,-3.97 5.37,-7.82 9.06,-11.56c3.68,-3.73 7.28,-6.6 10.8,-8.61z" class="st1" id="XMLID_298_"/>
    <g id="XMLID_293_">
     <path d="m40.79,54.26c0,-0.42 0.05,-0.81 0.16,-1.16c0.11,-0.35 0.29,-0.63 0.53,-0.83c0.24,-0.21 0.56,-0.32 0.95,-0.32c0.39,0.01 0.7,0.11 0.94,0.32c0.24,0.21 0.42,0.49 0.53,0.83c0.11,0.35 0.17,0.73 0.16,1.16c0,0.4 -0.05,0.78 -0.16,1.13c-0.11,0.35 -0.29,0.63 -0.53,0.85c-0.24,0.22 -0.56,0.33 -0.94,0.33c-0.39,-0.01 -0.7,-0.12 -0.95,-0.33c-0.24,-0.22 -0.42,-0.5 -0.53,-0.85c-0.11,-0.35 -0.16,-0.73 -0.16,-1.13zm-1.99,0c0,1.16 0.31,2.07 0.93,2.73c0.61,0.66 1.51,1 2.7,1.01c1.18,-0.01 2.08,-0.35 2.7,-1.01c0.61,-0.66 0.92,-1.57 0.93,-2.73c0,-1.17 -0.31,-2.08 -0.92,-2.74c-0.61,-0.66 -1.51,-0.99 -2.71,-1c-1.19,0.01 -2.1,0.34 -2.71,1c-0.61,0.65 -0.92,1.57 -0.92,2.74z" class="st1" id="XMLID_295_"/>
     <polygon points="48.0099983215332,57.8700065612793 49.940006256103516,57.8700065612793 49.940006256103516,54.59000778198242 49.95999526977539,54.59000778198242 52.20999526977539,57.8700065612793 54.66000747680664,57.8700065612793 51.78000259399414,54.010005950927734 54.45000076293945,50.63999557495117 52.1299934387207,50.63999557495117 49.95999526977539,53.59000778198242 49.940006256103516,53.59000778198242 49.940006256103516,50.63999557495117 48.0099983215332,50.63999557495117 " class="st1" id="XMLID_294_"/>
    </g>
   </g>
  </g>
 </g>
</svg>